<?xml version="1.0" encoding="UTF-8"?><svg id="_レイヤー_1" xmlns="http://www.w3.org/2000/svg" viewBox="0 0 1315.58 47.26"><defs><style>.cls-1{fill:#1f1815;}</style></defs><path d="M587.14,10.27c-1.17-4.94-4.23-7.74-8.52-7.74-4.94,0-8.71,3.51-8.71,8,0,1.95.78,3.77,2.21,5.2,1.36,1.36,2.47,2.15,6.7,4.88,4.55,2.86,6.17,4.1,7.73,5.85,1.82,2.01,2.86,4.94,2.86,8,0,7.54-5.92,12.81-14.3,12.81-3.71,0-6.83-.72-10.59-2.41-.07-1.63-.59-5.14-1.3-8.97l1.88-.39c1.43,6.37,4.88,9.62,10.34,9.62s9.43-3.77,9.43-8.71c0-4.03-1.5-5.85-8.84-10.53-5.2-3.38-5.85-3.83-7.34-5.53-1.89-2.15-2.99-5.14-2.99-8.06s1.04-5.59,2.92-7.67c2.54-2.73,6.17-4.1,10.92-4.1,2.86,0,5.39.39,8.12,1.3.26,2.41.71,5.07,1.43,8.06l-1.95.39Z"/><path d="M600.27-.06c2.08,1.3,4.42,1.56,12.54,1.56,15.21,0,18.07-.2,21.13-1.56h1.1c-1.1,3.9-1.95,7.28-2.34,9.62h-1.95c.13-.91.2-1.43.2-2.08,0-2.8-1.1-3.51-5.33-3.51h-7.61v31.53q.13,7.09,1.17,8c.71.65,2.15.98,3.97.98h.65v2.08c-3.77-.26-5.66-.32-7.87-.32s-3.18.06-8.65.32v-2.08h.39c1.82,0,3.25-.32,3.96-.98q1.04-.91,1.17-8V3.97h-4.62c-6.5,0-8.19.91-10.08,5.59h-1.95c1.11-2.86,1.82-5.14,2.92-9.62h1.17Z"/><path d="M646.48,35.23c-1.24,3.38-1.95,5.98-1.95,6.89,0,1.56,1.3,2.21,4.36,2.34v2.08c-2.92-.26-4.48-.32-7.08-.32s-4.03.06-6.5.32v-2.08c2.47-.13,3.45-.52,4.36-1.62.98-1.43,1.11-1.69,5.98-13.65l5.2-13.59c.98-2.6,2.01-5.27,3.06-8.06.91-2.28,1.1-2.73,2.27-5.92l3.45-1.62.39,1.17c.46,1.56.91,3.12,1.43,4.68.39,1.3.78,2.53,1.23,3.77l7.28,21.97c4.1,12.16,4.29,12.48,9.04,12.87v2.08c-3.32-.26-5.14-.32-7.35-.32-2.47,0-3.58.06-8.19.32v-2.08c3.06-.13,4.29-.72,4.29-2.02,0-.71-.52-2.79-1.1-4.75l-3.19-9.75h-14.37l-2.6,7.28ZM662.67,25.55l-5.98-18.59-6.7,18.59h12.67Z"/><path d="M712.46,11.18c-.26-2.73-1.11-4.49-2.6-5.59-1.69-1.23-3.9-1.62-9.49-1.62-3.12,0-3.96.06-4.23.52-.19.33-.26.65-.26,2.34v16.38h5.72c4.48,0,6.5-.32,7.54-1.36.71-.72.91-1.36,1.1-4.16h2.02c-.13,3.12-.2,4.75-.2,6.96s.07,3.71.2,6.31h-2.02c-.26-4.75-1.04-5.27-8.12-5.27h-6.24v9.82q.13,7.09,1.17,8c.71.65,2.15.98,3.97.98h.52v2.08c-3.38-.26-5.13-.32-7.87-.32s-4.75.06-8.45.32v-2.08h.39c1.82,0,3.25-.32,3.97-.98q1.04-.91,1.17-8V12.22q-.13-7.15-1.17-8c-.72-.65-2.15-1.04-3.97-1.04h-.65V1.17c6.37.32,7.93.39,12.67.39,6.37,0,10.47-.06,15.86-.39l1.04,9.82-2.08.2Z"/><path d="M750.03,11.18c-.26-2.73-1.11-4.49-2.6-5.59-1.69-1.23-3.9-1.62-9.49-1.62-3.12,0-3.96.06-4.23.52-.19.33-.26.65-.26,2.34v16.38h5.72c4.48,0,6.5-.32,7.54-1.36.71-.72.91-1.36,1.1-4.16h2.02c-.13,3.12-.2,4.75-.2,6.96s.07,3.71.2,6.31h-2.02c-.26-4.75-1.04-5.27-8.12-5.27h-6.24v9.82q.13,7.09,1.17,8c.71.65,2.15.98,3.97.98h.52v2.08c-3.38-.26-5.13-.32-7.87-.32s-4.75.06-8.45.32v-2.08h.39c1.82,0,3.25-.32,3.97-.98q1.04-.91,1.17-8V12.22q-.13-7.15-1.17-8c-.72-.65-2.15-1.04-3.97-1.04h-.65V1.17c6.37.32,7.93.39,12.67.39,6.37,0,10.47-.06,15.86-.39l1.04,9.82-2.08.2Z"/><rect class="cls-1" x="782.68" y="23.93" width="532.9" height=".75"/><rect class="cls-1" y="23.93" width="531.68" height=".75"/></svg>