<?xml version="1.0" encoding="UTF-8"?><svg id="_レイヤー_1" xmlns="http://www.w3.org/2000/svg" viewBox="0 0 122.78 39.71"><defs><style>.cls-1{fill:#fff;}.cls-2{fill:#9b003f;}</style></defs><rect class="cls-2" y="0" width="122.78" height="39.71" rx="7.32" ry="7.32"/><path class="cls-1" d="M35.57,17.08h-.26l1.23-1.11,1.86,1.78c-.08.11-.18.17-.32.21-.13.03-.33.06-.59.09-1.3,2.46-3.16,4.55-5.56,6.27-2.4,1.72-5.47,2.95-9.19,3.7l-.14-.3c2.11-.67,4.01-1.53,5.72-2.57,1.7-1.04,3.17-2.24,4.4-3.6s2.18-2.85,2.85-4.47ZM22.95,13.07h14.28l1.2-1.54c.3.22.57.43.8.61.23.18.47.38.73.58.26.2.49.41.7.6-.05.21-.24.32-.55.32h-17.01l-.16-.57ZM24.3,17.08h12.17v.57h-11.99l-.18-.57ZM27.67,17.18c.51,1.28,1.22,2.41,2.12,3.41.9.99,1.95,1.85,3.13,2.58,1.18.72,2.47,1.33,3.85,1.82,1.38.49,2.81.87,4.29,1.15l-.04.22c-.43.08-.8.26-1.11.53-.3.28-.53.65-.67,1.11-1.9-.54-3.63-1.26-5.19-2.17-1.56-.91-2.91-2.06-4.05-3.45s-2.02-3.05-2.64-4.99l.3-.2ZM30.75,9.69l2.63.24c-.01.13-.07.25-.17.35-.1.1-.28.17-.54.21v6.89h-1.92v-7.68Z"/><path class="cls-1" d="M43.1,19.71c.39-.11.96-.28,1.69-.53.73-.25,1.56-.54,2.49-.88.93-.34,1.87-.68,2.83-1.04l.1.24c-.63.45-1.43,1-2.39,1.67s-2.09,1.4-3.4,2.2c-.07.26-.21.44-.43.53l-.89-2.19ZM49.02,12.89c.38.36.7.66.97.9.26.24.49.48.69.7-.05.21-.22.32-.51.32h-6.78l-.16-.57h4.88l.91-1.34ZM48.41,9.93c-.01.14-.08.26-.19.36s-.29.16-.54.2v15.05c0,.46-.05.86-.15,1.2-.1.34-.32.62-.66.83-.34.21-.88.35-1.6.41-.03-.32-.07-.59-.13-.83s-.15-.44-.27-.61c-.13-.16-.32-.29-.55-.4s-.56-.2-.97-.27v-.3c.36.03.66.05.92.06.26.01.5.03.72.04.22.01.38.02.47.02.16,0,.27-.03.33-.08s.09-.14.09-.28v-15.66l2.53.26ZM54.48,16.27c-.18,1.63-.52,3.16-1.01,4.59-.49,1.43-1.19,2.72-2.1,3.87-.91,1.15-2.11,2.16-3.59,3.01l-.18-.24c1.13-.96,2.04-2.03,2.73-3.21.68-1.18,1.2-2.44,1.55-3.79.35-1.35.57-2.76.66-4.24h1.94ZM59.71,17.38c.42.33.78.62,1.07.86s.55.48.77.7c-.04.21-.22.32-.53.32h-11.71l-.16-.57h9.54l1.03-1.3ZM57.4,20.76l1.05-.97,1.7,1.52c-.12.16-.39.25-.81.28-.82,1.67-2.02,3.05-3.62,4.14-1.59,1.09-3.64,1.87-6.14,2.34l-.12-.3c2.13-.66,3.89-1.58,5.25-2.76,1.37-1.18,2.34-2.6,2.9-4.26h-.22ZM59.02,14.95c.41.32.75.59,1.03.82.28.23.53.45.75.66-.04.21-.21.32-.51.32h-10.13l-.16-.57h8.06l.97-1.23ZM60.46,11.49c-.11.08-.26.12-.45.12s-.43-.06-.69-.18c-.76.13-1.65.25-2.67.36-1.01.11-2.07.18-3.18.23s-2.19.06-3.24.05l-.06-.32c.75-.09,1.52-.21,2.31-.37.79-.15,1.57-.32,2.34-.51.77-.19,1.49-.39,2.15-.59.66-.2,1.23-.4,1.69-.6l1.8,1.82ZM50.66,12.58c.64.24,1.16.5,1.53.8.38.3.64.59.8.89s.23.57.21.82-.1.45-.24.6c-.14.15-.31.23-.52.24-.21,0-.43-.08-.67-.27-.04-.33-.13-.67-.28-1.03-.14-.36-.31-.7-.49-1.05-.18-.34-.38-.64-.57-.89l.24-.12ZM58.39,20.74v.57h-5.77l.26-.57h5.51ZM53.19,20.78c.45,1.05,1.08,1.94,1.91,2.67s1.78,1.31,2.88,1.75,2.28.78,3.55,1.02v.2c-.74.17-1.22.7-1.44,1.58-1.21-.41-2.28-.92-3.22-1.52-.94-.61-1.74-1.36-2.4-2.26s-1.18-1.99-1.55-3.27l.28-.16ZM53.67,12.18c.63.29,1.12.6,1.47.92.35.32.59.64.71.95s.17.59.13.84-.13.45-.29.59c-.15.14-.34.21-.55.21-.22,0-.44-.12-.66-.33-.03-.51-.14-1.05-.36-1.62-.21-.57-.43-1.05-.67-1.46l.22-.1ZM60.21,12.68c-.04.11-.12.19-.25.27-.13.07-.29.1-.5.09-.41.61-.85,1.22-1.32,1.85-.47.63-.94,1.17-1.4,1.63l-.28-.18c.13-.37.28-.8.45-1.3.17-.5.34-1.03.51-1.58.17-.55.34-1.09.49-1.62l2.29.85Z"/><path class="cls-1" d="M66.66,16.94c-.24,0-.5-.09-.78-.27-.28-.18-.54-.4-.76-.66-.22-.26-.38-.51-.45-.73-.05-.2-.09-.41-.11-.65s-.03-.46-.03-.67l.34-.14c.2.25.37.46.52.64.15.18.31.32.48.41.17.1.37.15.59.17.18,0,.52-.02,1-.07.48-.05,1.04-.11,1.68-.19.64-.08,1.29-.16,1.97-.25.67-.09,1.3-.16,1.89-.24.59-.07,1.06-.12,1.43-.15.99-.11,1.79-.2,2.41-.29.62-.09,1.11-.15,1.48-.21.37-.05.64-.1.82-.13s.31-.05.4-.05c.3,0,.62.05.94.16s.6.25.82.44c.22.19.34.42.34.68s-.07.44-.21.52c-.14.09-.34.13-.6.13-.18,0-.43-.02-.73-.07-.3-.05-.69-.1-1.16-.15s-1.05-.08-1.74-.09c-.69,0-1.53.04-2.52.13-.82.07-1.61.16-2.38.3-.77.13-1.47.27-2.1.4-.63.14-1.16.27-1.6.38-.3.08-.56.17-.77.27-.21.1-.4.18-.58.25-.18.07-.37.1-.58.1ZM68.36,27.33c1.2-.43,2.26-.99,3.19-1.66.93-.67,1.58-1.48,1.96-2.43-.66.24-1.25.24-1.77.02-.52-.22-.94-.6-1.24-1.13-.31-.53-.46-1.12-.46-1.78,0-.55.12-1.05.35-1.49.23-.44.55-.8.96-1.07.41-.27.88-.4,1.42-.4.72,0,1.3.16,1.74.48.43.32.75.75.95,1.28s.3,1.14.3,1.81c0,.96-.18,1.82-.54,2.58-.36.76-.87,1.42-1.51,1.98-.64.56-1.4,1.02-2.28,1.39-.88.37-1.83.65-2.85.85l-.2-.43ZM72.53,21.94c.49,0,.84-.14,1.05-.41s.32-.72.32-1.34c0-.55-.12-1-.35-1.33-.23-.34-.56-.5-.98-.5-.47,0-.86.18-1.15.53-.29.36-.43.8-.43,1.32,0,.49.14.9.43,1.23s.66.5,1.11.5ZM73.6,18.07c0-.18,0-.45-.02-.79s-.03-.73-.05-1.16c-.02-.43-.05-.87-.08-1.32-.03-.45-.07-.88-.1-1.28-.03-.4-.06-.75-.09-1.04-.03-.18-.07-.32-.13-.39s-.17-.14-.33-.2c-.16-.07-.35-.12-.57-.16-.22-.04-.48-.07-.77-.1l-.04-.34c.21-.13.46-.26.74-.38.28-.13.57-.19.86-.19.33,0,.67.05,1.04.14.36.09.67.22.92.38s.38.34.38.53c0,.25-.06.48-.17.68-.11.2-.17.43-.19.68-.03.24-.05.6-.06,1.09-.01.49-.02,1.03-.02,1.64v1.84c0,.62,0,1.17.02,1.66l-1.34-1.28Z"/><path class="cls-1" d="M92.06,27.12c-.75,0-1.42-.1-2-.31-.59-.2-1.05-.5-1.38-.88-.34-.38-.5-.84-.5-1.36,0-.61.24-1.1.71-1.47.47-.38,1.06-.56,1.76-.56.49,0,.97.11,1.45.33s.9.55,1.26,1,.59,1.03.68,1.76l-1.56.28c-.09-.79-.35-1.41-.76-1.85s-.92-.66-1.51-.66c-.36,0-.65.09-.88.27-.23.18-.35.42-.35.74,0,.36.22.66.65.9s1.07.37,1.9.37c1.18,0,2.15-.17,2.88-.52.74-.35,1.28-.81,1.64-1.37.36-.57.53-1.18.53-1.84.01-.59-.11-1.13-.38-1.62-.26-.49-.66-.88-1.18-1.18s-1.18-.44-1.97-.44c-.92,0-1.76.19-2.5.56-.74.38-1.43.87-2.07,1.47-.63.61-1.23,1.27-1.8,2-.2.25-.36.42-.49.52-.13.1-.3.14-.49.13-.17,0-.34-.1-.49-.3s-.22-.45-.2-.77c.01-.24.09-.46.23-.66.14-.2.35-.44.62-.72.49-.49,1.02-1.02,1.59-1.6.57-.58,1.16-1.16,1.75-1.73s1.15-1.13,1.68-1.68c.53-.55.99-1.04,1.38-1.47s.68-.79.87-1.07c.14-.18.19-.31.13-.38-.06-.07-.16-.09-.31-.06-.22.04-.52.13-.88.27-.36.14-.72.29-1.09.45s-.67.31-.94.44c-.18.11-.36.22-.52.34s-.35.18-.54.18c-.33,0-.63-.11-.91-.32-.28-.21-.5-.45-.68-.73-.18-.28-.28-.52-.31-.73-.03-.21-.03-.41,0-.6.02-.19.05-.39.09-.6l.32-.04c.14.29.32.56.52.81.2.25.43.38.68.38.18,0,.45-.03.79-.09s.71-.13,1.12-.23c.4-.09.79-.19,1.16-.29.37-.1.68-.19.93-.27.21-.07.37-.13.47-.2.11-.07.19-.13.27-.18s.16-.08.27-.08c.2,0,.42.06.67.18s.49.27.71.44c.22.18.41.37.55.58.14.21.22.4.22.57,0,.16-.06.29-.18.38s-.27.2-.46.3c-.19.1-.4.24-.62.42-.29.21-.65.49-1.08.85-.43.36-.87.73-1.31,1.14-.45.4-.86.78-1.24,1.15-.38.36-.67.65-.87.86-.09.09-.12.17-.09.23.03.06.1.07.19.03.38-.13.86-.28,1.42-.43.57-.16,1.21-.24,1.93-.24.87,0,1.67.18,2.4.53.73.36,1.31.87,1.75,1.55s.64,1.5.63,2.46c0,.86-.25,1.64-.74,2.34-.49.71-1.2,1.27-2.13,1.69-.93.42-2.05.63-3.37.63Z"/></svg>