<?xml version="1.0" encoding="UTF-8"?><svg id="_レイヤー_1" xmlns="http://www.w3.org/2000/svg" viewBox="0 0 176.33 39.71"><defs><style>.cls-1{fill:#9b003f;}.cls-2{fill:#fff;}</style></defs><rect class="cls-1" y="0" width="176.33" height="39.58" rx="7.29" ry="7.29"/><path class="cls-2" d="M30.17,26.27c-.54,0-1.04-.1-1.5-.29-.46-.19-.87-.47-1.24-.83-.37-.36-.7-.79-1-1.29l.28-.28c.37.33.8.61,1.3.84.5.23,1.08.34,1.75.34.91,0,1.61-.26,2.13-.78.51-.52.77-1.18.77-1.98,0-.47-.1-.9-.31-1.29-.2-.39-.52-.7-.95-.94-.43-.24-.99-.36-1.68-.36-.58,0-1.18.1-1.8.31-.62.2-1.24.47-1.84.79-.6.32-1.18.65-1.73.99-.37.24-.76.52-1.17.86-.41.33-.81.68-1.18,1.03-.37.35-.71.68-1,.98-.34.33-.6.58-.77.76s-.34.27-.51.27c-.16,0-.3-.04-.42-.11s-.25-.17-.36-.29c-.16-.17-.27-.35-.34-.53-.07-.18-.11-.37-.11-.57,0-.31.05-.52.14-.63.09-.1.26-.15.51-.14.26.03.48.02.64-.03s.34-.12.52-.23c.24-.13.57-.35.99-.65.43-.3.89-.62,1.4-.96.51-.34,1-.64,1.49-.89.92-.49,1.87-.9,2.85-1.25.98-.35,2.04-.52,3.17-.52.81,0,1.54.15,2.17.46.63.31,1.13.75,1.49,1.32.36.57.54,1.26.54,2.06,0,.68-.17,1.31-.5,1.89s-.82,1.04-1.45,1.4-1.38.53-2.26.53ZM21.68,17.47c-.37,0-.72-.06-1.05-.17-.33-.11-.64-.33-.92-.67-.28-.33-.53-.83-.75-1.49l.29-.22c.33.3.6.54.83.7.22.16.45.27.68.32.23.05.5.08.8.08.29-.01.61-.05.97-.12s.73-.15,1.11-.26c.38-.1.74-.22,1.06-.33.54-.18.98-.37,1.32-.55.34-.18.62-.34.83-.47.21-.13.37-.2.49-.2.07,0,.17,0,.32,0,.14,0,.29.04.44.09.15.05.28.12.38.22.11.09.16.24.18.43,0,.34-.24.64-.71.89-.25.13-.55.26-.92.39-.36.13-.73.26-1.12.39-.39.13-.75.25-1.09.35-.21.05-.5.13-.89.23-.38.1-.78.18-1.19.26s-.77.11-1.07.11ZM23.98,27.36c-.2,0-.35-.07-.45-.21-.1-.14-.21-.31-.3-.51s-.25-.4-.46-.6c-.18-.18-.41-.38-.68-.59-.27-.21-.54-.42-.82-.62-.28-.2-.53-.38-.77-.52l.3-.39c.26.12.54.25.84.38.29.14.58.27.87.38s.53.22.74.3c.21.07.35.06.43-.01.08-.07.12-.2.12-.38v-5.38c0-.47,0-1.03,0-1.68,0-.65,0-1.3,0-1.95v-1.77c0-.53,0-.92-.02-1.15,0-.26-.03-.44-.1-.52-.07-.09-.18-.15-.33-.21-.18-.08-.38-.13-.6-.15s-.47-.04-.76-.05l-.04-.33c.25-.17.51-.3.77-.39.26-.09.55-.14.87-.14s.65.07.99.2c.35.13.65.29.92.47.26.18.39.36.39.53,0,.25-.06.48-.18.68-.12.2-.21.46-.28.78-.05.26-.11.61-.16,1.04-.05.43-.1.92-.15,1.45-.05.53-.08,1.08-.11,1.63-.03.56-.04,1.1-.04,1.62,0,1.09.02,1.98.06,2.67.04.69.08,1.24.13,1.66s.09.75.13,1c.04.25.06.49.06.71,0,.31-.07.63-.2.95-.13.31-.3.58-.51.79-.21.21-.43.31-.67.31ZM34.93,17.23c-.16.03-.3,0-.43-.1s-.27-.18-.41-.28c-.14-.09-.32-.12-.51-.08-.2.01-.46.08-.8.2s-.61.22-.84.3l-.18-.3c.13-.08.3-.19.5-.32.2-.14.4-.28.59-.42.19-.14.33-.26.42-.33.12-.13.19-.25.21-.36.02-.11-.02-.25-.13-.4-.24-.34-.54-.6-.93-.79-.38-.18-.8-.31-1.25-.37-.45-.07-.9-.08-1.33-.06l-.04-.41c.45-.13.89-.22,1.34-.28.45-.05.91-.04,1.4.04.59.08,1.12.27,1.6.58.48.31.86.67,1.14,1.09.28.42.43.85.44,1.3.01.26-.05.49-.18.69-.13.2-.34.3-.63.31Z"/><path class="cls-2" d="M40.05,13.06v-.87l2.07.87h11.62v.57h-11.78v9.2c0,.07-.08.15-.24.26-.16.11-.36.2-.61.28-.25.08-.5.12-.77.12h-.29v-10.42ZM41.11,17.06h12.39v.57h-12.39v-.57ZM41.11,21.11h12.39v.55h-12.39v-.55ZM46.33,9.65l2.68.28c-.01.13-.07.25-.17.34-.1.1-.29.17-.56.21v16.74c0,.08-.08.18-.24.3-.16.12-.36.22-.6.31-.24.08-.48.13-.72.13h-.39V9.65ZM52.79,13.06h-.2l.95-1.04,1.99,1.54c-.05.08-.15.16-.3.24-.14.08-.31.14-.51.18v8.66s-.09.1-.28.19c-.18.09-.4.16-.64.24-.24.07-.48.11-.7.11h-.32v-10.1Z"/><path class="cls-2" d="M63.28,24.05c.34.35.7.64,1.07.86.37.22.8.38,1.27.49.47.11,1.03.19,1.66.23.64.04,1.39.06,2.27.06h2.47c.89,0,1.78,0,2.68-.02s1.75-.03,2.55-.06v.26c-.76.18-1.19.72-1.3,1.61h-6.38c-.92,0-1.71-.04-2.38-.13-.67-.09-1.25-.24-1.75-.46s-.94-.54-1.32-.95-.74-.93-1.08-1.56c-.29.33-.61.68-.98,1.06-.36.38-.72.75-1.07,1.1-.35.35-.68.66-.96.91.01.13,0,.23-.06.31-.05.07-.12.13-.22.19l-1.12-2.23c.39-.14.86-.33,1.4-.55.54-.22,1.09-.47,1.66-.73.57-.26,1.1-.51,1.58-.75v.35ZM63.28,18.99v5l-1.79,1.02v-6.3h-2.68l-.12-.57h2.48l1-1.28,2.11,1.73c-.08.07-.2.14-.35.22-.16.08-.37.14-.65.18ZM59.6,10.25c.93.2,1.68.45,2.25.77.57.31.99.65,1.25,1.01.26.36.41.71.43,1.03.03.33-.04.61-.21.84-.16.23-.38.36-.66.4-.28.04-.58-.05-.91-.28-.11-.42-.28-.85-.53-1.3-.25-.45-.54-.87-.86-1.28-.32-.41-.64-.76-.95-1.06l.18-.14ZM69.84,12.63l1.34,3.23c-.38,1.14-.92,2.25-1.62,3.33s-1.54,2.06-2.53,2.96c-.98.9-2.1,1.66-3.35,2.27l-.22-.26c1.08-.77,2.05-1.74,2.91-2.9s1.6-2.47,2.2-3.94c.6-1.46,1.02-3.03,1.27-4.7ZM65.65,11.11h4.63v.57h-4.45l-.18-.57ZM69.64,11.11h-.49l.75-1.14,2.01,1.46c-.14.15-.36.26-.64.35-.28.09-.63.15-1.03.18.18,1.14.45,2.24.81,3.31s.81,2.05,1.36,2.95c.55.91,1.22,1.72,2.01,2.44.79.72,1.71,1.32,2.78,1.79l-.06.22c-.42.15-.78.38-1.09.72-.31.33-.52.69-.64,1.07-1.26-.87-2.28-1.92-3.06-3.16-.78-1.24-1.38-2.68-1.78-4.32-.41-1.64-.71-3.49-.91-5.55v-.31Z"/><path class="cls-2" d="M82.9,27.18c-.22,0-.43-.08-.62-.23s-.37-.35-.54-.6c-.21-.3-.41-.69-.59-1.16-.18-.47-.33-1.01-.44-1.62s-.17-1.28-.17-2c0-.68.06-1.36.17-2.04.11-.68.24-1.31.37-1.89.14-.58.26-1.07.36-1.47.13-.47.24-.91.33-1.31.09-.4.14-.79.14-1.17.01-.41-.09-.8-.3-1.18-.22-.38-.47-.74-.76-1.08l.24-.22c.29.08.53.16.72.25s.39.21.6.36c.18.1.39.29.63.55.24.26.45.55.63.88.18.32.28.65.28.97,0,.25-.07.5-.21.75-.14.25-.32.63-.56,1.14-.2.41-.41.89-.63,1.46-.22.56-.41,1.17-.56,1.82-.15.65-.23,1.3-.23,1.96,0,.41.03.74.08,1,.05.26.12.48.2.65.07.13.14.2.23.21.08,0,.17-.06.27-.21.12-.17.26-.43.43-.77.17-.34.35-.72.55-1.12.2-.41.39-.8.57-1.19s.33-.71.45-.96l.45.22c-.09.26-.2.57-.33.94-.13.36-.26.73-.39,1.1-.13.37-.25.72-.36,1.02-.11.31-.19.55-.25.74-.09.37-.16.66-.21.89-.05.22-.07.41-.07.57,0,.33.06.65.17.96.11.31.17.61.17.9,0,.59-.27.89-.81.89ZM89.41,17.12c-.42,0-.8-.04-1.15-.13-.35-.08-.69-.28-1.01-.58-.33-.3-.66-.77-1-1.4l.26-.24c.45.3.89.54,1.33.7.44.16.9.25,1.37.25.63,0,1.21-.04,1.75-.12.54-.08,1.02-.18,1.44-.31.42-.12.77-.24,1.06-.34.58-.2.99-.36,1.24-.48s.41-.19.49-.19c.29.01.58.09.87.23.29.14.43.33.43.58,0,.26-.08.46-.25.58-.17.12-.45.27-.86.42-.22.08-.55.18-1,.31-.44.12-.93.24-1.49.34-.55.11-1.13.19-1.73.27-.6.07-1.19.11-1.75.11ZM89.67,26.73c-.59,0-1.13-.1-1.62-.29-.49-.19-.89-.47-1.19-.84-.3-.37-.45-.81-.45-1.34,0-.62.19-1.12.56-1.51s.87-.67,1.5-.86c.62-.18,1.3-.28,2.04-.28,1.06,0,1.98.12,2.75.35s1.41.52,1.94.85c.52.33.94.64,1.24.95.21.2.37.4.48.6s.17.41.17.62c0,.28-.06.49-.19.64-.12.15-.3.23-.54.23-.18,0-.36-.07-.52-.2s-.38-.33-.66-.59c-.53-.5-1.07-.92-1.63-1.26-.56-.34-1.17-.6-1.81-.78-.64-.18-1.35-.27-2.11-.27-.38,0-.75.06-1.11.17-.36.11-.66.27-.89.46-.23.2-.34.44-.34.73,0,.41.19.7.56.88s.82.27,1.35.27c.7,0,1.22-.08,1.57-.25.35-.16.59-.41.73-.73.14-.32.21-.73.21-1.21,0-.28-.01-.64-.04-1.08-.03-.45-.05-.94-.08-1.49s-.05-1.11-.08-1.69-.04-1.14-.04-1.66v-3.9c0-.22-.02-.39-.05-.49-.03-.1-.08-.18-.14-.24-.06-.05-.15-.1-.27-.14-.2-.07-.42-.12-.66-.16-.24-.04-.49-.07-.74-.1l-.04-.35c.22-.14.49-.28.8-.4.31-.12.59-.19.84-.19.37,0,.72.06,1.07.18.35.12.63.26.86.43.22.17.33.34.33.51,0,.14-.02.27-.05.38-.03.11-.08.24-.13.38s-.1.35-.14.61c-.05.24-.1.54-.14.91-.04.37-.07.77-.09,1.22s-.03.9-.03,1.36c0,1.01.03,1.95.1,2.81.07.86.13,1.63.21,2.31.07.68.11,1.25.11,1.69,0,.56-.12,1.05-.37,1.47-.25.41-.64.73-1.17.95-.53.22-1.22.32-2.08.32Z"/><path class="cls-2" d="M109.04,26.51c-1.35,0-2.46-.15-3.34-.46-.87-.31-1.53-.74-1.98-1.29s-.71-1.21-.78-1.97c-.07-.76,0-1.59.23-2.5l.45-.02c.03.67.11,1.27.24,1.81.13.54.37,1,.72,1.39s.84.68,1.49.89c.64.2,1.48.31,2.52.31s1.95-.07,2.65-.21,1.26-.27,1.67-.4c.41-.13.71-.2.9-.2.21,0,.44.04.68.11s.45.18.62.33c.17.15.26.34.26.56,0,.26-.07.46-.2.6-.13.14-.39.27-.77.4-.5.17-1.21.32-2.12.45-.91.13-1.99.2-3.24.2ZM106.05,16.7c.43-.3.9-.63,1.39-.98.49-.35.9-.65,1.21-.89.18-.14.16-.22-.08-.22-.72-.01-1.38-.07-1.97-.16s-1.12-.29-1.58-.58-.88-.76-1.23-1.39l.26-.26c.42.28.81.49,1.17.63.36.14.74.24,1.13.3.39.05.85.08,1.38.08.62,0,1.13-.02,1.53-.07.4-.05.73-.1.99-.17.26-.07.49-.12.69-.17.2-.05.41-.07.63-.07.21,0,.44.03.69.09.25.06.49.14.71.25.22.11.41.23.55.36s.22.29.22.44c0,.42-.29.69-.89.81-.29.05-.61.11-.96.18-.35.07-.73.17-1.15.31-.37.1-.8.25-1.29.44-.49.19-1.01.41-1.56.65-.54.24-1.09.49-1.62.74l-.22-.33Z"/><path class="cls-2" d="M124.6,16.15c-.42,0-.79-.03-1.1-.09-.31-.06-.6-.17-.85-.34-.25-.17-.49-.42-.71-.75-.22-.33-.45-.76-.69-1.3l.31-.22c.35.33.69.59,1.01.78.32.19.66.33,1,.41s.73.13,1.15.13c.68,0,1.39-.07,2.13-.2s1.43-.3,2.09-.49c.66-.2,1.2-.41,1.62-.63.38-.21.67-.37.88-.47.2-.1.36-.16.48-.16s.26.01.42.04c.16.03.32.07.47.12.15.05.28.13.38.24.1.11.15.24.15.41,0,.22-.11.42-.33.6s-.53.34-.94.5c-.29.12-.69.26-1.21.41s-1.12.31-1.79.47c-.68.16-1.4.29-2.17.38-.77.1-1.54.15-2.31.15ZM126.29,26.71c.76-.04,1.49-.13,2.18-.27.69-.14,1.33-.31,1.94-.52,1.05-.34,1.87-.73,2.45-1.17s.99-.91,1.22-1.4c.23-.49.34-.97.34-1.45,0-.51-.12-.96-.34-1.35-.23-.39-.55-.7-.96-.93-.41-.23-.89-.34-1.44-.34s-1.07.11-1.6.33c-.53.22-1.05.51-1.56.87-.51.35-.97.74-1.4,1.15s-.81.82-1.15,1.21c-.11.13-.21.29-.32.47-.1.18-.22.34-.33.48s-.26.21-.43.21c-.18,0-.36-.09-.52-.28-.17-.18-.3-.41-.4-.67-.1-.26-.16-.51-.16-.75,0-.16.04-.29.11-.39.07-.1.18-.31.33-.63.12-.25.25-.62.4-1.11.15-.49.3-1.03.46-1.6.16-.58.3-1.14.43-1.68.13-.54.24-1.01.33-1.39.09-.39.17-.79.25-1.18.07-.39.14-.76.2-1.09.06-.33.09-.6.11-.8.01-.21,0-.36-.06-.45s-.16-.18-.33-.26c-.14-.07-.31-.13-.5-.2-.19-.07-.41-.12-.66-.18l-.02-.35c.25-.09.49-.16.71-.22.22-.05.44-.08.65-.08.39,0,.77.06,1.13.17.36.11.66.25.9.42.24.17.35.34.35.51,0,.16-.04.29-.12.39-.08.11-.17.23-.27.37-.1.14-.18.34-.25.59-.09.29-.19.62-.29,1s-.21.83-.33,1.34c-.1.39-.22.83-.34,1.3-.12.47-.25.95-.38,1.43-.13.48-.25.92-.36,1.31-.11.39-.2.72-.27.96-.03.16-.03.26,0,.29.03.04.11,0,.26-.14.96-.64,1.88-1.16,2.76-1.56.88-.39,1.82-.59,2.82-.59s1.86.18,2.51.55,1.14.85,1.46,1.44c.32.59.48,1.23.48,1.91,0,.75-.19,1.4-.56,1.97-.37.56-.89,1.04-1.54,1.44-.66.39-1.41.7-2.26.93-.85.22-1.75.37-2.7.43-.95.07-1.9.06-2.86-.02l-.06-.45Z"/><path class="cls-2" d="M146.63,26.75c.75-.07,1.47-.17,2.17-.31.7-.15,1.27-.29,1.71-.43,1.17-.38,2.08-.8,2.74-1.26s1.12-.94,1.38-1.45.39-1.01.39-1.53-.12-.99-.35-1.41-.56-.74-.98-.98c-.42-.24-.91-.36-1.48-.36s-1.1.11-1.65.34c-.55.23-1.09.53-1.6.91-.52.37-1,.77-1.44,1.2-.44.43-.82.84-1.15,1.23-.13.17-.25.35-.36.54s-.23.35-.35.49-.29.21-.48.21c-.3,0-.61-.18-.92-.55-.16-.16-.28-.33-.35-.52-.08-.19-.12-.38-.12-.58,0-.17.03-.37.09-.61.06-.24.11-.51.15-.83.05-.34.12-.75.2-1.23.08-.48.16-.95.24-1.42.08-.47.13-.86.16-1.17.05-.34.08-.63.07-.86s0-.46,0-.7.06-.46.18-.68.35-.36.69-.42c.32-.08.7-.17,1.15-.28.45-.1.9-.22,1.35-.35s.79-.25,1.02-.35c.25-.12.26-.31.04-.57-.25-.37-.61-.67-1.09-.91-.48-.24-1.03-.45-1.64-.63l.1-.35c.96,0,1.74.08,2.33.25s1.09.36,1.47.6c.5.3.87.64,1.11,1.02s.36.81.36,1.28c0,.26-.06.47-.19.61-.12.14-.33.22-.6.22-.21,0-.39-.02-.55-.05-.16-.03-.33-.07-.52-.1-.19-.03-.44-.06-.74-.07-.33,0-.68.02-1.06.05s-.73.07-1.03.12c-.31.05-.55.09-.72.13-.17.03-.29.08-.34.15-.06.07-.09.15-.09.25,0,.13.05.31.14.54.09.23.14.47.16.72.01.26,0,.52-.05.78-.05.26-.1.55-.17.88-.08.41-.17.83-.26,1.26-.09.43-.13.84-.12,1.22,0,.21.08.26.26.14.43-.33.9-.65,1.41-.96.51-.31,1.04-.6,1.61-.86.56-.26,1.14-.46,1.74-.61s1.2-.23,1.8-.23c1.02,0,1.87.2,2.54.6.67.4,1.17.91,1.52,1.54.34.62.51,1.28.51,1.98,0,.75-.2,1.4-.6,1.97s-.95,1.05-1.63,1.45c-.69.4-1.48.72-2.36.95-.89.24-1.82.39-2.79.46-.97.07-1.93.08-2.88,0l-.06-.45Z"/></svg>