<?xml version="1.0" encoding="UTF-8"?><svg id="_レイヤー_1" xmlns="http://www.w3.org/2000/svg" viewBox="0 0 122.78 39.71"><defs><style>.cls-1{fill:#9b003f;}.cls-2{fill:#fff;}</style></defs><path class="cls-1" d="M115.47,39.71H7.32c-4.04,0-7.32-3.28-7.32-7.32V7.32C0,3.28,3.28,0,7.32,0h108.15c4.04,0,7.32,3.28,7.32,7.32v25.08c0,4.04-3.28,7.32-7.32,7.32Z"/><path class="cls-2" d="M20.03,14.34c.82.05,1.47.18,1.96.4s.86.45,1.1.73c.24.28.37.55.38.82.02.27-.04.5-.17.7-.13.2-.32.32-.56.37-.24.05-.52-.02-.84-.19-.09-.33-.25-.65-.46-.98-.22-.32-.46-.63-.74-.93-.28-.3-.55-.54-.83-.74l.16-.18ZM21.08,22.37c.13,0,.23-.02.3-.06.07-.04.15-.16.26-.36.09-.13.18-.27.26-.41.08-.15.19-.36.34-.63.14-.28.35-.69.62-1.25.27-.56.64-1.32,1.11-2.29.47-.97,1.06-2.21,1.79-3.72l.34.08c-.16.47-.35,1.01-.56,1.6-.22.59-.44,1.2-.66,1.83-.22.63-.43,1.22-.63,1.8-.2.57-.37,1.07-.51,1.5-.15.43-.25.74-.32.94-.09.3-.17.61-.23.93-.06.32-.09.6-.09.85.01.24.06.47.13.7s.15.47.25.73c.09.26.17.54.23.86.06.32.08.69.07,1.11-.01.47-.15.85-.42,1.12-.26.27-.61.4-1.03.4-.21,0-.4-.08-.57-.25-.17-.17-.28-.42-.34-.76.12-.68.18-1.31.2-1.88.01-.57-.02-1.04-.09-1.41-.07-.38-.18-.62-.33-.72-.13-.11-.28-.18-.44-.22-.17-.04-.35-.07-.56-.08v-.4h.91ZM21.51,10.01c.84.07,1.52.21,2.03.42.51.22.9.47,1.15.76.25.29.39.58.42.87.03.29-.03.53-.16.73-.13.2-.33.33-.58.38s-.54,0-.84-.17c-.12-.33-.3-.67-.53-1.03-.24-.36-.5-.69-.79-1.01-.29-.32-.58-.59-.87-.81l.18-.16ZM25.41,16.03h9.9l1.13-1.5c.28.24.52.44.74.61.22.17.44.36.67.56s.44.4.64.58c-.03.11-.09.18-.18.24-.09.05-.21.08-.36.08h-12.38l-.16-.57ZM35.6,9.87l1.97,1.88c-.11.08-.26.12-.45.13s-.44-.04-.73-.15c-.88.17-1.92.35-3.1.52-1.18.18-2.42.33-3.7.45-1.28.13-2.54.21-3.78.27l-.06-.32c.86-.16,1.74-.34,2.67-.55.92-.21,1.83-.44,2.73-.7.89-.26,1.73-.52,2.5-.78s1.43-.51,1.97-.75ZM26.59,20.46v-.81l1.97.81h7.19v.57h-7.31v6.34c0,.05-.08.13-.24.23s-.36.19-.59.27c-.24.08-.49.12-.75.12h-.28v-7.53ZM27.62,25.77h8.04v.57h-8.04v-.57ZM30.74,11.69l1.92-.26v9.32h-1.92v-9.07ZM34.99,20.46h-.2l.93-1.03,1.98,1.5c-.07.08-.17.16-.31.24-.14.08-.31.14-.52.18v5.97c0,.05-.09.12-.27.22s-.38.17-.62.25-.46.11-.67.11h-.32v-7.43Z"/><path class="cls-2" d="M41.72,13.45h7.68l1.03-1.26c.42.33.78.61,1.07.84.29.23.55.46.77.68-.04.21-.22.32-.53.32h-9.86l-.16-.57ZM41.74,25.53c.57-.04,1.37-.11,2.4-.22,1.03-.11,2.2-.23,3.51-.39,1.3-.15,2.65-.31,4.03-.46l.06.28c-.96.34-2.14.73-3.54,1.18s-3.07.93-5.04,1.47c-.12.25-.3.4-.53.45l-.89-2.31ZM49.98,9.65l1.76,1.76c-.22.18-.6.16-1.13-.06-.75.12-1.62.23-2.6.34-.98.11-2,.19-3.06.26-1.06.07-2.1.11-3.11.14l-.06-.33c.7-.12,1.43-.26,2.19-.42.76-.17,1.52-.34,2.26-.53.74-.19,1.44-.39,2.08-.58.64-.2,1.2-.38,1.66-.55ZM42.02,22.73h7.01l.93-1.17c.41.3.75.56,1.02.78.27.22.52.43.74.64-.05.2-.23.3-.53.3h-9.01l-.16-.55ZM42.43,15.48v-.73l1.84.73h5.17l.81-.93,1.66,1.26c-.05.09-.14.17-.25.23-.11.06-.27.1-.48.13v4.76s-.13.12-.38.25c-.26.13-.6.19-1.02.19h-.3v-5.31h-5.43v5.21c0,.07-.12.16-.37.28-.24.12-.57.18-.98.18h-.28v-6.24ZM43.32,17.91h6.91v.57h-6.91v-.57ZM43.32,20.32h6.91v.57h-6.91v-.57ZM45.91,11.45l1.66-.34v14.24c-.01.07-.15.17-.39.32-.25.14-.58.22-.99.22h-.28v-14.44ZM53.71,9.91l2.53.26c-.03.15-.1.27-.21.37-.11.1-.28.16-.5.19-.01,1.65-.03,3.19-.06,4.62s-.11,2.77-.26,4.02c-.14,1.24-.41,2.39-.81,3.45-.39,1.05-.96,2.02-1.7,2.89-.74.88-1.71,1.67-2.92,2.38l-.26-.32c.94-.78,1.68-1.63,2.23-2.56.55-.93.97-1.94,1.24-3.02s.46-2.26.56-3.52c.1-1.26.15-2.61.15-4.07v-4.69ZM51.58,14.59h6.74v.57h-6.56l-.18-.57ZM57.68,14.59h-.24l1.01-1.05,1.8,1.54c-.07.09-.17.17-.3.23-.13.06-.31.1-.53.13-.03,1.87-.07,3.48-.12,4.83s-.13,2.47-.23,3.37-.23,1.61-.39,2.14-.35.93-.57,1.2c-.29.32-.63.54-1.03.68-.4.14-.82.21-1.26.21.01-.29,0-.54-.04-.76-.04-.22-.12-.39-.24-.52-.13-.13-.33-.25-.6-.37-.27-.11-.57-.21-.9-.29l.02-.3c.21.01.45.03.71.06.26.03.51.05.74.06.23.01.41.02.54.02.17,0,.3-.02.4-.06.09-.04.18-.1.28-.2.21-.21.38-.74.5-1.58.12-.84.22-2.04.29-3.58.07-1.55.12-3.47.16-5.76Z"/><path class="cls-2" d="M62.16,15.48h6.64l1.03-1.42c.25.22.47.42.67.59.2.17.41.35.62.54.22.19.41.37.58.54-.04.21-.21.32-.51.32h-8.87l-.16-.57ZM62.16,19.63h6.68l1.01-1.32c.42.34.78.63,1.07.88.29.24.54.48.75.7-.05.21-.22.32-.51.32h-8.83l-.16-.57ZM62.44,22.95h6.22l1.03-1.4c.24.21.45.4.64.56.19.17.39.35.6.54.21.2.4.38.57.53-.05.21-.23.32-.53.32h-8.38l-.16-.55ZM62.66,12.44h5.85l.99-1.34c.39.36.73.65,1.01.89.28.24.53.47.75.69-.04.21-.22.32-.53.32h-7.9l-.16-.55ZM63.8,16.21c.61.28,1.07.57,1.4.89.33.32.55.62.65.93.11.3.13.58.07.82-.06.24-.18.43-.36.57-.18.14-.38.2-.6.18-.22-.02-.45-.14-.69-.37.01-.5-.06-1.02-.21-1.55-.15-.53-.32-1-.5-1.39l.24-.08ZM65.78,9.67l2.43.22c-.01.12-.07.22-.16.31-.09.09-.25.15-.47.19v5.33h-1.8v-6.04ZM65.78,19.63h1.8v7.92c-.01.05-.15.15-.42.29-.26.14-.62.21-1.07.21h-.32v-8.41ZM68.11,16.03l2.37.71c-.04.12-.12.21-.23.29-.11.07-.28.1-.5.09-.25.4-.57.85-.96,1.35-.39.51-.79.98-1.2,1.41h-.32c.1-.37.21-.78.32-1.23.11-.46.2-.91.3-1.36.09-.45.16-.87.22-1.25ZM71.82,11.06v-.83l1.88.83h5.1v.55h-5.19v15.72c0,.07-.07.15-.2.27-.13.11-.31.21-.52.3-.22.09-.46.13-.74.13h-.32V11.06ZM72.65,17.85h6.26v.55h-6.26v-.55ZM78.05,17.85h-.2l1.01-1.03,1.74,1.52c-.05.09-.14.16-.25.2-.11.04-.27.07-.48.1-.24,1.19-.6,2.36-1.08,3.52-.48,1.16-1.13,2.24-1.95,3.25-.82,1.01-1.86,1.88-3.12,2.62l-.2-.26c.93-.82,1.71-1.76,2.32-2.83.61-1.07,1.1-2.22,1.45-3.44s.61-2.43.75-3.64ZM74.75,17.85c.28,1.4.71,2.63,1.29,3.7s1.3,2,2.14,2.76c.84.77,1.77,1.41,2.79,1.91l-.04.2c-.38.04-.72.19-1.02.46-.3.26-.52.62-.68,1.07-.68-.53-1.29-1.11-1.83-1.76-.53-.65-.99-1.37-1.38-2.18-.39-.81-.71-1.71-.98-2.71s-.47-2.1-.61-3.33l.32-.12ZM77.81,11.06h-.2l.83-.97,1.98,1.44c-.05.08-.15.16-.3.24-.14.08-.32.13-.53.16v2.67c0,.38-.05.72-.16,1.02-.11.3-.34.53-.69.71s-.91.3-1.66.37c-.01-.26-.05-.49-.12-.69-.07-.2-.17-.36-.32-.47-.15-.13-.34-.25-.59-.36s-.61-.19-1.09-.26v-.28c.41.03.75.05,1.04.06.28.01.56.03.82.04.26.01.45.02.57.02.16,0,.27-.03.33-.09s.09-.15.09-.27v-3.34Z"/><path class="cls-2" d="M82.86,17.54h14.89l1.19-1.54c.29.24.55.44.77.62.22.18.46.37.71.58.25.21.47.41.67.59-.05.21-.23.32-.53.32h-17.52l-.18-.57ZM86.62,9.85l2.67.73c-.04.12-.12.22-.24.3-.12.08-.28.12-.49.12-.26.71-.6,1.44-1,2.17-.4.74-.86,1.43-1.37,2.07-.51.64-1.08,1.21-1.7,1.7l-.26-.18c.37-.57.71-1.23,1.02-2s.58-1.57.82-2.42c.24-.85.42-1.68.55-2.5ZM85.95,20.54v-.83l2,.83h9.12v.57h-9.26v6.32c0,.05-.08.13-.24.23-.16.1-.36.18-.59.26s-.49.11-.75.11h-.28v-7.49ZM86.64,13.21h9.56l1.21-1.54c.29.24.55.44.77.62s.46.37.71.57c.25.21.48.41.69.6-.05.21-.24.32-.55.32h-12.38v-.57ZM86.68,25.89h10.47v.57h-10.47v-.57ZM91,9.67l2.67.24c-.01.13-.07.25-.18.34-.11.1-.29.17-.55.21v7.35h-1.94v-8.14ZM96.06,20.54h-.2l.95-1.03,2,1.52c-.07.08-.17.16-.32.24-.15.08-.32.15-.53.2v5.93s-.09.1-.27.19c-.18.08-.39.16-.63.23-.24.07-.47.1-.68.1h-.32v-7.37Z"/></svg>