<?xml version="1.0" encoding="UTF-8"?><svg id="_レイヤー_1" xmlns="http://www.w3.org/2000/svg" viewBox="0 0 173.47 39.71"><defs><style>.cls-1{fill:#9b003f;}.cls-2{fill:#fff;}</style></defs><rect class="cls-1" y="0" width="173.47" height="39.66" rx="7.31" ry="7.31"/><path class="cls-2" d="M39.96,26.32c-.54,0-1.04-.1-1.5-.29-.46-.19-.88-.47-1.24-.83-.37-.36-.7-.79-1.01-1.29l.28-.28c.37.33.8.61,1.3.84s1.09.35,1.76.35c.91,0,1.62-.26,2.13-.78.51-.52.77-1.18.77-1.98,0-.47-.1-.9-.31-1.29-.2-.39-.52-.7-.95-.95-.43-.24-.99-.37-1.69-.37-.58,0-1.18.1-1.8.31-.63.2-1.24.47-1.84.79-.61.32-1.18.65-1.74,1-.37.24-.76.52-1.17.86s-.81.68-1.18,1.04c-.37.36-.7.68-.99.99-.34.33-.6.58-.77.76s-.34.27-.51.27c-.16,0-.3-.04-.42-.11s-.25-.17-.36-.29c-.16-.17-.28-.35-.35-.53-.07-.18-.11-.38-.11-.57,0-.32.05-.53.14-.63.09-.11.26-.15.51-.14.26.03.48.02.64-.03.16-.05.34-.12.52-.23.24-.13.57-.35.99-.65.43-.3.89-.62,1.4-.97.51-.34,1-.64,1.49-.89.92-.49,1.88-.9,2.86-1.25s2.05-.52,3.18-.52c.82,0,1.54.15,2.17.46s1.13.75,1.49,1.32c.36.57.54,1.26.54,2.06,0,.68-.17,1.32-.5,1.89s-.82,1.05-1.45,1.4c-.63.36-1.39.53-2.27.53ZM31.46,17.51c-.37,0-.72-.06-1.06-.17-.34-.11-.64-.34-.92-.67-.28-.34-.53-.83-.75-1.49l.3-.22c.33.3.61.54.83.7.22.16.45.27.68.33s.5.08.8.08c.29-.01.62-.05.98-.12.36-.07.73-.15,1.11-.26.38-.11.74-.22,1.07-.34.54-.18.98-.37,1.32-.55.34-.18.62-.34.83-.47s.38-.2.49-.2c.07,0,.17,0,.32,0,.14,0,.29.04.44.09.15.05.28.13.39.22s.16.24.18.43c0,.34-.24.64-.71.89-.25.13-.55.26-.92.39-.36.13-.74.26-1.13.39-.39.13-.75.25-1.09.36-.21.05-.51.13-.89.23-.38.1-.78.18-1.2.26s-.77.11-1.07.11ZM33.76,27.41c-.2,0-.35-.07-.45-.21-.11-.14-.21-.31-.31-.51s-.25-.4-.46-.6c-.18-.18-.41-.38-.68-.59-.27-.21-.54-.42-.82-.62-.28-.2-.53-.38-.77-.52l.3-.39c.26.12.54.25.84.38.3.14.59.27.87.38s.53.22.74.3c.21.07.36.06.43,0s.12-.2.12-.38v-5.39c0-.47,0-1.04,0-1.69,0-.65.01-1.3.01-1.95v-1.78c0-.53,0-.92-.02-1.15,0-.26-.03-.44-.1-.52-.07-.09-.18-.15-.34-.21-.18-.08-.38-.13-.6-.15-.22-.02-.47-.04-.76-.05l-.04-.34c.25-.17.51-.3.77-.39.26-.09.55-.14.87-.14s.65.07,1,.2.65.29.92.47c.26.18.39.36.39.53,0,.25-.06.48-.18.68-.12.2-.21.46-.28.78-.05.26-.11.61-.16,1.05-.05.43-.1.92-.15,1.45-.05.53-.08,1.08-.11,1.64-.03.56-.04,1.1-.04,1.63,0,1.09.02,1.98.06,2.67.04.69.08,1.25.13,1.67.05.42.09.76.13,1.01s.06.49.06.71c0,.32-.07.63-.2.95-.13.32-.3.58-.51.79-.21.21-.43.32-.67.32ZM44.73,17.27c-.16.03-.3,0-.43-.1-.13-.09-.27-.18-.41-.28-.14-.09-.32-.12-.51-.08-.2.01-.47.08-.8.2s-.61.22-.84.3l-.18-.3c.13-.08.3-.19.5-.33.2-.14.4-.28.59-.42s.33-.26.42-.34c.12-.13.19-.25.21-.37.02-.11-.02-.25-.13-.4-.24-.34-.55-.61-.93-.79-.38-.18-.8-.31-1.25-.38-.45-.07-.9-.09-1.33-.06l-.04-.41c.45-.13.89-.22,1.34-.28.45-.05.91-.04,1.4.04.59.08,1.13.27,1.61.58.48.31.86.67,1.14,1.1.28.42.43.86.44,1.3.01.26-.05.49-.18.69s-.34.3-.63.32Z"/><path class="cls-2" d="M49.04,10.99v-.85l1.87.85h4.07v.57h-4.14v15.72c0,.07-.07.16-.21.28-.14.12-.32.22-.54.3-.22.08-.47.12-.75.12h-.3V10.99ZM50.02,13.44h4.99v.57h-4.99v-.57ZM50.02,15.95h4.99v.57h-4.99v-.57ZM53.26,19.32v-.77l1.88.77h4.6v.57h-4.7v5.15c0,.05-.08.13-.23.22-.15.09-.34.17-.57.24-.23.07-.47.1-.72.1h-.26v-6.27ZM54.4,10.99h-.2l.85-.91,1.82,1.36c-.05.07-.14.14-.28.22-.13.08-.28.13-.45.16v5.41s-.08.1-.25.19c-.16.09-.36.16-.58.22-.22.06-.43.09-.63.09h-.28v-6.73ZM54.28,23.52h5.64v.57h-5.64v-.57ZM58.09,10.99v-.77l1.84.77h4.28v.57h-4.38v5.43c0,.05-.07.13-.22.22-.14.09-.33.17-.56.25-.23.07-.47.11-.72.11h-.24v-6.57ZM59.12,19.32h-.2l.87-.93,1.83,1.4c-.05.07-.14.13-.26.21s-.28.12-.47.15v4.58s-.08.11-.24.2c-.16.09-.36.17-.59.24-.23.07-.44.1-.64.1h-.3v-5.94ZM59.12,13.44h5.09v.57h-5.09v-.57ZM59.12,15.95h5.09v.57h-5.09v-.57ZM63.52,10.99h-.2l.89-1.05,1.97,1.54c-.07.08-.17.16-.32.24-.14.08-.32.13-.51.16v13.81c0,.42-.06.79-.17,1.1-.11.31-.34.55-.69.73-.35.18-.89.3-1.61.37-.03-.26-.07-.5-.13-.7s-.16-.37-.29-.48c-.13-.13-.32-.25-.55-.35-.24-.1-.57-.18-1.01-.25v-.28c.37.03.68.05.94.06.26.01.5.03.74.04.24.01.4.02.49.02.17,0,.29-.04.35-.11.06-.07.09-.17.09-.31v-14.54Z"/><path class="cls-2" d="M74.43,25.73c-.39-.17-.8-.41-1.2-.72-.41-.31-.79-.7-1.14-1.17-.36-.47-.65-1.04-.89-1.69-.24-.65-.38-1.4-.41-2.26-.04-.75-.04-1.5.01-2.25.05-.75.07-1.41.07-1.99,0-.37-.05-.7-.14-.99-.09-.29-.25-.57-.47-.84-.22-.27-.53-.56-.93-.86l.14-.26c.25.01.51.04.8.07.28.03.55.1.8.21.29.13.59.32.9.56.31.24.57.52.78.82s.32.6.32.89c0,.24-.05.49-.14.76-.09.27-.19.58-.3.92-.11.34-.22.73-.31,1.17-.09.44-.14.95-.14,1.53,0,.68.1,1.27.29,1.76.19.49.42.88.69,1.16.27.29.52.49.76.61.14.07.28.09.41.07.13-.02.23-.1.32-.23.33-.46.66-1.01,1-1.65.34-.64.66-1.27.98-1.9l.45.2c-.14.47-.29.96-.45,1.46-.15.5-.28.95-.38,1.36s-.17.72-.2.95c-.04.34-.03.6.01.76.05.16.09.3.14.4.05.11.07.25.07.43,0,.38-.17.65-.51.8-.34.15-.78.12-1.3-.09ZM84.93,22.42c-.18,0-.36-.06-.51-.18-.16-.12-.27-.3-.34-.55-.07-.29-.12-.63-.17-1.02-.05-.39-.12-.81-.23-1.27-.11-.46-.28-.95-.51-1.46-.29-.67-.7-1.26-1.22-1.76-.52-.5-1.15-.91-1.88-1.22l.14-.39c.99.11,1.79.32,2.41.65s1.18.75,1.7,1.26c.39.38.72.82.98,1.31.26.49.45,1,.57,1.53.13.53.19,1.03.19,1.52,0,.51-.09.9-.26,1.17-.18.27-.47.4-.86.4Z"/><path class="cls-2" d="M98.81,10.95c-.46.74-1.04,1.47-1.74,2.21-.7.74-1.47,1.45-2.34,2.13-.86.68-1.77,1.31-2.72,1.88-.95.57-1.92,1.06-2.89,1.47l-.12-.28c.84-.49,1.69-1.09,2.55-1.8s1.66-1.47,2.41-2.29c.75-.82,1.4-1.63,1.94-2.45.55-.82.94-1.57,1.17-2.27l2.98.73c-.04.12-.13.21-.27.27-.14.06-.34.1-.62.13.43.62.96,1.18,1.59,1.7.63.51,1.31.99,2.05,1.43.74.44,1.52.83,2.33,1.17.81.34,1.62.65,2.44.93l-.02.3c-.28.07-.52.19-.74.37-.22.18-.39.38-.52.61-.13.23-.22.46-.28.68-1.04-.5-2.03-1.1-2.96-1.8-.93-.7-1.77-1.48-2.5-2.34s-1.31-1.79-1.74-2.79ZM92.44,20.62v-.87l2.09.87h8.98v.57h-9.12v6.16c0,.05-.08.13-.25.23s-.37.19-.62.27-.51.12-.79.12h-.3v-7.34ZM93.15,25.83h10.36v.57h-10.36v-.57ZM93.64,17.05h6.14l1.16-1.46c.28.22.52.42.74.6.22.18.44.37.68.56.24.2.45.38.65.55-.05.21-.23.32-.53.32h-8.68l-.16-.57ZM102.19,20.62h-.2l.97-1.07,2.05,1.56c-.07.08-.17.16-.32.24-.14.08-.32.14-.53.2v5.74s-.09.1-.28.18c-.18.08-.4.15-.66.22-.26.07-.49.1-.7.1h-.34v-7.16Z"/><path class="cls-2" d="M111.24,25.3c-.18.01-.35-.07-.5-.24-.15-.17-.23-.4-.23-.69,0-.24.04-.45.12-.64.08-.19.22-.39.41-.6.24-.25.55-.61.94-1.07.39-.46.81-.98,1.26-1.55.45-.57.89-1.16,1.32-1.78.43-.61.81-1.19,1.15-1.75l.04,2.11c-.25.41-.53.84-.83,1.3-.3.46-.61.92-.92,1.38-.31.46-.62.92-.93,1.37s-.61.88-.9,1.29c-.14.22-.29.42-.42.59-.14.17-.31.26-.52.26ZM112.8,18.16c-.24,0-.49-.09-.75-.26-.26-.17-.49-.38-.7-.63-.2-.25-.35-.5-.42-.75-.05-.16-.08-.32-.07-.47,0-.16.01-.31.01-.45l.3-.12c.17.26.33.47.48.61.15.14.33.22.54.22.17,0,.44-.07.81-.2.37-.13.77-.29,1.2-.47.43-.18.84-.36,1.22-.53.38-.17.66-.31.83-.41.14-.08.27-.12.38-.12s.23.04.37.12c.2.09.38.23.56.4.18.18.26.33.26.46,0,.12-.04.24-.13.36-.09.12-.2.25-.34.39-.14.16-.31.34-.49.55s-.37.43-.55.65c-.18.22-.35.43-.49.63l.06-1.16c.07-.11.13-.24.19-.4.06-.16.1-.32.13-.46-.26.12-.55.26-.85.42-.3.16-.59.33-.87.49-.28.16-.51.31-.71.42-.2.14-.36.3-.48.46-.13.16-.29.25-.49.25ZM115.49,27.41c-.29,0-.5-.07-.62-.22s-.21-.35-.27-.61c-.05-.25-.11-.49-.16-.72-.05-.23-.13-.48-.24-.74-.07-.2-.19-.45-.36-.75-.18-.3-.37-.61-.57-.93-.2-.32-.41-.6-.6-.85l.24-.41c.17.2.37.42.6.68s.45.5.67.73.38.4.48.52c.24.24.36.18.38-.18v-1.46c0-.61.01-1.27.03-1.98.02-.72.05-1.41.09-2.08.05-.64.11-1.28.17-1.91s.12-1.23.19-1.79.12-1.06.16-1.49c.04-.43.06-.78.06-1.03,0-.21-.03-.36-.1-.45-.07-.09-.19-.18-.37-.26-.13-.07-.3-.13-.49-.19s-.42-.12-.68-.19v-.36c.22-.09.45-.17.68-.23.23-.06.48-.09.74-.09.34,0,.68.09,1.01.28.33.18.61.41.83.67.22.26.34.51.34.73,0,.18-.05.37-.15.56-.1.19-.2.46-.31.82-.08.22-.16.53-.26.91-.09.38-.19.81-.29,1.28s-.18.95-.26,1.44c-.07.49-.12.93-.15,1.32-.04.63-.05,1.29-.03,1.98s.05,1.34.1,1.94c.05.61.08,1.11.11,1.52.04.33.07.61.1.84s.04.47.04.72c0,.32-.05.62-.14.92-.09.3-.22.54-.38.74s-.36.3-.58.3ZM119.23,26.52c1.26-.5,2.29-1.03,3.07-1.6.78-.57,1.39-1.15,1.81-1.75.42-.6.71-1.19.87-1.78.16-.59.24-1.14.24-1.67,0-.66-.14-1.24-.43-1.75-.28-.51-.68-.91-1.2-1.2-.52-.3-1.14-.44-1.85-.44s-1.41.13-2.13.37c-.72.25-1.41.59-2.07,1.01-.66.42-1.24.88-1.74,1.36v-1.26c.71-.45,1.41-.84,2.09-1.17s1.38-.6,2.07-.78c.7-.18,1.41-.28,2.13-.28.67,0,1.31.11,1.93.33.61.22,1.16.53,1.64.94s.86.9,1.14,1.47c.28.57.42,1.21.42,1.92s-.13,1.4-.4,2.07c-.27.67-.71,1.3-1.31,1.88s-1.41,1.11-2.41,1.57c-1,.46-2.23.84-3.69,1.14l-.18-.39Z"/><path class="cls-2" d="M131.96,20.33c-.3,0-.62-.15-.96-.46-.34-.31-.59-.65-.76-1.04-.07-.16-.11-.35-.12-.56-.01-.22-.01-.44,0-.68l.28-.12c.18.26.39.49.62.68.23.19.46.29.7.29.12,0,.35-.04.7-.11.35-.07.75-.16,1.2-.27.45-.11.91-.22,1.36-.34.45-.12.84-.22,1.17-.3.36-.11.81-.23,1.37-.36.56-.14,1.16-.28,1.82-.42.65-.14,1.29-.29,1.91-.44.63-.15,1.17-.27,1.65-.37.68-.16,1.27-.29,1.76-.38s.88-.17,1.17-.22c.3-.05.51-.07.64-.07.3,0,.61.05.91.14.3.09.55.23.74.41s.29.41.29.69-.09.44-.28.54c-.18.1-.44.15-.77.15-.29,0-.57-.02-.84-.05-.27-.03-.58-.06-.93-.07-.36-.01-.8,0-1.34.04-.58.05-1.23.14-1.96.27s-1.47.27-2.23.44c-.76.17-1.47.35-2.15.52-.68.18-1.25.35-1.73.52-.87.29-1.58.55-2.12.79-.55.24-.98.42-1.3.56-.32.14-.59.21-.8.21ZM140.42,26.74c-1.04,0-1.92-.08-2.65-.25-.73-.16-1.29-.47-1.68-.91-.39-.44-.6-1.07-.64-1.88-.01-.42-.02-.92-.03-1.5,0-.58-.01-1.2-.02-1.85,0-.66-.01-1.33-.01-2.01,0-.75,0-1.47-.02-2.15-.01-.68-.04-1.22-.08-1.62-.01-.29-.05-.49-.12-.59-.07-.11-.18-.19-.34-.26-.16-.08-.34-.13-.54-.17-.2-.03-.41-.06-.6-.09l-.04-.36c.22-.11.47-.21.74-.31s.54-.15.82-.15c.25,0,.51.05.79.16.28.11.54.23.78.38.24.15.44.31.58.48.14.17.22.34.22.49,0,.13-.03.24-.09.34-.06.09-.13.21-.2.35-.07.14-.13.34-.17.6-.04.25-.07.6-.09,1.04-.02.44-.04.92-.07,1.45-.03.61-.05,1.23-.07,1.87s-.03,1.24-.05,1.8-.01.99,0,1.32c.01.46.06.84.13,1.12.07.29.2.51.39.65.19.14.47.25.83.31.36.06.84.09,1.43.09.82,0,1.54-.05,2.18-.15.64-.1,1.17-.19,1.6-.29.43-.09.73-.14.9-.14.26,0,.51.04.74.11s.42.18.56.33c.14.14.22.33.22.55s-.08.41-.25.55-.43.26-.8.36c-.41.09-.99.17-1.76.23-.76.06-1.63.09-2.61.09ZM141.57,22.63c-.2,0-.36-.04-.48-.13-.13-.09-.24-.25-.35-.48-.14-.33-.41-.61-.79-.84-.38-.23-.78-.45-1.18-.66l.12-.36c.47.13.93.25,1.38.35.45.1.76.15.95.15s.33-.03.44-.09c.11-.06.2-.22.27-.48.07-.21.12-.52.16-.94.04-.41.07-.85.1-1.3s.04-.85.04-1.17c.01-.37.02-.81.03-1.32,0-.51.01-1.02.01-1.53s-.01-.92-.04-1.25c-.01-.3-.2-.51-.57-.61-.17-.05-.35-.09-.53-.12s-.39-.05-.63-.08l-.02-.34c.25-.13.5-.25.75-.36s.48-.16.69-.16c.38,0,.76.09,1.13.26.37.17.68.38.93.61.25.24.38.46.38.67,0,.12-.04.23-.11.34-.07.11-.14.23-.21.38-.07.14-.11.34-.14.57-.04.37-.07.79-.1,1.27-.03.48-.05,1-.08,1.57-.03.45-.06.95-.09,1.52-.03.57-.08,1.11-.13,1.63-.05.52-.13.95-.22,1.29-.11.47-.3.86-.59,1.16-.29.3-.66.45-1.11.45Z"/></svg>