<?xml version="1.0" encoding="UTF-8"?><svg id="_レイヤー_1" xmlns="http://www.w3.org/2000/svg" viewBox="0 0 235.82 19.29"><path d="M7.07,12.86c0-.19-.09-.29-.23-.43l-1.11-1.06-.53.76h-2.38l-1.34-.77v.26c.03.64.03.86.03,1.35,0,1.4-.04,3.46-.1,5.11-.02.27-.02.5-.02.65,0,.18.04.41.37.41.25,0,.65-.09.79-.2.21-.09.21-.3.21-.42l.02-1.46h2.48l.02,1.17c0,.2.04.41.35.41.17,0,.5-.07.73-.15.18-.06.28-.21.28-.4l-.02-.66c-.04-1.6-.06-2.94-.06-4.11l.18-.05c.22-.06.34-.19.34-.41ZM5.25,16.25h-2.47l.02-3.34h2.43l.02,3.34Z"/><path d="M13.17,8.1c.23.32.43.45.67.45.33,0,.62-.37.62-.8,0-.64-.66-1.47-1.79-2.22.25-.78.45-1.86.54-2.84h3.24l-.04.82c-.1,2.75-.28,4.36-.59,5.25-.21.61-.36.73-.96.73-.36,0-.51-.02-2.26-.33l-.13-.02-.15.58.12.04c.78.28.97.35,1.53.58l.2.08c.13.05.19.09.19.53,0,.1,0,.26.09.36.1.11.26.12.38.12.44,0,1-.25,1.48-.65.89-.8,1.32-2.81,1.51-6.96l.02-.56.22-.09c.24-.1.5-.24.5-.5,0-.17-.11-.31-.27-.48l-1.31-1.22-.65.92h-4.25c-1.77,0-2.45-.02-4.38-.1h-.27s.59.97.59.97h.26c.98-.05,1.48-.06,2.39-.06h1.08c-.07.93-.16,1.55-.31,2.18-.72-.33-1.65-.66-2.69-.94l-.14-.04-.12.53.11.05c1.15.47,1.83.86,2.54,1.46-.81,2.39-2,3.85-4.21,5.18l-.11.07.27.53.13-.06c2.37-1.07,3.99-2.64,4.95-4.8.24.25.48.57.99,1.25Z"/><path d="M16.74,17.15c-.13-.06-.13-.08-.13-.18l.04-2.14-.55-.08-.03.13c-.29,1.47-.51,2.12-.78,2.3-.23.16-.85.24-1.83.24s-1.47-.08-1.55-.12c-.01,0-.03-.02-.03-.02-.03-.05-.03-.38-.03-.97,0-.44.03-1.26.06-2.2l.02-.7.39-.14c.2-.09.41-.23.41-.52,0-.37-.38-.46-.51-.49l-1.61-.25-.18-.02.02.18c.04.44.06.66.06,1q0,.22-.1,3.42v.8c0,1.21.65,1.34,3.23,1.34s3.68-.25,3.68-.9c0-.32-.19-.46-.59-.68Z"/><path d="M12.31,10.52l-.11-.05-.25.41.09.08c.75.66,1.19,1.35,1.44,2.24q.27.98.32,1.09c.15.25.34.36.64.36.45,0,.76-.37.76-.9,0-1.29-1.05-2.46-2.89-3.22Z"/><path d="M16.12,12.88l-.1-.06-.37.37.1.1c.84.82,1.31,1.62,1.63,2.75q.29,1.18.34,1.31c.15.3.36.43.68.43.47,0,.78-.37.78-.95,0-1.38-1.06-2.74-3.07-3.95Z"/><path d="M9.27,13.02l-.57-.08v.15c-.13,1.74-.33,2.31-1.06,3.06-.56.54-.7.77-.7,1.13,0,.44.35.8.78.8,1.04,0,1.69-1.27,1.69-3.31,0-.5-.02-.85-.12-1.65v-.11Z"/><path d="M7.11,9.87c0-.15-.06-.27-.22-.4l-1.38-1.18-1.1,1.17H1.3v.8h5.39c.25,0,.41-.15.41-.39Z"/><path d="M7.73,5.2c.22,0,.39-.17.39-.39,0-.15-.07-.27-.22-.4l-1.5-1.24-1.14,1.23h-.64c-1.77-.02-2.37-.03-4.36-.14l-.26-.02.58,1.05h.09c1.27-.07,2.03-.09,3-.09h4.06Z"/><path d="M7.15,2.17c0-.17-.08-.26-.24-.4l-1.38-1.18-1.1,1.17H1.34v.8h5.39c.25,0,.41-.15.41-.39Z"/><path d="M4.43,6.93H1.34v.8h5.39c.25,0,.41-.15.41-.39,0-.17-.08-.26-.24-.4l-1.38-1.18-1.1,1.17Z"/><path d="M21.97,6.97c1.08,0,1.83-1.15,1.83-2.8,0-.05,0-.08,0-.1h13.04l-.1.21c-.28.68-.34.82-.9,1.82l-.06.11.45.35.09-.07c.82-.62.97-.74,1.68-1.32l.04-.03h.85c.49,0,.74-.17.74-.49,0-.21-.1-.35-.31-.55l-1.72-1.74-.74.92h-5.86v-1.5l.39-.14c.2-.1.41-.24.41-.5,0-.14-.05-.46-.51-.49l-1.86-.3.02.43c.02.27.03.49.03.93v1.57h-5.77c-.05-.25-.12-.49-.3-.98l-.04-.11-.59.07.02.68c0,.85-.29,1.48-.91,1.99-.63.51-.79.69-.79,1.16,0,.52.36.88.86.88Z"/><path d="M35.33,16.99c-1.62,0-3.36-.09-4.24-.23v-4.22h6.24c.25,0,.41-.15.41-.39,0-.18-.11-.3-.24-.4l-1.62-1.27-1.26,1.26h-3.52v-3.81h5.56c.24,0,.41-.16.41-.39,0-.17-.11-.29-.22-.4l-1.64-1.29-1.26,1.28h-5.46c-1.91,0-2.58-.02-4.81-.14h-.26s.58,1.03.58,1.03h.09c1.27-.07,2.03-.09,3-.09h2.47v8.52c-1.54-.47-3.03-1.75-3.92-3.41.1-.33.23-.76.52-1.94l.4-.18c.23-.09.46-.22.46-.5,0-.32-.28-.44-.52-.51l-1.77-.41v.17c-.25,3.91-1.47,6.71-3.94,9.09l-.1.1.39.43.1-.08c2.2-1.77,3.32-3.18,4.14-5.29,1.03,1.74,2.27,2.93,3.78,3.62,1.27.61,4.1.98,7.39.98.49,0,1.28-.02,2.21-.06h.11s.02-.11.02-.11c.1-.45.43-.91.94-1.3l.39-.3-.49.04c-1.85.16-2.74.21-4.33.21Z"/><path d="M58.95,3.06c-.73.04-1.27.07-1.61.07-.24,0-.52-.03-.82-.08-.63-.11-1.01-.12-1.45.02l-.06.02-.03.06c-.06.12-.1.25-.12.39v.05s.02.04.02.04c.08.14.16.22.26.26.06.02.18.04.63.06.29.04.51.06.63.07.74.14.85.23.87.25.03.04.12.25.12,1.36,0,.46.03,1,.08,1.61.05.61.08,1.02.09,1.23.05,1.59.08,2.55.08,2.86l.02,1.54-.05.69c0,.08.03.82.06,1.49-.3-.32-.56-.6-.77-.84l-2.7-3c-1.14-1.26-1.92-2.1-2.32-2.5-.39-.4-.83-.88-1.31-1.44l-.34-.41-2.58-2.85c-.28-.35-.58-.66-.9-.93l-.04-.03h-.05c-.14-.01-.24-.01-.31-.01-.09,0-.24.01-.46.04-.53.06-1.39.09-2.55.09h-.15l.02.8.1.03c.14.04.45.09.92.14.44.05.79.17,1.06.36.12.09.2.18.23.29.05.17.12.73.14,2.49l.02,3.21v1.54c.02,1.24.03,2.1.03,2.56,0,.96-.04,1.71-.12,2.22-.07.07-.16.13-.27.17-.21.08-.55.15-1.01.22l-.53.08-.42.19.02.56h.12c.14.03.25.04.32.04h.16c.57-.05,1.23-.07,1.98-.07,1.06,0,1.98.03,2.71.09.26.03.39.04.66-.04l.1-.03.02-.62-.07-.04s-.07-.05-.11-.09l-.03-.02h-.04c-.7-.14-1.41-.25-2.11-.31l-.29-.07c-.02-.26-.04-.53-.05-.8l-.08-3.74c-.07-2.57-.11-4.62-.11-6.07v-.13c.11.08.19.15.25.21.11.11.38.42.81.92.68.8,1.21,1.39,1.56,1.77,1.31,1.4,2.39,2.58,3.2,3.51l.25.25c.11.11.36.38.73.78l.97,1.12c.13.15.37.41.74.79,1.55,1.59,2.46,2.55,2.72,2.84l.05.05.73-.06v-.13c.03-.83.05-1.37.05-1.62,0-1.13-.02-2.49-.07-4.05l-.07-2.27v-.49s-.08-1.64-.08-1.64l-.12-3.57c0-.17.08-.33.24-.5,0,0,.07-.06.42-.17.17-.05.36-.08.56-.09.23-.01.41-.05.55-.11l.08-.04.04-.59h-.34c-.16,0-.44.01-.87.05Z"/><path d="M73.04,3.39c-.72-.34-1.69-.52-2.89-.52-.67,0-1.27.02-1.77.07l-1.92.11c-.53.03-.88.04-1.04.04-.11,0-.32,0-.63-.01-.59-.03-1.02-.05-1.27-.05-.04,0-.14.01-.28.04h-.07s-.03.07-.03.07c-.06.11-.09.2-.09.28,0,.07.02.16.07.26l.03.07h.08c1.35.2,1.84.43,2.02.59.07.06.2.27.2.92v.19c0,1.4.02,2.79.05,4.14.08,2.94.11,4.8.11,5.68,0,.28,0,.49-.01.65,0,.23-.01.38-.01.45,0,.36-.05.49-.08.53,0,0-.06.07-.36.15l-1.59.31.02.56h.14c.36-.02.58-.03.65-.03l1.2.03,1.98-.08c.36,0,.87.03,1.51.1.34.04.55.06.65.06.18,0,.29-.02.37-.08.08-.05.13-.15.17-.3l.02-.06-.03-.05c-.06-.1-.14-.17-.23-.21-.02,0-.07-.03-.69-.18-.77-.17-1.27-.29-1.5-.35-.04-.17-.06-.41-.06-.71,0-.15,0-.32.03-.52.02-.21.03-.35.03-.44l-.15-5.16v-.65c-.05-.37-.07-1.33-.07-2.85,0-.42,0-.73.02-.93v-.24s-.02-1.26-.02-1.26v-.08c.13-.06.5-.14,1.53-.14.29,0,.7.06,1.24.19.52.12.91.27,1.16.45.45.32.81.75,1.08,1.28.27.53.41,1.08.41,1.64s-.13,1.13-.39,1.65c-.26.51-.64.91-1.15,1.19-.51.28-1.05.42-1.62.42-.37,0-.69-.04-.92-.13-.13-.05-.26-.08-.38-.08h-.06c-.08.05-.15.11-.19.19l-.03.05.02.06c.04.14.14.27.32.39.35.23.67.39.94.48.28.08.62.12,1.02.12,1.44,0,2.6-.45,3.45-1.33.85-.88,1.28-1.94,1.28-3.16,0-.73-.2-1.47-.59-2.2-.39-.74-.96-1.29-1.69-1.64Z"/><path d="M93.79,5.89c-.63-.79-1.26-1.39-1.89-1.77-.63-.38-1.33-.68-2.1-.9-.77-.21-1.56-.32-2.36-.32-1.19,0-2.18.13-2.96.38-1.1.37-1.98.79-2.61,1.27-.63.48-1.17,1.08-1.62,1.8-.44.71-.76,1.38-.95,1.98-.19.61-.28,1.31-.28,2.09,0,.95.15,1.84.44,2.64.29.8.72,1.55,1.29,2.21.56.66,1.12,1.17,1.65,1.52.53.34,1.21.63,2,.87.79.24,1.71.36,2.72.36s1.94-.14,2.8-.41c.86-.27,1.6-.63,2.18-1.08.87-.65,1.49-1.24,1.85-1.75.46-.65.79-1.32.99-1.99.2-.67.29-1.51.29-2.52,0-.89-.15-1.76-.44-2.59-.22-.64-.56-1.24-1-1.79ZM87.13,3.61c.82,0,1.6.16,2.33.48.72.32,1.35.77,1.86,1.35.51.58.89,1.25,1.11,1.99.3.98.45,1.99.45,3,0,.81-.09,1.63-.27,2.43-.18.8-.41,1.47-.7,1.98-.29.51-.69.96-1.2,1.36-.51.4-1.1.69-1.76.86-1.38.36-2.68.36-3.79-.08-.58-.23-1.1-.57-1.57-1-.47-.44-.86-.94-1.18-1.51-.32-.57-.58-1.25-.76-2.02-.19-.78-.28-1.48-.28-2.09s.09-1.26.28-2.02c.18-.76.46-1.46.81-2.09.35-.63.74-1.11,1.14-1.45.41-.34.94-.62,1.57-.84.64-.22,1.3-.33,1.97-.33Z"/><path d="M102.34,3.92c.18.57.3.82.73.82.49,0,.86-.42.86-.97,0-.75-.55-1.48-1.48-1.94-.51-.26-.89-.38-1.66-.57l-.11-.03-.24.48.13.06c.83.4,1.42,1.12,1.76,2.14Z"/><path d="M100.85,8.34l.08.32c.09.33.1.38.17.47.15.19.35.3.57.3.44,0,.8-.41.8-.91,0-.71-.42-1.38-1.17-1.89-.42-.29-.81-.46-1.67-.72l-.14-.04-.13.45.09.06c.69.45,1.08,1,1.4,1.95Z"/><path d="M116.3,8.27l-1.33,1.41h-3.71v-3.81h5.62c.24,0,.41-.16.41-.39,0-.17-.11-.29-.22-.4l-1.64-1.29-1.26,1.28h-2.9v-3.03l.36-.15c.35-.13.42-.35.42-.51,0-.41-.39-.47-.51-.49l-1.8-.27v.18c.02.24.03.41.03.62,0,.15,0,.33.02.57v3.09h-4.01l.61-1.6-.54-.23-4.71,10-1.73-.08-.04.62.13.02c.87.12,1.02.19,1.23.32.27.2.44.71.44,1.37,0,.24-.02.61-.04.94q-.08,1.22-.08,1.33c0,.68.34,1.09.9,1.09s.95-.44.95-1.11c0-.23-.04-.46-.1-.83-.32-1.72-.37-2.03-.37-2.61,0-.25.03-.42.09-.57l1.22-3.24h5.71c-.27,1.12-1.2,3.62-2.24,6l-1.09.04c-.63.04-.76.04-1.72.04h-.23l.9,1.91c.1.23.28.37.46.37.23,0,.36-.16.46-.33l.17-.34c2.88-.4,7.14-1.07,8.8-1.39l.55-.1v.03q.55,1.43.62,1.56c.19.27.42.39.71.39.47,0,.84-.42.84-.97,0-1.03-.68-2.15-2.03-3.32-.96-.83-1.7-1.28-3.02-1.86l-.12-.05-.26.43.11.08c1.33.95,2.05,1.73,2.79,3.03l-.47.03c-2.07.18-5.32.39-6.51.43h-.04c.87-1.52.89-1.59.89-1.6.45-.89.89-1.79,1.32-2.66l.85-1.71h6.62c.27,0,.43-.15.43-.39,0-.16-.09-.26-.24-.4l-1.71-1.42ZM109.78,5.88v3.81h-5.76l1.45-3.81h4.31Z"/><path d="M130.72,10.16c-.89-2.05-1.38-4.62-1.45-7.66l.2-.1c.36-.15.44-.38.44-.54,0-.34-.29-.42-.57-.47l-1.77-.27.02.18c.08.91.1,1.56.1,2.66,0,4.37-.59,7.45-1.81,9.41-1.17,1.87-2.94,3.26-6.12,4.81l-.13.06.3.64.13-.05c6.27-2.46,8.47-5.18,8.93-11.55.84,5.15,3.08,8.21,7.87,10.95l.12.07.07-.11c.38-.58.72-.86,1.38-1.14l.32-.14-.32-.13c-3.57-1.42-6.53-3.96-7.7-6.61Z"/><path d="M157.09,15.62l-1.33,1.41h-.58l-.04-4.66-.04-2.01.27-.08c.24-.09.4-.2.4-.48,0-.2-.05-.28-.29-.52l-1.38-1.29-.69,1h-4.8l.8-5.64h8.21c.25,0,.41-.15.41-.39,0-.17-.08-.26-.24-.4l-1.71-1.42-1.33,1.41h-8.73c-1.93,0-2.6-.02-4.81-.14h-.26s.58,1.03.58,1.03h.09c1.27-.07,2.03-.09,3-.09h3.23l-.8,5.64h-.56c-1.76,0-2.47-.02-4.38-.1h-.27s.59.97.59.97h.31c.95-.05,1.42-.06,2.34-.06h1.85l-1.03,7.23h-.76c-1.93,0-2.6-.02-4.81-.14h-.26s.58,1.03.58,1.03h.09c1.27-.07,2.03-.09,3-.09h14.84c.25,0,.41-.15.41-.39,0-.17-.08-.26-.24-.4l-1.71-1.42ZM153.58,17.04h-6.09l1.03-7.23h5.02l.04,7.23Z"/><path d="M172.16,6.76c1.18-1.01,2.18-2.07,2.98-3.16l.76-.12c.24-.06.42-.27.42-.49s-.15-.37-.28-.46l-1.51-1.25-.77.99h-5.01s.05-.09.09-.15l.23-.38.46-.09c.27-.08.43-.26.43-.49,0-.31-.28-.43-.38-.46l-1.65-.7-.05.15c-.93,3.1-3.19,6.23-6.19,8.57l-.1.08.32.47.12-.07c2.17-1.33,4.41-3.45,5.75-5.42.78,1.23,1.46,2.04,2.41,2.9-2.37,1.87-4.89,3.12-8.63,4.32l-.14.04.19.59.13-.03c4.24-1.03,6.91-2.18,9.48-4.1,1.71,1.17,3.61,1.98,7.45,3.17l.1.03.06-.09c.42-.66.8-.99,1.59-1.35l.47-.22-.51-.06c-2.86-.31-6.33-1.27-8.2-2.25ZM173.53,3.08c-.7,1.01-1.58,2.02-2.56,2.95-1.06-.74-2.06-1.77-2.79-2.86l.06-.09h5.29Z"/><path d="M172.12,12.36h6.41c.23,0,.39-.16.39-.39,0-.17-.11-.29-.22-.4l-1.62-1.3-1.26,1.28h-4.22l.02-1.14.34-.13c.33-.13.4-.35.4-.5,0-.18-.09-.4-.49-.47l-1.78-.25v.18c.05.57.05.73.05,1.95v.37h-2.39c-1.93,0-2.61-.02-4.83-.14h-.26s.58,1.03.58,1.03h.09c1.25-.07,2.04-.09,3.02-.09h2.54c-1.82,2.26-4.85,4.62-7.46,5.8l-.15.07.31.51.11-.04c3.29-1.26,6.2-3.2,8.45-5.63l-.04,3.19-.02,2.08v.39c0,.27,0,.53.35.53.23,0,.8-.1.98-.21.15-.09.21-.2.21-.39l-.06-4.51v-1.33c1.58,2.34,4.2,4.28,7.3,5.38l.11.04.06-.1c.35-.54.67-.82,1.32-1.12l.4-.19-.44-.08c-3.78-.71-6.55-2.19-8.21-4.39Z"/><path d="M195.45,4.54c-.1,0-.23.04-.36.12-.49.29-.56.32-.85.42l-.09.04c-1.26.26-1.94.37-2.32.37-.14,0-.21,0-.3-.03l.03-.06c.08-.14.14-.27.17-.33v-.02c.05-.05.09-.12.13-.19.07-.1.15-.23.2-.28.13-.17.17-.24.17-.37,0-.33-.33-.67-1.06-1.13-.49-.3-.84-.41-1.29-.41-.41,0-.62.11-.62.33,0,.18.17.25.23.27.41.19.57.46.57.96,0,1.38-2.59,5.03-4.7,6.62-.37.26-.45.34-.45.51,0,.19.13.31.33.31.24,0,.99-.44,1.55-.85,1.62-1.16,3.08-2.72,4.34-4.65.32.22.5.29.76.29.18,0,.36-.02,1.06-.15,1.14-.22,1.3-.24,1.48-.24.08,0,.21.02.21.19,0,.13-.1.42-.3.85-.68,1.53-1.79,3.18-3.04,4.53-2,2.14-4.26,3.75-6.91,4.93-.3.13-.48.23-.48.46,0,.19.15.33.35.33.18,0,.7-.16,1.27-.38,2.29-.9,4.29-2.09,5.93-3.55,1.93-1.72,3.11-3.32,4.88-6.58.15-.18.17-.19.36-.29.4-.2.53-.28.53-.5,0-.38-1.42-1.48-1.79-1.48Z"/><path d="M206.5,5.11c.63,0,1.46-.1,2.56-.29,1.78-.3,1.92-.33,2.61-.41.89-.1,1.28-.18,1.28-.53,0-.29-.22-.48-.55-.66h0c-.59-.31-.83-.41-1.07-.41-.17,0-.27.03-.57.15-1.09.43-3.2.81-4.5.81-.7,0-1.01-.11-1.28-.43-.08-.12-.18-.15-.24-.15-.12,0-.23.11-.23.23,0,.22.2.65.4.95.38.53.83.74,1.6.74Z"/><path d="M212.91,6.35c-.07,0-.16.03-.26.06l-.09.03c-.72.32-.83.36-1.95.48-.39.04-1.48.16-2.68.31-1.67.19-2.55.29-2.99.29-.73,0-1.26-.22-1.47-.59-.06-.13-.13-.25-.28-.25-.14,0-.29.12-.29.37,0,.49.18,1,.47,1.33.36.38.92.79,1.3.79.13,0,.22-.03.5-.13,1.33-.5,5.38-1.27,6.66-1.27.45,0,.45.2.45.27,0,.17-.08.62-.62,1.73-.64,1.32-1.5,2.48-2.71,3.64-1.69,1.61-3.4,2.65-5.36,3.28-.15.05-.35.12-.35.34,0,.19.16.33.37.33.16,0,.41-.06,1.01-.21,1.11-.32,1.95-.7,3.12-1.39,1.69-.98,2.73-1.88,3.97-3.43.91-1.12,1.44-1.95,2.45-3.84.46-.34.61-.47.61-.69,0-.37-1.48-1.44-1.87-1.44Z"/><path d="M231.95,5.2c-.93-.67-1.21-.83-1.46-.83-.19,0-.26.04-.59.25-.36.21-.48.25-2.42.52-1.61.22-3.79.43-4.49.43s-1.25-.24-1.42-.64c-.05-.09-.1-.2-.25-.2-.11,0-.31.07-.31.58s.21.99.54,1.28c.35.31.9.57,1.19.57.15,0,.2,0,.61-.17,1.28-.48,4.77-1.08,6.23-1.08.47,0,.47.12.47.23,0,.29-.35,1.31-.79,2.14-.92,1.84-2.38,3.69-3.92,4.96-1.47,1.2-3.72,2.44-5.36,2.94-.2.08-.34.14-.34.34s.12.33.31.33c.4,0,2-.49,3-.92,4.18-1.74,6.44-4.08,8.97-9.27.03-.04.25-.19.43-.29.17-.1.29-.2.29-.43s-.14-.33-.72-.71Z"/><path d="M231.16,2.48c-.78,0-.78.22-.78.29,0,.16.13.22.24.26.82.27,1.38.72,1.81,1.46.16.31.33.43.6.43.41,0,.74-.37.74-.82,0-.87-1.2-1.61-2.61-1.61Z"/><path d="M233.18,1.53c-.39,0-.76.02-.76.29,0,.14.13.19.24.24.86.3,1.32.68,1.82,1.52.14.24.3.4.6.4.41,0,.74-.37.74-.82,0-.87-1.23-1.63-2.63-1.63Z"/></svg>