<?xml version="1.0" encoding="UTF-8"?><svg id="_レイヤー_1" xmlns="http://www.w3.org/2000/svg" viewBox="0 0 132.04 41.44"><path d="M6.72,11.92c0-.18-.08-.28-.22-.41l-1.06-1.01-.5.72h-2.26l-1.28-.73v.24c.03.61.03.82.03,1.29,0,1.34-.04,3.3-.1,4.87-.02.26-.02.48-.02.62,0,.17.04.39.35.39.24,0,.62-.08.76-.19.2-.08.2-.28.2-.4l.02-1.39h2.36l.02,1.12c0,.19.04.39.33.39.16,0,.47-.07.69-.14.17-.06.27-.2.27-.38l-.02-.63c-.04-1.52-.06-2.8-.06-3.91l.17-.05c.21-.05.32-.18.32-.39ZM5,15.15h-2.35l.02-3.17h2.31l.02,3.17Z"/><path d="M12.53,7.39c.21.3.41.43.64.43.31,0,.59-.36.59-.76,0-.61-.63-1.4-1.7-2.11.23-.74.43-1.77.51-2.71h3.08l-.03.78c-.09,2.61-.27,4.15-.56,5-.2.58-.34.69-.91.69-.34,0-.48-.02-2.15-.31l-.12-.02-.14.56.12.04c.74.27.92.34,1.46.55l.19.07c.12.04.18.09.19.51,0,.1,0,.24.09.34.1.1.24.12.36.12.42,0,.96-.24,1.4-.62.84-.76,1.26-2.68,1.44-6.62l.02-.54.21-.09c.23-.1.47-.22.47-.48,0-.16-.1-.3-.26-.45l-1.25-1.16-.62.87h-4.04c-1.68,0-2.33-.02-4.17-.1h-.26s.57.92.57.92h.25c.94-.04,1.41-.06,2.27-.06h1.03c-.07.88-.15,1.48-.3,2.08-.69-.32-1.57-.63-2.56-.9l-.14-.04-.12.51.11.04c1.1.45,1.74.81,2.42,1.39-.78,2.28-1.9,3.66-4.01,4.93l-.11.07.25.5.12-.05c2.25-1.02,3.79-2.51,4.71-4.56.22.24.46.54.94,1.19Z"/><path d="M15.93,16.01c-.12-.06-.12-.08-.12-.17l.04-2.04-.52-.07-.03.13c-.28,1.4-.49,2.02-.75,2.19-.22.15-.81.23-1.74.23s-1.4-.07-1.47-.11c-.01,0-.03-.02-.03-.02-.03-.05-.03-.36-.03-.92,0-.42.03-1.2.05-2.1l.02-.66.37-.13c.19-.09.39-.22.39-.5,0-.36-.36-.44-.49-.47l-1.53-.24-.17-.02.02.17c.04.42.06.63.06.96q0,.21-.1,3.25v.76c0,1.15.62,1.27,3.08,1.27s3.51-.23,3.51-.86c0-.31-.18-.44-.57-.65Z"/><path d="M11.71,9.69l-.11-.05-.24.39.08.08c.71.63,1.13,1.29,1.37,2.13q.26.93.31,1.03c.14.24.32.34.61.34.43,0,.72-.35.72-.86,0-1.23-1-2.34-2.75-3.06Z"/><path d="M15.34,11.94l-.09-.05-.35.35.1.1c.8.78,1.25,1.54,1.55,2.62q.28,1.13.32,1.24c.14.28.34.41.65.41.45,0,.74-.35.74-.9,0-1.31-1.01-2.61-2.93-3.76Z"/><path d="M8.83,12.07l-.54-.07v.15c-.13,1.65-.31,2.2-1.01,2.91-.54.52-.67.73-.67,1.08,0,.42.33.76.74.76.99,0,1.61-1.21,1.61-3.15,0-.47-.02-.81-.12-1.57v-.1Z"/><path d="M6.76,9.07c0-.15-.06-.26-.2-.38l-1.31-1.12-1.05,1.11H1.24v.76h5.13c.24,0,.39-.15.39-.37Z"/><path d="M7.35,4.63c.21,0,.37-.16.37-.37,0-.15-.06-.26-.21-.38l-1.43-1.18-1.09,1.17h-.61c-1.69-.02-2.26-.03-4.15-.14h-.25s.55.98.55.98h.08c1.21-.06,1.93-.08,2.85-.08h3.86Z"/><path d="M6.8,1.75c0-.16-.08-.25-.22-.38L5.26.25l-1.05,1.11H1.28v.76h5.13c.24,0,.39-.15.39-.37Z"/><path d="M4.22,6.27H1.28v.76h5.13c.24,0,.39-.15.39-.37,0-.16-.08-.25-.22-.38l-1.31-1.12-1.05,1.11Z"/><path d="M20.91,6.31c1.03,0,1.74-1.1,1.74-2.66,0-.05,0-.07,0-.1h12.41l-.09.2c-.27.65-.32.78-.85,1.73l-.06.1.43.33.08-.06c.78-.59.92-.7,1.6-1.26l.04-.03h.81c.47,0,.7-.16.7-.47,0-.2-.1-.33-.29-.53l-1.64-1.66-.7.87h-5.58v-1.43l.38-.13c.19-.1.39-.23.39-.47,0-.13-.05-.43-.49-.47l-1.77-.28.02.41c.01.26.03.47.03.89v1.49h-5.49c-.04-.24-.12-.46-.28-.93l-.04-.1-.57.07.02.65c0,.81-.28,1.41-.87,1.89-.6.49-.76.66-.76,1.11,0,.5.34.84.82.84Z"/><path d="M33.62,15.85c-1.54,0-3.2-.09-4.04-.22v-4.02h5.94c.24,0,.39-.15.39-.37,0-.17-.11-.28-.23-.38l-1.55-1.21-1.2,1.2h-3.35v-3.63h5.29c.23,0,.39-.16.39-.37,0-.16-.1-.28-.21-.38l-1.57-1.23-1.2,1.22h-5.19c-1.81,0-2.45-.02-4.58-.14h-.25s.55.98.55.98h.08c1.21-.06,1.93-.08,2.85-.08h2.35v8.11c-1.47-.44-2.88-1.67-3.73-3.24.1-.31.22-.72.5-1.85l.38-.17c.22-.08.44-.21.44-.48,0-.3-.26-.42-.5-.49l-1.69-.39v.16c-.24,3.72-1.4,6.39-3.75,8.65l-.1.09.37.41.1-.08c2.1-1.68,3.15-3.03,3.94-5.04.98,1.66,2.16,2.79,3.6,3.45,1.21.58,3.91.93,7.03.93.47,0,1.21-.02,2.1-.06h.11s.02-.11.02-.11c.09-.42.41-.86.89-1.23l.37-.29-.47.04c-1.76.15-2.61.2-4.12.2Z"/><path d="M56.1,2.59c-.69.04-1.21.06-1.53.06-.23,0-.49-.02-.78-.07-.6-.1-.96-.11-1.38.01l-.06.02-.03.05c-.06.11-.09.24-.11.37v.05s.02.04.02.04c.07.13.15.21.24.24.05.02.17.04.6.06.28.04.48.06.6.06.7.13.81.22.83.24.03.04.11.24.11,1.3,0,.44.03.96.08,1.53.05.58.08.97.09,1.17.05,1.51.08,2.43.08,2.72l.02,1.47-.04.65c0,.07.03.78.06,1.41-.29-.31-.53-.57-.73-.8l-2.57-2.85c-1.09-1.2-1.83-2-2.21-2.38-.37-.38-.79-.84-1.25-1.37l-.33-.39-2.46-2.72c-.26-.33-.55-.63-.86-.88l-.03-.03h-.05c-.13,0-.23-.01-.3-.01-.08,0-.23.01-.43.03-.51.06-1.33.09-2.43.09h-.14l.02.76.1.03c.14.04.42.08.88.13.42.05.75.16,1,.34.11.08.19.18.22.28.05.16.12.7.13,2.37l.02,3.05v1.47c.02,1.18.03,2,.03,2.44,0,.91-.04,1.62-.11,2.11-.07.07-.15.12-.25.16-.2.07-.52.14-.96.21l-.51.08-.4.18.02.53h.12c.13.03.24.04.31.04h.15c.54-.05,1.17-.06,1.88-.06,1.01,0,1.88.03,2.58.09.25.03.37.04.63-.04l.09-.03.02-.59-.07-.04s-.07-.05-.11-.08l-.03-.02h-.04c-.66-.14-1.34-.23-2.01-.3l-.28-.06c-.02-.25-.04-.51-.04-.76l-.08-3.56c-.07-2.45-.11-4.39-.11-5.77v-.12c.1.07.18.14.24.2.1.1.36.4.77.87.65.76,1.15,1.32,1.49,1.68,1.25,1.33,2.27,2.45,3.05,3.34l.24.24c.11.11.35.37.69.75l.92,1.06c.12.15.35.39.71.75,1.47,1.51,2.34,2.42,2.59,2.71l.05.05.69-.06v-.12c.03-.79.05-1.31.05-1.54,0-1.07-.02-2.37-.06-3.86l-.06-2.16v-.46s-.08-1.56-.08-1.56l-.12-3.4c0-.16.07-.32.22-.48,0,0,.06-.06.4-.16.16-.05.34-.08.53-.09.22-.01.39-.05.52-.1l.08-.03.04-.56h-.33c-.15,0-.42.01-.83.04Z"/><path d="M69.5,2.91c-.68-.33-1.61-.49-2.75-.49-.64,0-1.21.02-1.69.06l-1.83.11c-.5.03-.84.04-.99.04-.11,0-.31,0-.6-.01-.56-.03-.97-.04-1.21-.04-.04,0-.13.01-.27.03h-.07s-.03.07-.03.07c-.05.1-.08.19-.08.27,0,.07.02.15.07.25l.03.07h.07c1.28.19,1.75.41,1.92.56.07.06.19.26.19.87v.18c0,1.33.01,2.65.04,3.94.07,2.8.11,4.57.11,5.4,0,.26,0,.47-.01.62,0,.22-.01.36-.01.42,0,.35-.05.47-.08.51,0,0-.06.06-.34.14l-1.51.29.02.53h.14c.34-.02.55-.03.61-.03l1.14.03,1.89-.08c.34,0,.83.03,1.44.1.32.04.53.05.62.05.17,0,.28-.02.35-.07.08-.05.13-.14.17-.29v-.06s-.01-.05-.01-.05c-.06-.1-.13-.16-.22-.2-.02,0-.06-.02-.66-.17-.73-.16-1.21-.27-1.43-.33-.04-.16-.06-.39-.06-.67,0-.14,0-.3.03-.49.02-.2.03-.34.03-.41l-.14-4.91v-.62c-.04-.35-.06-1.26-.06-2.71,0-.4,0-.7.02-.89v-.23s-.02-1.2-.02-1.2v-.08c.13-.06.47-.14,1.45-.14.27,0,.67.06,1.18.18.5.12.87.26,1.11.43.42.3.77.71,1.03,1.21.26.5.39,1.03.39,1.56s-.13,1.08-.37,1.57c-.24.49-.61.87-1.09,1.13-.48.27-1,.4-1.54.4-.36,0-.65-.04-.88-.12-.12-.05-.25-.07-.36-.07h-.05c-.08.04-.14.1-.18.18l-.03.05.02.06c.04.13.14.25.3.37.33.22.63.37.9.45.26.08.59.12.98.12,1.37,0,2.47-.43,3.28-1.27.81-.84,1.22-1.85,1.22-3.01,0-.69-.19-1.4-.56-2.1-.37-.7-.92-1.23-1.61-1.56Z"/><path d="M89.25,5.29c-.6-.76-1.2-1.32-1.8-1.69-.59-.36-1.27-.65-2-.85-.73-.2-1.49-.31-2.25-.31-1.13,0-2.08.12-2.82.36-1.05.35-1.88.75-2.48,1.21-.6.46-1.12,1.03-1.54,1.71-.42.67-.72,1.31-.9,1.89-.18.58-.27,1.25-.27,1.99,0,.9.14,1.75.42,2.51.28.77.69,1.47,1.22,2.11.53.63,1.06,1.12,1.57,1.44.51.33,1.15.6,1.9.83.76.22,1.63.34,2.59.34s1.85-.13,2.67-.39c.82-.26,1.52-.6,2.07-1.03.82-.62,1.42-1.18,1.76-1.67.44-.62.75-1.26.94-1.89.19-.63.28-1.44.28-2.39,0-.84-.14-1.67-.42-2.47-.21-.61-.53-1.18-.95-1.71ZM82.92,3.11c.78,0,1.53.15,2.22.46.69.3,1.28.74,1.77,1.29.49.55.84,1.19,1.06,1.89.28.94.42,1.9.42,2.85,0,.77-.09,1.55-.26,2.32-.17.76-.39,1.4-.67,1.88-.27.48-.66.92-1.14,1.29-.49.38-1.05.65-1.68.81-1.31.34-2.55.34-3.61-.08-.55-.22-1.05-.54-1.49-.95-.44-.42-.82-.9-1.13-1.44-.3-.54-.55-1.19-.72-1.92-.18-.74-.27-1.41-.27-1.99s.09-1.2.27-1.93c.18-.72.43-1.39.77-1.99.34-.6.7-1.06,1.09-1.38.39-.32.89-.59,1.5-.8.61-.21,1.24-.32,1.87-.32Z"/><path d="M97.39,3.41c.17.54.29.78.7.78.47,0,.82-.4.82-.92,0-.72-.53-1.41-1.41-1.85-.49-.24-.84-.37-1.58-.54l-.11-.03-.23.46.13.06c.79.38,1.35,1.06,1.67,2.03Z"/><path d="M95.98,7.62l.08.31c.08.32.09.36.16.45.14.18.34.29.54.29.42,0,.76-.39.76-.86,0-.67-.4-1.31-1.12-1.8-.4-.28-.77-.44-1.59-.69l-.13-.04-.13.42.08.06c.66.43,1.03.96,1.33,1.86Z"/><path d="M110.67,7.56l-1.26,1.34h-3.53v-3.63h5.35c.23,0,.39-.16.39-.37,0-.16-.1-.28-.21-.38l-1.57-1.23-1.2,1.22h-2.76V1.62l.34-.14c.33-.12.4-.33.4-.48,0-.39-.37-.45-.49-.47l-1.71-.26v.17c.02.23.02.39.03.59,0,.15,0,.31.02.54v2.94h-3.82l.58-1.52-.52-.22-4.48,9.52-1.65-.08-.03.59.12.02c.83.12.98.18,1.17.31.26.19.41.68.41,1.3,0,.23-.02.58-.04.89q-.08,1.16-.08,1.26c0,.65.32,1.04.86,1.04s.9-.42.9-1.06c0-.22-.04-.44-.1-.79-.31-1.63-.35-1.93-.35-2.48,0-.24.03-.4.09-.54l1.16-3.09h5.44c-.25,1.07-1.14,3.44-2.13,5.71l-1.03.04c-.6.04-.72.04-1.64.04h-.22l.85,1.82c.1.22.26.36.44.36.22,0,.34-.15.44-.31l.16-.33c2.74-.38,6.79-1.02,8.38-1.32l.52-.1v.03q.52,1.36.59,1.48c.18.25.4.37.68.37.45,0,.8-.4.8-.92,0-.98-.65-2.04-1.93-3.16-.92-.79-1.61-1.22-2.88-1.77l-.11-.05-.24.41.1.07c1.26.9,1.95,1.65,2.65,2.88l-.45.03c-1.97.17-5.06.37-6.2.41h-.04c.83-1.45.85-1.52.85-1.53.43-.84.85-1.7,1.25-2.53l.81-1.63h6.3c.25,0,.41-.14.41-.37,0-.15-.09-.24-.23-.38l-1.63-1.36ZM104.47,5.27v3.63h-5.48l1.38-3.63h4.1Z"/><path d="M124.4,9.35c-.85-1.95-1.31-4.4-1.38-7.29l.19-.09c.35-.14.42-.36.42-.52,0-.32-.28-.4-.55-.45l-1.68-.26v.17c.09.87.11,1.49.11,2.54,0,4.15-.56,7.09-1.72,8.96-1.11,1.78-2.8,3.1-5.82,4.57l-.12.06.29.61.12-.05c5.97-2.34,8.06-4.93,8.5-10.99.8,4.9,2.93,7.81,7.49,10.42l.11.06.07-.11c.36-.55.69-.82,1.31-1.09l.31-.13-.31-.12c-3.4-1.35-6.21-3.77-7.33-6.29Z"/><path d="M36.64,37.98l-1.26,1.34h-.55l-.04-4.43-.04-1.91.26-.07c.23-.08.38-.19.38-.46,0-.19-.05-.27-.28-.49l-1.31-1.23-.66.95h-4.57l.76-5.37h7.82c.24,0,.39-.15.39-.37,0-.16-.08-.25-.23-.38l-1.63-1.36-1.26,1.34h-8.31c-1.84,0-2.48-.02-4.58-.14h-.25s.55.98.55.98h.08c1.21-.06,1.93-.08,2.85-.08h3.08l-.76,5.37h-.53c-1.67,0-2.35-.02-4.17-.1h-.26s.57.92.57.92h.3c.9-.04,1.36-.06,2.23-.06h1.76l-.98,6.88h-.72c-1.83,0-2.47-.02-4.58-.14h-.25s.55.98.55.98h.08c1.21-.06,1.93-.08,2.85-.08h14.12c.24,0,.39-.15.39-.37,0-.16-.08-.25-.23-.38l-1.63-1.36ZM33.3,39.32h-5.8l.98-6.88h4.78l.04,6.88Z"/><path d="M50.98,29.54c1.12-.96,2.07-1.97,2.83-3l.72-.11c.23-.06.4-.25.4-.47s-.14-.35-.26-.44l-1.44-1.19-.73.94h-4.77s.05-.09.08-.14l.22-.37.44-.09c.26-.08.41-.25.41-.46,0-.3-.27-.4-.36-.44l-1.57-.67-.04.15c-.89,2.95-3.03,5.93-5.89,8.16l-.1.08.3.45.11-.07c2.07-1.27,4.2-3.28,5.47-5.16.75,1.17,1.39,1.94,2.3,2.76-2.26,1.78-4.65,2.97-8.21,4.11l-.13.04.18.57.12-.03c4.03-.98,6.57-2.08,9.02-3.9,1.63,1.12,3.44,1.89,7.09,3.02l.1.03.06-.09c.4-.63.77-.94,1.51-1.28l.45-.21-.49-.05c-2.72-.3-6.02-1.21-7.81-2.14ZM52.28,26.04c-.66.96-1.5,1.93-2.44,2.8-1-.7-1.96-1.68-2.65-2.72l.06-.08h5.04Z"/><path d="M50.94,34.87h6.1c.22,0,.37-.15.37-.37,0-.16-.1-.28-.21-.38l-1.55-1.23-1.2,1.22h-4.02l.02-1.08.33-.12c.31-.13.38-.33.38-.48,0-.17-.08-.38-.47-.45l-1.7-.24v.17c.05.54.05.69.05,1.85v.35h-2.27c-1.84,0-2.48-.02-4.6-.14h-.25s.55.98.55.98h.08c1.19-.06,1.94-.08,2.87-.08h2.42c-1.74,2.15-4.62,4.4-7.1,5.52l-.14.06.3.48.11-.04c3.13-1.2,5.9-3.05,8.04-5.36l-.04,3.04-.02,1.98v.37c0,.26,0,.51.33.51.22,0,.76-.1.93-.2.14-.09.2-.19.2-.37l-.06-4.29v-1.26c1.5,2.23,4,4.08,6.95,5.12l.1.04.06-.09c.33-.52.64-.78,1.26-1.07l.38-.18-.42-.08c-3.6-.67-6.23-2.08-7.81-4.18Z"/><path d="M73.14,27.43c-.1,0-.22.04-.34.12-.46.27-.54.3-.81.4l-.09.03c-1.2.25-1.84.35-2.21.35-.13,0-.2,0-.28-.03l.03-.06c.08-.14.13-.25.16-.32v-.02c.04-.05.09-.11.13-.18.06-.1.14-.21.19-.27.12-.16.16-.23.16-.36,0-.31-.31-.64-1.01-1.08-.47-.29-.8-.39-1.23-.39-.39,0-.59.11-.59.31,0,.17.16.24.22.26.39.18.55.44.55.91,0,1.32-2.47,4.79-4.47,6.3-.35.25-.43.33-.43.48,0,.18.12.29.31.29.23,0,.94-.42,1.47-.81,1.55-1.1,2.93-2.59,4.13-4.42.31.21.48.28.73.28.17,0,.34-.02,1.01-.14,1.09-.21,1.24-.23,1.4-.23.07,0,.2.02.2.18,0,.13-.09.4-.28.81-.65,1.45-1.7,3.02-2.89,4.31-1.9,2.04-4.05,3.57-6.58,4.69-.28.12-.45.21-.45.44,0,.18.14.31.33.31.17,0,.66-.15,1.21-.36,2.18-.85,4.08-1.99,5.64-3.38,1.83-1.64,2.96-3.16,4.64-6.27.14-.17.16-.18.35-.28.39-.19.51-.26.51-.47,0-.36-1.35-1.41-1.7-1.41Z"/><path d="M83.66,27.98c.6,0,1.39-.09,2.43-.28,1.69-.29,1.83-.31,2.48-.39.85-.1,1.22-.17,1.22-.51,0-.28-.21-.45-.52-.63h0c-.56-.29-.79-.39-1.02-.39-.16,0-.26.03-.54.15-1.04.41-3.04.77-4.28.77-.66,0-.96-.1-1.22-.41-.08-.11-.17-.14-.23-.14-.11,0-.22.1-.22.21,0,.21.19.62.38.9.36.51.79.7,1.52.7Z"/><path d="M89.76,29.15c-.07,0-.15.03-.25.06l-.08.03c-.68.3-.79.34-1.86.46-.37.04-1.41.16-2.55.29-1.59.19-2.42.27-2.84.27-.7,0-1.2-.21-1.4-.56-.05-.12-.12-.24-.26-.24-.13,0-.27.11-.27.35,0,.46.17.95.45,1.27.34.36.88.75,1.24.75.13,0,.21-.03.48-.13,1.27-.47,5.12-1.21,6.34-1.21.43,0,.43.19.43.26,0,.16-.08.59-.59,1.64-.61,1.25-1.43,2.36-2.58,3.47-1.61,1.53-3.23,2.53-5.1,3.12-.14.05-.33.11-.33.33,0,.18.15.31.35.31.15,0,.39-.06.96-.2,1.05-.3,1.86-.66,2.97-1.33,1.61-.93,2.6-1.79,3.78-3.27.87-1.06,1.37-1.85,2.33-3.66.44-.32.58-.45.58-.66,0-.35-1.41-1.37-1.78-1.37Z"/><path d="M107.88,28.06c-.88-.63-1.15-.79-1.39-.79-.18,0-.24.04-.56.23-.34.2-.46.23-2.3.49-1.53.21-3.61.41-4.27.41s-1.19-.22-1.35-.61c-.04-.09-.1-.19-.24-.19-.11,0-.29.07-.29.55s.2.94.52,1.22c.34.29.85.54,1.13.54.15,0,.19,0,.58-.17,1.22-.45,4.54-1.03,5.93-1.03.45,0,.45.11.45.22,0,.28-.33,1.24-.75,2.03-.88,1.75-2.27,3.51-3.73,4.72-1.4,1.14-3.54,2.32-5.1,2.8-.19.08-.32.13-.32.32s.12.31.29.31c.38,0,1.9-.46,2.85-.87,3.97-1.65,6.13-3.88,8.54-8.82.03-.03.23-.18.41-.28.16-.1.28-.19.28-.41s-.13-.32-.68-.68Z"/><path d="M107.13,25.47c-.74,0-.74.21-.74.27,0,.16.12.2.23.25.78.26,1.31.69,1.73,1.38.16.29.32.4.57.4.39,0,.7-.35.7-.78,0-.83-1.14-1.53-2.49-1.53Z"/><path d="M109.05,24.57c-.37,0-.72.02-.72.27,0,.14.12.19.23.23.82.29,1.25.65,1.73,1.45.13.23.28.38.57.38.39,0,.7-.35.7-.78,0-.82-1.17-1.55-2.51-1.55Z"/></svg>