<?xml version="1.0" encoding="UTF-8"?><svg id="_レイヤー_1" xmlns="http://www.w3.org/2000/svg" viewBox="0 0 342.09 171.53"><defs><style>.cls-1{fill:#fff;}.cls-2{fill:#8d1b40;}</style></defs><rect class="cls-2" width="343.44" height="170.51"/><path class="cls-1" d="M95.58,36.86c-1.75.11-3.05.16-3.87.16-.58,0-1.24-.06-1.97-.19-1.52-.25-2.43-.28-3.49.04l-.14.04-.07.14c-.14.29-.24.6-.28.93v.11s.04.1.04.1c.19.33.39.53.61.62.14.05.42.11,1.52.15.71.09,1.22.15,1.51.16,1.78.33,2.06.56,2.1.6.07.09.29.61.29,3.28,0,1.11.06,2.42.19,3.88.13,1.48.2,2.45.22,2.96.13,3.83.19,6.14.19,6.88l.06,3.71-.11,1.66c0,.18.08,1.98.15,3.58-.73-.78-1.35-1.45-1.86-2.02l-6.51-7.22c-2.75-3.04-4.63-5.07-5.58-6.03-.94-.95-2.01-2.12-3.15-3.47l-.83-.99-6.23-6.87c-.67-.83-1.4-1.58-2.17-2.23l-.09-.07h-.11c-.33-.02-.59-.03-.75-.03-.21,0-.57.03-1.1.08-1.29.14-3.35.22-6.15.22h-.35l.04,1.92.25.07c.35.1,1.07.21,2.22.34,1.05.12,1.91.41,2.54.86.29.21.47.45.56.7.13.4.29,1.77.34,6l.05,7.73v3.71c.05,2.99.08,5.05.08,6.18,0,2.31-.09,4.11-.28,5.35-.17.18-.38.31-.64.41-.5.19-1.32.37-2.43.53l-1.28.19-1.01.45.04,1.34.3.03c.33.04.61.06.77.06l.38-.03c1.36-.09,2.97-.14,4.77-.14,2.56,0,4.76.07,6.52.22.62.08.94.11,1.59-.09l.24-.07.04-1.49-.18-.1c-.08-.05-.17-.12-.28-.21l-.07-.06-.09-.02c-1.68-.33-3.4-.58-5.08-.73l-.71-.16c-.06-.63-.09-1.28-.11-1.93l-.19-9.02c-.18-6.2-.27-11.12-.27-14.61l.03-.3c.23.19.43.36.58.52.26.26.91,1,1.94,2.21,1.65,1.92,2.91,3.35,3.77,4.26,3.16,3.38,5.75,6.21,7.72,8.45l.6.6c.27.27.88.93,1.75,1.89l2.34,2.69c.31.37.9.99,1.79,1.9,3.73,3.83,5.93,6.14,6.56,6.85l.12.13,1.75-.15v-.31c.08-1.99.12-3.31.12-3.91,0-2.72-.06-6-.16-9.76l-.16-5.46.03-1.17-.22-3.94-.3-8.6c0-.4.19-.81.57-1.22.01-.02.16-.15,1.01-.41.41-.12.86-.19,1.34-.22.56-.03.99-.12,1.32-.26l.19-.08.09-1.42h-.83c-.38,0-1.07.04-2.09.11Z"/><path class="cls-1" d="M129.52,37.67c-1.73-.83-4.07-1.25-6.96-1.25-1.62,0-3.06.06-4.27.16l-4.63.27c-1.27.07-2.12.11-2.51.11-.27,0-.78,0-1.51-.03-1.42-.07-2.45-.11-3.07-.11-.1,0-.33.03-.68.09l-.17.03-.08.15c-.14.25-.21.48-.21.68,0,.18.05.39.17.63l.08.17.19.03c3.25.46,4.43,1.01,4.86,1.39.18.15.48.65.48,2.21v.46c0,3.36.04,6.72.11,9.97.18,7.08.27,11.56.27,13.68,0,.66,0,1.18-.03,1.57-.02.55-.03.91-.03,1.07,0,.88-.13,1.19-.2,1.28-.01.02-.14.16-.86.36l-3.83.74.05,1.35h.35c.86-.05,1.39-.07,1.56-.07l2.88.08,4.78-.19c.87,0,2.09.08,3.64.24.82.09,1.33.14,1.56.14.43,0,.71-.06.89-.18.19-.13.32-.36.42-.73l.04-.14-.07-.12c-.15-.25-.33-.42-.55-.5-.05-.02-.16-.06-1.66-.42-1.84-.41-3.06-.69-3.61-.84-.1-.41-.15-.98-.15-1.71,0-.35.02-.77.07-1.25.05-.5.07-.85.07-1.05l-.35-12.43v-1.57c-.11-.89-.16-3.2-.16-6.87,0-1.01.02-1.76.05-2.24l.03-.57-.08-3.04v-.2c.32-.14,1.2-.35,3.68-.35.69,0,1.7.15,2.98.45,1.26.3,2.2.66,2.8,1.09,1.07.76,1.95,1.8,2.61,3.07.66,1.28.99,2.61.99,3.96s-.32,2.73-.94,3.98c-.62,1.24-1.55,2.2-2.76,2.87-1.22.68-2.54,1.02-3.9,1.02-.9,0-1.65-.1-2.22-.3-.31-.12-.62-.19-.92-.19l-.14.03c-.2.08-.35.22-.46.42l-.07.13.04.14c.1.34.35.64.77.93.84.56,1.6.95,2.27,1.15.66.2,1.5.3,2.47.3,3.46,0,6.26-1.08,8.31-3.21,2.05-2.12,3.09-4.68,3.09-7.61,0-1.76-.48-3.54-1.42-5.3-.95-1.78-2.32-3.11-4.07-3.94Z"/><path class="cls-1" d="M179.51,43.69c-1.51-1.91-3.04-3.35-4.56-4.28-1.51-.92-3.21-1.65-5.06-2.16-1.85-.51-3.76-.78-5.69-.78-2.86,0-5.26.31-7.14.92-2.66.88-4.77,1.91-6.28,3.06-1.52,1.16-2.83,2.61-3.9,4.33-1.06,1.71-1.83,3.32-2.28,4.78-.45,1.47-.68,3.17-.68,5.05,0,2.28.36,4.42,1.05,6.36.7,1.94,1.75,3.73,3.1,5.33,1.35,1.6,2.69,2.83,3.97,3.65,1.29.82,2.91,1.53,4.81,2.1,1.91.57,4.12.86,6.55.86s4.68-.33,6.75-.98c2.08-.65,3.85-1.53,5.25-2.6,2.09-1.57,3.59-2.99,4.46-4.22,1.11-1.57,1.91-3.18,2.38-4.79.47-1.61.71-3.64.71-6.06,0-2.13-.36-4.23-1.05-6.24-.54-1.54-1.34-2.99-2.4-4.32ZM163.47,38.17c1.98,0,3.86.39,5.61,1.16,1.74.77,3.25,1.86,4.48,3.26,1.23,1.4,2.14,3.01,2.68,4.79.71,2.37,1.08,4.8,1.08,7.23,0,1.95-.22,3.92-.65,5.86-.43,1.94-1,3.54-1.69,4.77-.69,1.22-1.67,2.32-2.89,3.28-1.23.96-2.66,1.65-4.25,2.06-3.32.86-6.45.87-9.14-.2-1.39-.55-2.66-1.36-3.77-2.41-1.12-1.05-2.08-2.27-2.85-3.64-.77-1.36-1.39-3-1.83-4.87-.45-1.87-.67-3.57-.67-5.04s.23-3.04.67-4.88c.44-1.83,1.1-3.53,1.95-5.05.85-1.51,1.77-2.69,2.75-3.5.98-.81,2.26-1.5,3.79-2.02,1.54-.53,3.13-.8,4.74-.8Z"/><path class="cls-1" d="M200.11,38.94c.43,1.38.72,1.98,1.77,1.98,1.19,0,2.08-1,2.08-2.33,0-1.81-1.33-3.56-3.56-4.67-1.24-.62-2.14-.93-3.99-1.37l-.27-.06-.58,1.16.32.15c2,.95,3.43,2.69,4.23,5.15Z"/><path class="cls-1" d="M196.53,49.59l.2.77c.21.8.24.92.4,1.13.35.47.85.73,1.37.73,1.07,0,1.93-.98,1.93-2.18,0-1.7-1-3.32-2.83-4.55-1.01-.71-1.95-1.12-4.02-1.73l-.33-.1-.32,1.08.21.14c1.67,1.09,2.61,2.42,3.38,4.71Z"/><path class="cls-1" d="M233.74,49.42l-3.2,3.4h-8.93v-9.18h13.54c.57,0,.99-.4.99-.94,0-.41-.26-.7-.53-.97l-3.96-3.12-3.04,3.09h-7v-7.31l.86-.35c.84-.31,1.02-.83,1.02-1.22,0-.99-.93-1.14-1.24-1.19l-4.34-.66.02.42c.03.58.04.99.06,1.5.01.37.02.79.04,1.36v7.43h-9.67l1.48-3.86-1.31-.56-11.35,24.1-4.18-.2-.09,1.5.31.05c2.1.3,2.47.45,2.97.78.66.48,1.05,1.71,1.05,3.29,0,.58-.05,1.47-.1,2.26q-.2,2.94-.2,3.2c0,1.65.81,2.63,2.18,2.63s2.28-1.05,2.28-2.68c0-.56-.1-1.11-.25-2-.78-4.13-.89-4.9-.89-6.28,0-.6.06-1,.23-1.37l2.94-7.81h13.76c-.64,2.7-2.89,8.71-5.4,14.44l-2.62.09c-1.53.1-1.82.1-4.14.1h-.54l2.16,4.6c.25.56.67.9,1.11.9.57,0,.86-.39,1.1-.79l.41-.83c6.94-.97,17.2-2.59,21.21-3.35l1.33-.24.02.07q1.3,3.45,1.48,3.75c.46.64,1.01.94,1.72.94,1.14,0,2.03-1.02,2.03-2.33,0-2.48-1.64-5.17-4.88-8-2.32-2-4.09-3.09-7.28-4.47l-.28-.12-.62,1.03.26.19c3.19,2.29,4.94,4.17,6.72,7.29l-1.14.07c-4.99.44-12.81.94-15.69,1.04h-.1c2.1-3.66,2.14-3.84,2.14-3.86,1.09-2.14,2.15-4.31,3.18-6.4l2.04-4.12h15.95c.64,0,1.04-.36,1.04-.94,0-.39-.23-.62-.57-.96l-4.12-3.43ZM218.04,43.64v9.18h-13.88l3.5-9.18h10.38Z"/><path class="cls-1" d="M268.49,53.97c-2.15-4.94-3.32-11.14-3.49-18.45l.48-.24c.87-.36,1.06-.91,1.06-1.31,0-.82-.71-1.02-1.38-1.14l-4.25-.66.04.44c.19,2.2.25,3.76.25,6.42,0,10.52-1.43,17.94-4.36,22.68-2.82,4.5-7.09,7.85-14.74,11.58l-.31.15.73,1.54.3-.12c15.11-5.93,20.41-12.47,21.51-27.83,2.01,12.4,7.42,19.78,18.96,26.37l.28.16.18-.27c.91-1.39,1.75-2.08,3.32-2.75l.78-.33-.78-.31c-8.61-3.43-15.72-9.53-18.56-15.93Z"/><path class="cls-1" d="M97.64,126.43l-3.2,3.4h-1.39l-.1-11.22-.09-4.84.66-.18c.58-.21.97-.49.97-1.17,0-.49-.13-.67-.71-1.24l-3.32-3.1-1.66,2.41h-11.57l1.94-13.59h19.79c.6,0,.99-.37.99-.94,0-.4-.19-.64-.57-.96l-4.12-3.43-3.2,3.4h-21.03c-4.65,0-6.28-.05-11.59-.35l-.63-.04,1.4,2.52h.21c3.06-.16,4.88-.21,7.22-.21h7.79l-1.94,13.59h-1.34c-4.23,0-5.95-.05-10.55-.25l-.65-.03,1.43,2.36.76-.03c2.28-.09,3.43-.13,5.63-.13h4.46l-2.48,17.41h-1.83c-4.64,0-6.26-.05-11.59-.35l-.63-.04,1.4,2.52h.21c3.06-.16,4.88-.21,7.22-.21h35.76c.6,0,.99-.37.99-.94,0-.4-.19-.64-.57-.96l-4.12-3.43ZM89.18,129.84h-14.68l2.48-17.41h12.1l.1,17.41Z"/><path class="cls-1" d="M133.93,105.07c2.84-2.43,5.25-4.98,7.17-7.6l1.82-.28c.58-.15,1-.64,1-1.18s-.36-.88-.67-1.11l-3.65-3-1.85,2.38h-12.07c.06-.11.13-.22.21-.35l.55-.93,1.12-.23c.66-.2,1.04-.63,1.04-1.17,0-.75-.69-1.02-.9-1.11l-3.97-1.69-.11.37c-2.25,7.47-7.68,15-14.91,20.66l-.25.2.76,1.14.28-.17c5.24-3.21,10.63-8.3,13.85-13.05,1.89,2.96,3.53,4.92,5.82,6.99-5.71,4.49-11.77,7.52-20.79,10.4l-.33.1.45,1.43.31-.08c10.21-2.48,16.64-5.26,22.84-9.88,4.12,2.83,8.7,4.77,17.94,7.64l.25.08.14-.22c1.01-1.59,1.94-2.38,3.82-3.24l1.13-.52-1.24-.14c-6.89-.76-15.24-3.06-19.76-5.42ZM137.23,96.21c-1.68,2.44-3.8,4.88-6.18,7.1-2.54-1.77-4.97-4.26-6.72-6.88l.14-.21h12.76Z"/><path class="cls-1" d="M133.84,118.57h15.44c.56,0,.94-.38.94-.94,0-.41-.26-.7-.53-.96l-3.91-3.12-3.04,3.09h-10.17l.04-2.74.83-.32c.79-.32.96-.83.96-1.21,0-.43-.21-.97-1.19-1.14l-4.29-.61.03.43c.1,1.38.1,1.75.1,4.69v.89h-5.75c-4.65,0-6.28-.05-11.64-.35l-.63-.04,1.4,2.52h.21c3.01-.16,4.92-.21,7.27-.21h6.13c-4.39,5.45-11.68,11.13-17.98,13.97l-.36.16.75,1.22.27-.1c7.92-3.04,14.94-7.72,20.36-13.56l-.1,7.68-.05,5.01v.94c0,.66,0,1.29.84,1.29.55,0,1.92-.24,2.36-.5.37-.22.51-.49.51-.94l-.15-10.86.03-3.2c3.76,5.64,10.1,10.32,17.56,12.95l.26.09.15-.23c.84-1.31,1.62-1.97,3.18-2.7l.97-.46-1.05-.2c-9.12-1.71-15.77-5.27-19.77-10.57Z"/><path class="cls-1" d="M190.05,99.73c-.25,0-.54.1-.87.3-1.17.69-1.36.76-2.05,1.01l-.22.09c-3.05.63-4.67.89-5.58.89-.33,0-.52-.02-.71-.08l.07-.15c.19-.35.33-.64.41-.8l.02-.06c.09-.13.2-.29.3-.45.16-.24.35-.54.48-.68.3-.4.42-.58.42-.9,0-.78-.78-1.62-2.55-2.72-1.19-.72-2.03-.99-3.11-.99-.99,0-1.49.27-1.49.79,0,.44.41.61.55.66,1,.45,1.38,1.1,1.38,2.31,0,3.33-6.24,12.12-11.31,15.94-.88.64-1.09.82-1.09,1.22,0,.45.31.74.79.74.57,0,2.38-1.06,3.72-2.05,3.91-2.79,7.43-6.55,10.46-11.2.77.54,1.21.7,1.84.7.43,0,.87-.05,2.55-.35,2.75-.54,3.14-.59,3.55-.59.19,0,.5.06.5.45,0,.32-.24,1.01-.71,2.04-1.64,3.68-4.31,7.66-7.33,10.92-4.82,5.16-10.26,9.04-16.65,11.87-.71.31-1.15.54-1.15,1.11,0,.45.36.79.84.79.42,0,1.68-.38,3.05-.92,5.53-2.16,10.33-5.04,14.29-8.54,4.64-4.14,7.5-8.01,11.75-15.86.35-.44.4-.46.88-.7.98-.49,1.28-.67,1.28-1.2,0-.92-3.41-3.57-4.31-3.57Z"/><path class="cls-1" d="M216.67,101.12c1.51,0,3.52-.23,6.16-.7,4.28-.73,4.63-.79,6.28-.99,2.14-.24,3.08-.44,3.08-1.29,0-.71-.53-1.15-1.32-1.59h0c-1.42-.74-2-.99-2.59-.99-.41,0-.66.07-1.37.37-2.64,1.04-7.7,1.96-10.83,1.96-1.68,0-2.43-.26-3.08-1.04-.19-.29-.42-.35-.58-.35-.29,0-.54.25-.54.54,0,.53.48,1.57.96,2.28.91,1.28,1.99,1.78,3.85,1.78Z"/><path class="cls-1" d="M232.09,104.1c-.18,0-.38.07-.63.16l-.21.07c-1.73.77-2.01.86-4.71,1.16-.94.1-3.57.4-6.45.74-4.03.47-6.13.69-7.2.69-1.76,0-3.03-.52-3.55-1.43-.14-.32-.31-.61-.66-.61-.33,0-.69.28-.69.89,0,1.17.43,2.4,1.14,3.21.87.91,2.22,1.89,3.13,1.89.32,0,.53-.07,1.21-.32,3.21-1.2,12.96-3.05,16.05-3.05,1.09,0,1.09.49,1.09.65,0,.41-.19,1.49-1.5,4.16-1.54,3.18-3.61,5.97-6.52,8.78-4.08,3.88-8.18,6.39-12.91,7.91-.35.12-.83.28-.83.82,0,.46.38.79.89.79.39,0,.98-.15,2.43-.51,2.67-.77,4.71-1.68,7.52-3.36,4.08-2.36,6.59-4.52,9.57-8.27,2.2-2.69,3.47-4.69,5.9-9.26,1.11-.82,1.47-1.14,1.47-1.67,0-.89-3.57-3.47-4.51-3.47Z"/><path class="cls-1" d="M277.97,101.34c-2.23-1.61-2.92-2-3.53-2-.45,0-.62.09-1.41.59-.87.51-1.16.59-5.83,1.25-3.88.53-9.14,1.04-10.81,1.04s-3.01-.57-3.41-1.55c-.11-.22-.25-.49-.61-.49-.28,0-.74.18-.74,1.39s.5,2.39,1.31,3.09c.85.75,2.16,1.37,2.86,1.37.37,0,.47-.02,1.46-.42,3.09-1.14,11.5-2.61,15.01-2.61,1.14,0,1.14.28,1.14.55,0,.7-.85,3.15-1.9,5.15-2.22,4.43-5.74,8.9-9.43,11.94-3.54,2.89-8.95,5.87-12.9,7.09-.49.2-.81.33-.81.82s.29.79.74.79c.97,0,4.81-1.18,7.23-2.21,10.06-4.18,15.52-9.83,21.62-22.33.08-.09.59-.45,1.05-.71.4-.25.71-.49.71-1.04s-.33-.8-1.73-1.72Z"/><path class="cls-1" d="M276.08,94.77c-1.88,0-1.88.52-1.88.69,0,.39.31.52.58.63,1.97.66,3.32,1.74,4.37,3.51.4.74.8,1.02,1.44,1.02.98,0,1.78-.89,1.78-1.98,0-2.1-2.88-3.87-6.3-3.87Z"/><path class="cls-1" d="M280.94,92.49c-.93,0-1.83.05-1.83.69,0,.35.31.47.58.57,2.07.72,3.18,1.65,4.38,3.67.34.58.71.97,1.44.97.98,0,1.78-.89,1.78-1.98,0-2.09-2.97-3.92-6.35-3.92Z"/></svg>