<?xml version="1.0" encoding="UTF-8"?><svg id="_レイヤー_1" xmlns="http://www.w3.org/2000/svg" xmlns:xlink="http://www.w3.org/1999/xlink" viewBox="0 0 342.09 171.53"><defs><style>.cls-1{fill:none;}.cls-2{fill:#030000;}.cls-3{fill:url(#_名称未設定グラデーション_5);}.cls-4{clip-path:url(#clippath-1);}.cls-5{fill:#efd347;}.cls-6{fill:#ca2d27;}.cls-7{clip-path:url(#clippath);}</style><clipPath id="clippath"><rect class="cls-1" width="343.01" height="171"/></clipPath><clipPath id="clippath-1"><path class="cls-1" d="M215.48.02l-9.92,21.4c2.88-1.94,6.29-3.06,9.92-3.06s7.04,1.12,9.92,3.06L215.48.02ZM215.48,10.72c-.84,0-1.53-.67-1.53-1.53s.67-1.53,1.53-1.53,1.53.67,1.53,1.53-.69,1.53-1.53,1.53ZM277.8.02l-9.92,21.4c2.88-1.94,6.29-3.06,9.92-3.06s7.04,1.12,9.92,3.06L277.8.02ZM277.8,10.72c-.84,0-1.53-.67-1.53-1.53s.67-1.53,1.53-1.53,1.53.67,1.53,1.53-.69,1.53-1.53,1.53ZM266.32,10.72c0,5.49-4.53,9.92-10.11,9.92h-5.78c1.74-1.98,2.88-5.7,2.88-9.92s-1.16-7.94-2.88-9.92h5.78c5.6,0,10.11,4.45,10.11,9.92ZM178.78,0v13.74c0,4.23-3.7,7.64-8.25,7.64s-8.25-3.41-8.25-7.64V0c0,4.23,3.7,7.64,8.25,7.64s8.25-3.41,8.25-7.64ZM245.33.02v21.4c0-.76-2.76-3.06-5.74-4.57-1.98-1.02-4.06-1.53-5.49-1.53-3.51,0-4.8,4.76-4.82,6.09V.06c.02.78,2.78,3.06,5.74,4.57,1.98,1.02,4.06,1.53,5.49,1.53,3.55,0,4.82-4.84,4.82-6.11V.02ZM194.96,10.72c0-3.39,2.57-6.13,5.74-6.13.39,0,.78.04,1.14.12-1.8-2.84-4.86-4.72-8.33-4.72-5.55,0-10.05,4.8-10.05,10.72s4.49,10.72,10.05,10.72h.78c.14,0,.27-.02.41-.04.06,0,.14,0,.2-.02.14,0,.27-.04.39-.06.06,0,.12-.02.18-.04.18-.04.37-.08.55-.12.18-.04.37-.1.55-.16.06,0,.1-.04.16-.06.12-.04.25-.1.37-.14.06-.02.12-.04.18-.08.12-.06.25-.1.37-.16.06-.02.1-.04.16-.08.16-.08.33-.16.49-.27.16-.1.33-.2.49-.31.04-.02.08-.06.14-.1.12-.08.22-.16.33-.25.04-.04.1-.08.14-.12.1-.08.2-.16.31-.25.04-.04.08-.06.12-.1.14-.12.29-.25.41-.39.14-.14.27-.27.41-.41.04-.04.06-.08.1-.12.1-.1.18-.2.29-.33.04-.04.08-.1.12-.14.08-.1.16-.22.24-.33.04-.04.06-.08.1-.12.1-.16.22-.31.33-.47,1.08-1.72,1.72-3.78,1.72-6h-8.62l.02-.04ZM198.53,16.4c-2.04-.88-3.47-2.98-3.57-5.45,2.06.65,3.57,2.72,3.57,5.13v.33ZM95.37.78c-5.49,0-9.92,4.45-9.92,9.92s4.45,9.92,9.92,9.92,9.92-4.45,9.92-9.92S100.84.78,95.37.78ZM95.37,12.76c-1.12,0-2.04-.92-2.04-2.04s.92-2.04,2.04-2.04,2.04.92,2.04,2.04-.92,2.04-2.04,2.04ZM48.19.78c-5.49,0-9.92,4.45-9.92,9.92s4.45,9.92,9.92,9.92,9.92-4.45,9.92-9.92S53.67.78,48.19.78ZM48.19,12.76c-1.12,0-2.04-.92-2.04-2.04s.92-2.04,2.04-2.04,2.04.92,2.04,2.04-.92,2.04-2.04,2.04ZM80.95.02v21.38c0-2.96-2.06-5.37-4.59-5.37s-4.37,2.61-4.57,5.37c-.2-2.76-2.16-5.37-4.57-5.37-2.53,0-4.59,2.41-4.59,5.37V.02c1.86,3.66,5.27,6.09,9.17,6.09S79.09,3.66,80.95.02ZM109.9,21.42v-12.23c4.25-.22,4.25-8.94,0-9.17h10.7c.73,0,1.49.18,2.14.53,4.17,2.23,2.65,8.58-2.14,8.64h-4.57c0,5.7,3.9,10.86,9.17,12.23h-15.29ZM138.88.78c-5.49,0-9.92,4.45-9.92,9.92s4.45,9.92,9.92,9.92,9.92-4.45,9.92-9.92-4.45-9.92-9.92-9.92ZM138.88,12.76c-1.12,0-2.04-.92-2.04-2.04s.92-2.04,2.04-2.04,2.04.92,2.04,2.04-.92,2.04-2.04,2.04ZM207.13,166.85c-1.59,2.49-4.27,4.15-7.31,4.15-4.88,0-8.82-4.21-8.82-9.41s3.96-9.41,8.82-9.41c3.04,0,5.72,1.63,7.31,4.15-.33-.06-.65-.1-1-.1-2.78,0-5.04,2.41-5.04,5.37s2.27,5.37,5.04,5.37c.35,0,.67-.04,1-.1ZM225.55,152.15h0v18.83c-.71-3.08-3.57-5.37-6.98-5.37s-6.27,2.31-6.98,5.37v-18.83c.71,3.08,3.57,5.37,6.98,5.37s6.27-2.31,6.98-5.37ZM287.64,170.98h-14.8v-18.83c2.1,8.7,7.66,14.97,14.8,18.83ZM259.73,152.83c-4.82,0-8.74,3.92-8.74,8.74s3.92,8.74,8.74,8.74,8.74-3.92,8.74-8.74-3.92-8.74-8.74-8.74ZM259.73,163.38c-1,0-1.8-.8-1.8-1.8s.8-1.8,1.8-1.8,1.8.8,1.8,1.8-.8,1.8-1.8,1.8ZM238.72,152.83c-4.82,0-8.74,3.92-8.74,8.74s3.92,8.74,8.74,8.74,8.74-3.92,8.74-8.74-3.92-8.74-8.74-8.74ZM238.72,163.38c-1,0-1.8-.8-1.8-1.8s.8-1.8,1.8-1.8,1.8.8,1.8,1.8-.8,1.8-1.8,1.8ZM183.56,170.98h-7.45c1.06-1.18,1.71-2.84,1.71-4.68,0-.55-.06-1.1-.16-1.61-.33-1.51-1.23-2.76-2.37-3.51-.9-.59-2.23-1.88-2.23-4.29,0-2.59,1.8-4.7,4-4.7h7.43c-1.06,1.2-1.71,2.86-1.71,4.7,0,.55.06,1.1.16,1.61.33,1.51,1.23,2.76,2.37,3.51.9.59,2.23,1.88,2.23,4.29,0,2.59-1.8,4.7-4,4.7M119.73,152.15l-8.74,18.83c2.53-1.69,5.53-2.7,8.74-2.7s6.21.98,8.74,2.7l-8.74-18.83ZM119.73,161.57c-.73,0-1.35-.59-1.35-1.35s.59-1.35,1.35-1.35,1.35.59,1.35,1.35-.59,1.35-1.35,1.35ZM107.58,152.15v18.83c0-2.61-1.82-4.72-4.04-4.72s-3.86,2.31-4.02,4.72c-.18-2.41-1.92-4.72-4.02-4.72-2.23,0-4.04,2.12-4.04,4.72v-18.83c1.63,3.21,4.64,5.37,8.07,5.37s6.43-2.14,8.07-5.37ZM164.12,152.15c-1.96,2.14-3.39,4.53-4.66,6.96-1.84,3.55-3.1,7.29-3.37,11.19l-.04.65-.04-.65c-.27-3.9-1.53-7.66-3.37-11.19-1.27-2.45-2.72-4.82-4.66-6.96,0,0,3.23,1.84,8.07,1.82,4.84.02,8.07-1.82,8.07-1.82ZM55.77,170.98v-10.76c3.74-.2,3.74-7.86,0-8.07h9.41c.65,0,1.31.16,1.88.47,3.68,1.96,2.35,7.56-1.88,7.6h-4.04c0,5.02,3.43,9.56,8.07,10.76h-13.46.02ZM73.52,170.98s4.59-2.41,4.59-9.41-4.59-9.41-4.59-9.41h13.46s-4.59,2.41-4.59,9.41,4.59,9.41,4.59,9.41h-13.46ZM48.46,160.2c1.98-.25,3.53-1.94,3.53-4,0-2.23-1.8-4.04-4.04-4.04h-9.41c1.49,0,2.7,1.8,2.7,4.04s-1.2,4.04-2.7,4.04v10.76c.08-3.53,1.84-6.68,4.53-8.66,1.41-1.04,3.06-1.76,4.88-2.06.04,0,.51-.08.51-.08ZM131.88,170.98v-10.76c3.74-.2,3.74-7.86,0-8.07h9.41c.65,0,1.31.16,1.88.47,3.68,1.96,2.35,7.56-1.88,7.6h-4.04c0,5.02,3.43,9.56,8.07,10.76h-13.46.02Z"/></clipPath><linearGradient id="_名称未設定グラデーション_5" x1="-2578.93" y1="13515.47" x2="-2003.37" y2="13287.05" gradientTransform="translate(2436.38 13509.84) scale(1 -1)" gradientUnits="userSpaceOnUse"><stop offset="0" stop-color="#99c043"/><stop offset=".12" stop-color="#98c045"/><stop offset=".27" stop-color="#95c04e"/><stop offset=".45" stop-color="#91c061"/><stop offset=".64" stop-color="#8ac07f"/><stop offset=".85" stop-color="#83c1a9"/><stop offset="1" stop-color="#7fc2d0"/></linearGradient></defs><g class="cls-7"><g class="cls-4"><rect class="cls-3" x="-158.09" y="-17.19" width="490.29" height="205.37"/></g><path class="cls-6" d="M259.48,131.1c0,5.04-4.08,9.11-9.11,9.11h-13.68c2.72-1.82,4.55-5.23,4.55-9.11s-1.84-7.29-4.55-9.11c1.37-1.37,2.27-3.92,2.27-6.84s-.92-5.47-2.29-6.84h13.68c3.78,0,6.84,3.06,6.84,6.84s-3.06,6.84-6.84,6.84c5.04,0,9.11,4.08,9.11,9.11h.02Z"/><path class="cls-5" d="M221.22,132c0,4.29,3.57,7.74,7.98,7.74h-22.79v-31h22.79c-4.41,0-7.98,3.47-7.98,7.74s3.57,7.74,7.98,7.74c-4.41,0-7.98,3.47-7.98,7.74v.04Z"/><path class="cls-6" d="M63.59,140.21c-3.66-2.86-8.19-4.55-13.09-4.55s-8.31,1.69-11.99,4.53v-31.88c3.66,2.86,7.09,4.53,11.99,4.53s9.41-1.69,13.09-4.55c-3.66,4.19-6.53,9.78-6.53,15.95s2.88,11.76,6.53,15.95v.02Z"/><path class="cls-2" d="M131.06,108.31v31.9c0-4.41-3.06-8-6.84-8s-6.53,3.9-6.82,8c-.31-4.1-3.25-8-6.82-8-3.78,0-6.84,3.57-6.84,8v-31.9c2.78,5.45,7.86,9.09,13.68,9.09s10.9-3.66,13.68-9.09h-.04Z"/><path class="cls-2" d="M175.78,140.21v-18.24c6.33-.35,6.33-13.33,0-13.68h15.95c1.1,0,2.21.27,3.19.8,6.21,3.33,3.96,12.8-3.19,12.89h-6.84c0,8.49,5.82,16.21,13.68,18.24h-22.79Z"/><path class="cls-6" d="M153.13,109.43c-8.19,0-14.8,6.64-14.8,14.8s6.64,14.8,14.8,14.8,14.8-6.64,14.8-14.8-6.64-14.8-14.8-14.8ZM153.13,127.3c-1.69,0-3.04-1.37-3.04-3.04s1.37-3.04,3.04-3.04,3.04,1.37,3.04,3.04-1.37,3.04-3.04,3.04Z"/><path class="cls-5" d="M81.62,109.43c-8.19,0-14.8,6.64-14.8,14.8s6.64,14.8,14.8,14.8,14.8-6.64,14.8-14.8-6.64-14.8-14.8-14.8ZM81.62,127.3c-1.69,0-3.04-1.37-3.04-3.04s1.37-3.04,3.04-3.04,3.04,1.37,3.04,3.04-1.37,3.04-3.04,3.04Z"/><path class="cls-2" d="M264.94,140.21s7.78-4.08,7.78-15.95-7.78-15.95-7.78-15.95h22.79s-7.78,4.08-7.78,15.95,7.78,15.95,7.78,15.95h-22.79Z"/><path class="cls-6" d="M214.95,88.44c0-3.84,3.12-6.96,6.96-6.96h-14.44c-3.86,0-7-3.12-7-7h0v-13.01c.02-11.54-9.33-20.91-20.87-20.91h0v-4.59c0-3.84-3.1-6.94-6.94-6.94s-6.94,3.1-6.94,6.94v4.59h-10.92c3.88,0,7.02,3.14,7.02,7.02s-3.14,7.02-7.02,7.02h10.92v43.09c0-3.84,3.1-6.94,6.94-6.94s6.94,3.1,6.94,6.94v-43.25h0c3.86,0,7,3.14,7,7v13.01h0c-.02,11.54,9.33,20.91,20.87,20.91h14.44c-3.84,0-6.96-3.12-6.96-6.96v.04Z"/><path class="cls-5" d="M38.54,54.5c4.61,0,8.37-3.74,8.37-8.37s-3.74-8.37-8.37-8.37h43.41c4.61,0,8.37,3.74,8.37,8.37s-3.74,8.37-8.37,8.37h-43.41Z"/><path class="cls-5" d="M81.95,97.18c4.61,0,8.37-3.74,8.37-8.37s-3.74-8.37-8.37-8.37h-43.41c4.61,0,8.37,3.74,8.37,8.37s-3.74,8.37-8.37,8.37h43.41Z"/><path class="cls-2" d="M152.09,62.45c0,3.84-3.1,6.94-6.94,6.94s-6.94-3.1-6.94-6.94v14.36c0,3.86-3.14,7-7,7s-7-3.14-7-7v-1.55h1.63c3.88,0,7.02-3.14,7.02-7.02s-3.14-7.02-7.02-7.02h-1.63v-6.58h1.63c3.88,0,7.02-3.14,7.02-7.02s-3.14-7.02-7.02-7.02h-1.63v-4.59c0-3.84-3.1-6.94-6.94-6.94s-6.94,3.1-6.94,6.94v4.59h-10.54c3.88,0,7.02,3.14,7.02,7.02s-3.14,7.02-7.02,7.02h10.54v6.58h-10.54c3.88,0,7.02,3.14,7.02,7.02s-3.14,7.02-7.02,7.02h10.54v1.59c0,11.54,9.35,20.87,20.87,20.87s20.87-9.35,20.87-20.87h0v-14.4h.04Z"/><path class="cls-2" d="M284.74,58.99c-1.65,0-3-1.35-3-3v11.09c0,1.65,1.35,3,3,3s3-1.35,3-3v-11.09c0,1.65-1.35,3-3,3Z"/><path class="cls-2" d="M275.76,58.99c-1.65,0-3-1.35-3-3v11.09c0,1.65,1.35,3,3,3s3-1.35,3-3v-11.09c0,1.65-1.35,3-3,3Z"/><path class="cls-2" d="M281.25,37.43h-6.96c-11.54,0-20.89,9.37-20.87,20.91h0v17.58c0,3.86-3.14,7-7,7s-7-3.14-7-7v-17.58h0c.02-11.54-9.33-20.91-20.87-20.91h-6.96c3.84,0,6.94,3.1,6.96,6.92v.04c0,3.84-3.12,6.92-6.96,6.92h6.96c3.86,0,7,3.14,7,7h0v17.62c0,11.54,9.35,20.87,20.87,20.87s20.87-9.35,20.87-20.87v-17.62h0c0-3.86,3.14-7,7-7h6.96c-3.84,0-6.94-3.1-6.96-6.92v-.04c0-3.84,3.12-6.92,6.96-6.92Z"/></g></svg>