<?xml version="1.0" encoding="UTF-8"?><svg id="_レイヤー_1" xmlns="http://www.w3.org/2000/svg" viewBox="0 0 343.5 25.48"><defs><style>.cls-1{fill:red;stroke:#1f1815;stroke-miterlimit:10;stroke-width:.75px;}</style></defs><path d="M101.93,7.32c-.88-3.75-3.36-5.6-7.56-5.6-6.06,0-10.29,4.55-10.29,11.1s4.27,11.27,10.29,11.27c2.91,0,5.25-1.02,6.55-2.8.63-.88,1.01-1.82,1.4-3.36l1.09.07-.88,5.57c-3.19,1.37-5.78,1.93-8.61,1.93-7.77,0-13.06-5.04-13.06-12.43S86.39.32,93.81.32c2.31,0,4.52.42,8.58,1.61l.6,5.21-1.05.18Z"/><path d="M133.64,13.02c0,7.07-5.53,12.46-12.81,12.46s-12.6-5.39-12.6-12.64S113.76.32,121.28.32c7,0,12.36,5.5,12.36,12.71ZM111.41,12.5c0,6.75,4.17,11.76,9.77,11.76s9.35-4.55,9.35-10.71c0-2.98-.88-5.92-2.38-8.09-1.79-2.56-4.27-3.85-7.39-3.85-5.36,0-9.35,4.66-9.35,10.89Z"/><path d="M138.47.7c1.29.11,1.92.14,2.91.14s1.65-.04,2.87-.14l14.91,19.43v-8.93c0-5.42-.14-7.67-.53-8.4-.38-.7-1.05-.98-2.66-1.02V.7c1.22.14,2.13.17,3.57.17s2.59-.03,4.03-.17v1.08c-2.38.04-2.87.67-2.91,3.78l-.04,2.21-.04,1.68-.14,16.24h-.39l-17.22-22.05.11,12.11c.04,5.5.14,7.04.53,7.42.42.63,1.08.88,2.24.88h.31v1.05c-1.92-.14-2.8-.17-3.78-.17-1.08,0-1.61.04-3.78.17v-1.05c2.73-.04,2.87-.42,2.94-6.58l.17-10.57v-.6c0-2.62-.07-3.22-.49-3.75-.42-.49-1.26-.74-2.62-.77V.7Z"/><path d="M168.88,0c1.12.7,2.38.84,6.76.84,8.19,0,9.73-.11,11.38-.84h.59c-.59,2.1-1.05,3.92-1.26,5.18h-1.05c.07-.49.1-.77.1-1.12,0-1.5-.59-1.89-2.87-1.89h-4.1v16.98q.07,3.82.63,4.31c.39.35,1.16.52,2.14.52h.35v1.12c-2.03-.14-3.04-.17-4.24-.17s-1.71.04-4.66.17v-1.12h.21c.98,0,1.75-.17,2.13-.52q.56-.49.63-4.31V2.17h-2.49c-3.5,0-4.41.49-5.43,3.01h-1.05c.59-1.54.98-2.76,1.58-5.18h.63Z"/><path d="M195.87,19.01c-.67,1.82-1.05,3.22-1.05,3.71,0,.84.7,1.19,2.35,1.26v1.12c-1.58-.14-2.42-.17-3.82-.17s-2.17.04-3.5.17v-1.12c1.33-.07,1.86-.28,2.35-.88.53-.77.59-.91,3.22-7.35l2.8-7.32c.53-1.4,1.08-2.84,1.65-4.34.49-1.23.59-1.47,1.22-3.19l1.86-.88.21.63c.25.84.49,1.68.77,2.52.21.7.42,1.37.67,2.03l3.92,11.83c2.21,6.55,2.31,6.72,4.87,6.93v1.12c-1.79-.14-2.76-.17-3.96-.17-1.33,0-1.92.04-4.41.17v-1.12c1.64-.07,2.31-.38,2.31-1.08,0-.38-.28-1.5-.59-2.55l-1.71-5.25h-7.74l-1.4,3.92ZM204.58,13.79l-3.22-10.01-3.61,10.01h6.83Z"/><path d="M237.97,7.32c-.88-3.75-3.36-5.6-7.56-5.6-6.06,0-10.29,4.55-10.29,11.1s4.27,11.27,10.29,11.27c2.91,0,5.25-1.02,6.55-2.8.63-.88,1.01-1.82,1.4-3.36l1.08.07-.88,5.57c-3.18,1.37-5.78,1.93-8.61,1.93-7.77,0-13.06-5.04-13.06-12.43S222.43.32,229.85.32c2.31,0,4.52.42,8.58,1.61l.59,5.21-1.05.18Z"/><path d="M245.22,0c1.12.7,2.38.84,6.76.84,8.19,0,9.73-.11,11.38-.84h.59c-.59,2.1-1.05,3.92-1.26,5.18h-1.05c.07-.49.1-.77.1-1.12,0-1.5-.59-1.89-2.87-1.89h-4.1v16.98q.07,3.82.63,4.31c.39.35,1.16.52,2.14.52h.35v1.12c-2.03-.14-3.04-.17-4.24-.17s-1.71.04-4.66.17v-1.12h.21c.98,0,1.75-.17,2.13-.52q.56-.49.63-4.31V2.17h-2.49c-3.5,0-4.41.49-5.43,3.01h-1.05c.59-1.54.98-2.76,1.58-5.18h.63Z"/><line class="cls-1" x1="343.5" y1="10.45" x2="276.48" y2="10.45"/><line class="cls-1" x1="65.14" y1="10.45" y2="10.45"/></svg>