<?xml version="1.0" encoding="UTF-8"?><svg id="_レイヤー_1" xmlns="http://www.w3.org/2000/svg" viewBox="0 0 343.5 26.07"><path d="M87.61,10.56h-.36l1.54-1.34,2.35,2.24c-.11.13-.26.22-.45.27-.19.05-.47.08-.84.1-1.83,3.47-4.42,6.43-7.78,8.88-3.36,2.45-7.66,4.22-12.91,5.32l-.2-.45c3.02-.93,5.76-2.13,8.22-3.58,2.46-1.46,4.56-3.15,6.33-5.07,1.76-1.92,3.13-4.04,4.1-6.36ZM69.44,4.87h20.58l1.54-1.96c.39.3.74.56,1.04.8.3.23.61.49.94.76.33.27.63.53.91.77-.08.3-.33.45-.76.45h-24.02l-.22-.81ZM71.26,10.56h17.47v.81h-17.22l-.25-.81ZM76.13,10.75c.73,1.79,1.72,3.4,2.97,4.83,1.25,1.43,2.71,2.67,4.37,3.74s3.47,1.96,5.42,2.67c1.95.72,3.97,1.29,6.06,1.72l-.03.31c-.52.07-.98.28-1.36.6-.38.33-.67.77-.85,1.33-2.71-.77-5.18-1.8-7.42-3.09-2.24-1.3-4.18-2.92-5.81-4.87-1.63-1.95-2.9-4.26-3.79-6.93l.45-.31ZM80.67.2l3.33.31c-.02.21-.11.38-.27.52-.16.14-.42.24-.77.29v9.66h-2.3V.2Z"/><path d="M99.15,14.64c.52-.17,1.28-.44,2.28-.83,1-.38,2.14-.83,3.42-1.33,1.28-.5,2.58-1.04,3.91-1.6l.14.36c-.88.63-1.98,1.4-3.32,2.31-1.33.91-2.89,1.91-4.66,3.01-.09.37-.28.63-.56.76l-1.2-2.69ZM107.35,4.87c.52.45.96.84,1.3,1.16.34.33.65.64.91.94-.06.3-.3.45-.73.45h-9.27l-.22-.84h6.78l1.23-1.71ZM106.29.53c-.02.19-.11.35-.27.48-.16.13-.42.22-.77.28v21.56c0,.58-.07,1.09-.2,1.53-.13.44-.41.79-.84,1.05-.43.26-1.11.44-2.04.53-.02-.37-.07-.7-.15-.99s-.22-.53-.41-.71c-.19-.21-.45-.38-.78-.52-.34-.14-.78-.26-1.34-.35v-.42c.5.04.94.07,1.3.08.36.02.7.04,1.02.06.32.02.54.03.67.03.24,0,.41-.04.49-.11.08-.07.13-.21.13-.39V.17l3.19.36ZM114.97,9.35c-.28,2.31-.77,4.48-1.46,6.5-.69,2.02-1.67,3.85-2.94,5.49-1.27,1.64-2.91,3.08-4.93,4.31l-.28-.34c1.61-1.36,2.91-2.88,3.92-4.55,1.01-1.67,1.77-3.46,2.3-5.38.52-1.91.87-3.92,1.04-6.03h2.35ZM122.72,11.14c.56.43,1.03.81,1.4,1.13s.72.64,1.04.94c-.07.3-.33.45-.76.45h-16.66l-.22-.84h13.86l1.34-1.68ZM119.5,15.82l1.34-1.23,2.16,1.99c-.19.21-.58.33-1.18.36-1.12,2.33-2.77,4.26-4.94,5.78-2.17,1.52-5.01,2.64-8.5,3.35l-.2-.45c3.04-.91,5.53-2.19,7.48-3.82s3.31-3.63,4.12-5.98h-.28ZM121.71,7.64c.52.43.97.79,1.33,1.09.36.3.7.59.99.87-.06.3-.3.45-.73.45h-14.28l-.22-.81h11.62l1.29-1.6ZM123.53,2.52c-.15.13-.35.19-.62.18-.26,0-.57-.09-.92-.24-1.08.21-2.34.39-3.78.56-1.44.17-2.94.29-4.49.38-1.56.08-3.1.12-4.63.1l-.06-.45c1.06-.13,2.17-.29,3.32-.49,1.15-.2,2.27-.42,3.36-.69,1.09-.26,2.11-.53,3.07-.81.95-.28,1.76-.56,2.44-.84l2.32,2.3ZM109.76,4.28c.86.35,1.54.74,2.04,1.15.5.41.86.82,1.08,1.22.21.4.32.77.31,1.09,0,.33-.1.59-.27.8-.17.21-.38.31-.64.32-.26,0-.54-.1-.84-.32-.08-.45-.22-.92-.45-1.41-.22-.49-.47-.98-.74-1.44-.27-.47-.55-.88-.83-1.23l.34-.17ZM120.76,15.82v.81h-8.4l.39-.81h8.01ZM113.2,15.88c.62,1.48,1.51,2.74,2.69,3.79,1.18,1.06,2.55,1.91,4.12,2.58,1.57.66,3.26,1.16,5.07,1.5v.31c-.92.19-1.51.81-1.79,1.88-1.75-.56-3.32-1.27-4.69-2.13-1.37-.86-2.55-1.92-3.53-3.18-.98-1.26-1.75-2.77-2.31-4.52l.45-.22ZM114.04,3.67c.84.41,1.49.85,1.96,1.3.47.46.79.9.98,1.32s.26.8.22,1.15c-.04.35-.15.62-.35.83-.2.21-.43.31-.7.31s-.56-.13-.85-.39c-.04-.73-.22-1.49-.55-2.3-.33-.8-.68-1.49-1.05-2.07l.34-.14ZM123.11,4.31c-.06.13-.17.25-.34.35-.17.1-.4.15-.7.13-.56.86-1.16,1.73-1.81,2.62-.64.89-1.28,1.66-1.92,2.31l-.39-.25c.22-.52.46-1.13.71-1.82.25-.69.51-1.42.78-2.18.27-.77.52-1.51.74-2.24l2.91,1.09Z"/><path d="M143.02,1.88c-.67,1.01-1.51,2.03-2.52,3.07-1.01,1.04-2.12,2.04-3.35,3.02s-2.5,1.88-3.84,2.7c-1.33.82-2.67,1.52-4.02,2.1l-.17-.36c1.16-.69,2.35-1.54,3.58-2.53,1.23-1,2.4-2.07,3.5-3.22,1.1-1.15,2.06-2.3,2.88-3.44s1.41-2.22,1.76-3.21l3.86.95c-.04.17-.15.29-.34.38s-.48.15-.87.18c.63.86,1.4,1.67,2.3,2.44.9.77,1.88,1.47,2.94,2.13,1.06.65,2.17,1.25,3.33,1.79,1.16.54,2.32,1.03,3.5,1.46l-.03.42c-.34.07-.65.22-.94.43-.29.21-.53.46-.71.74-.19.28-.31.57-.36.87-1.47-.75-2.89-1.63-4.26-2.65-1.36-1.02-2.59-2.14-3.67-3.37-1.08-1.23-1.95-2.53-2.6-3.89ZM129.86,24.33h20.61l1.57-2.02c.37.3.71.57,1.02.81.31.24.63.5.97.77.34.27.64.53.92.77-.07.3-.35.45-.81.45h-24.02l-.25-.78ZM131.21,14.92h18.28l1.51-1.85c.35.28.67.53.95.76.28.22.58.46.9.71.32.25.61.49.87.71-.08.3-.33.45-.76.45h-21.5l-.25-.78ZM134.57,16.86c1.03.54,1.83,1.11,2.41,1.69.58.59.98,1.16,1.2,1.71.22.55.32,1.05.28,1.48-.04.44-.17.78-.39,1.04-.22.25-.5.38-.83.38s-.67-.17-1.02-.5c-.02-.62-.13-1.26-.34-1.95-.21-.68-.46-1.34-.76-1.99-.3-.64-.6-1.22-.9-1.72l.34-.14ZM135.32,9.74h9.77l1.37-1.68c.58.43,1.07.8,1.47,1.12.4.32.77.62,1.11.9-.08.3-.33.45-.76.45h-12.74l-.22-.78ZM141.01,10h2.3v14.73h-2.3v-14.73ZM147.87,16.69l3.22,1.26c-.08.15-.2.27-.38.36-.18.09-.41.13-.69.11-.65.91-1.37,1.82-2.16,2.7-.78.89-1.54,1.65-2.27,2.28l-.39-.25c.26-.52.55-1.14.87-1.85.32-.71.63-1.47.94-2.27.31-.8.59-1.59.85-2.35Z"/><path d="M170.77,13.8c-.73,1.12-1.6,2.19-2.62,3.22-1.02,1.03-2.21,1.96-3.57,2.79-1.36.83-2.95,1.5-4.76,2l-.25-.39c2.35-1.08,4.27-2.4,5.77-3.96,1.49-1.56,2.6-3.19,3.33-4.89l3.3.76c-.06.15-.17.27-.35.35-.18.08-.46.13-.85.13ZM159.76,15.32h21.67l1.4-1.65c.58.43,1.07.8,1.47,1.12s.76.62,1.08.9c-.06.3-.31.45-.76.45h-24.61l-.25-.81ZM159.79,3.14h7.81V.25l3.16.28c-.02.19-.1.35-.24.49-.14.14-.39.23-.74.27v1.85h5.4V.25l3.22.28c-.02.19-.1.35-.25.49-.15.14-.4.23-.76.27v1.85h4l1.43-1.76c.56.47,1.04.86,1.44,1.19.4.33.75.64,1.05.94-.06.3-.3.45-.73.45h-7.2v1.62c0,.09-.17.21-.52.34-.35.13-.78.2-1.3.2h-.39v-2.16h-5.4v1.74c0,.09-.19.21-.57.34-.38.13-.8.2-1.25.2h-.36v-2.27h-7.64l-.17-.81ZM170.94,16.44l3.28.59c-.06.19-.17.33-.34.43-.17.1-.4.16-.7.18-.21.92-.53,1.8-.98,2.65-.45.85-1.09,1.63-1.93,2.35-.84.72-1.93,1.36-3.28,1.93-1.34.57-3,1.05-4.96,1.44l-.17-.39c1.72-.5,3.14-1.08,4.27-1.74,1.13-.65,2.03-1.38,2.69-2.17.66-.79,1.16-1.63,1.48-2.52s.54-1.81.63-2.76ZM164.64,6.44v-.98l2.38.98h13.22v.84h-13.38v6.36c0,.07-.09.17-.28.28-.19.11-.42.21-.71.29-.29.08-.58.13-.88.13h-.34v-7.9ZM165.22,18.98h13.33v.81h-13.1l-.22-.81ZM165.42,9.46h14.31v.78h-14.31v-.78ZM165.42,12.46h14.31v.81h-14.31v-.81ZM177.38,18.98h-.28l1.12-1.12,2.24,1.79c-.08.11-.2.2-.38.27-.18.07-.41.12-.69.15-.15,1.34-.39,2.46-.71,3.36s-.76,1.52-1.3,1.88c-.34.22-.74.4-1.22.52-.48.12-.99.18-1.55.18,0-.3-.03-.58-.1-.84-.07-.26-.2-.46-.41-.59-.21-.17-.53-.31-.98-.43s-.92-.22-1.43-.29v-.48c.37.04.8.07,1.27.11.48.04.92.07,1.34.1.42.03.72.04.91.04.41,0,.72-.07.92-.2.26-.21.5-.7.71-1.48.21-.78.39-1.77.52-2.97ZM176.51,15.32c.6.69,1.4,1.32,2.41,1.89,1.01.57,2.1,1.05,3.29,1.46,1.18.4,2.35.71,3.49.91l-.03.34c-.39.07-.72.27-.99.59-.27.32-.46.72-.57,1.2-1.1-.41-2.17-.91-3.19-1.51-1.03-.6-1.96-1.28-2.79-2.06-.83-.77-1.51-1.64-2.03-2.59l.42-.22ZM178.38,6.44h-.28l1.15-1.2,2.41,1.85c-.08.09-.21.19-.41.29-.2.1-.42.17-.66.21v5.88c0,.07-.1.17-.31.28-.21.11-.45.21-.74.31-.29.09-.56.14-.83.14h-.34v-7.76Z"/><path d="M199.36,17.5h2.97v.45c-1.42,1.7-3.28,3.17-5.57,4.41-2.3,1.24-4.81,2.24-7.53,2.98l-.22-.42c1.44-.58,2.8-1.26,4.1-2.04,1.3-.78,2.48-1.64,3.56-2.56,1.07-.92,1.97-1.86,2.7-2.81ZM195.61.06l3.05,1.48c-.07.13-.21.24-.39.34-.19.09-.44.11-.76.06-1.08,1.72-2.33,3.23-3.74,4.54s-2.86,2.37-4.35,3.19l-.31-.31c.77-.69,1.54-1.52,2.34-2.48.79-.96,1.55-2.02,2.27-3.19.72-1.17,1.35-2.38,1.89-3.63ZM189.42,17.5h21.59l1.46-1.85c.35.3.67.56.95.78.28.22.57.46.88.71.31.25.59.5.85.74-.06.3-.31.45-.76.45h-24.72l-.25-.84ZM195.72,4.09v11.45c0,.09-.16.24-.49.43-.33.2-.77.29-1.33.29h-.39V4.87l.98-1.43,1.6.64h-.36ZM195.05,7.34h13.44l1.32-1.62c.56.43,1.03.8,1.4,1.11.37.31.71.6,1.01.88-.08.3-.32.45-.73.45h-16.44v-.81ZM195.05,10.58h13.44l1.32-1.62c.56.43,1.03.8,1.4,1.11.37.31.71.61,1.01.91-.08.3-.32.45-.73.45h-16.44v-.84ZM195.05,13.97h14.2l1.43-1.76c.35.26.67.5.94.71s.56.45.85.7c.3.25.58.49.84.71-.08.3-.33.45-.76.45h-17.5v-.81ZM195.1,4.09h13.86l1.4-1.79c.34.28.64.53.91.74.27.21.55.45.84.7s.56.49.8.71c-.07.3-.32.45-.73.45h-17.08v-.81ZM201.07,15.2l3.22.31c-.02.19-.09.34-.22.46-.13.12-.36.21-.7.27v9.13c0,.07-.1.17-.29.28-.2.11-.43.21-.71.28-.28.07-.57.11-.87.11h-.42v-10.84ZM201.29,4.09h2.3v10.19h-2.3V4.09ZM202.83.22l3.3,1.29c-.08.15-.2.26-.38.34-.18.07-.42.1-.71.08-.41.37-.9.78-1.47,1.23-.57.45-1.15.86-1.75,1.23h-.5c.28-.58.56-1.26.84-2.04.28-.78.5-1.49.67-2.13ZM203.5,17.5c.62.65,1.38,1.27,2.3,1.83.91.57,1.91,1.09,3,1.55,1.08.47,2.2.86,3.35,1.19,1.15.33,2.25.59,3.32.8l-.03.31c-.45.09-.84.31-1.18.66s-.56.8-.67,1.36c-1.42-.47-2.78-1.06-4.09-1.79s-2.51-1.56-3.61-2.51c-1.1-.94-2.03-1.98-2.77-3.12l.39-.28Z"/><path d="M219.01,15.26h21.67l1.48-1.82c.37.28.7.53.98.76.28.22.58.46.9.71s.61.49.87.71c-.07.3-.34.45-.78.45h-24.86l-.25-.81ZM235.98,15.26h2.55v.45c-.49,1.36-1.09,2.57-1.81,3.61-.72,1.05-1.59,1.95-2.62,2.72-1.03.77-2.24,1.41-3.64,1.93-1.4.52-3.03.95-4.9,1.27-1.87.33-4,.58-6.38.77l-.08-.48c3.29-.49,6.07-1.12,8.36-1.92,2.29-.79,4.12-1.86,5.52-3.19,1.39-1.33,2.39-3.06,3.01-5.17ZM219.27,1.93h21.25l1.48-1.71c.6.43,1.11.81,1.53,1.13.42.33.8.64,1.13.94-.06.3-.31.45-.76.45h-24.42l-.22-.81ZM221.95,5.63v-1.04l2.41,1.04h16.6v.78h-16.8v6.22c0,.08-.09.16-.28.27-.19.1-.42.2-.71.29-.29.09-.58.14-.88.14h-.34v-7.7ZM229.43,11.65l3.16.76c-.06.19-.18.33-.36.43-.19.1-.47.15-.84.15-.3.49-.71,1.11-1.22,1.86-.51.76-1.07,1.55-1.68,2.39-.61.84-1.21,1.66-1.81,2.46-.6.8-1.13,1.49-1.6,2.07-.32.06-.7.04-1.13-.04s-.85-.25-1.25-.49c.5-.58,1.08-1.3,1.74-2.16.65-.86,1.31-1.75,1.96-2.69.65-.93,1.25-1.82,1.79-2.67.54-.85.95-1.54,1.23-2.09ZM223.07,10.86h17.81v.81h-17.81v-.81ZM225.48,19.54c2.69.22,5.01.5,6.96.84,1.95.34,3.59.7,4.93,1.11,1.33.4,2.4.81,3.19,1.23.79.42,1.37.82,1.74,1.2.36.38.56.73.6,1.04.04.31-.05.56-.25.74-.21.19-.48.28-.81.28s-.69-.1-1.06-.31c-1.01-.69-2.25-1.37-3.71-2.03-1.47-.66-3.17-1.3-5.11-1.92-1.94-.62-4.13-1.18-6.58-1.68l.11-.5ZM227.83,1.93h2.16v9.32h-2.16V1.93ZM233.71,1.93h2.21v9.32h-2.21V1.93ZM239.68,5.63h-.28l1.18-1.29,2.52,1.9c-.09.11-.25.22-.46.34-.21.11-.45.2-.71.25v5.57c0,.06-.11.13-.34.22-.22.09-.48.18-.76.27s-.54.13-.78.13h-.36v-7.39Z"/><path d="M248.53,19.1c.58-.17,1.41-.44,2.49-.81,1.08-.37,2.31-.81,3.7-1.32,1.38-.5,2.79-1.04,4.23-1.6l.14.36c-.93.63-2.1,1.4-3.5,2.3-1.4.9-3.03,1.9-4.9,3.02-.04.15-.11.29-.21.43s-.23.24-.38.29l-1.57-2.69ZM248.69,4.37h6.75l1.37-1.79c.35.28.66.53.92.76.26.22.54.46.84.71.3.25.57.49.81.71-.07.3-.33.45-.76.45h-9.72l-.22-.84ZM252.64,4.37h2.32v13.52l-2.32.76V4.37ZM263.39,20.41l2.58,1.62c-.17.26-.49.3-.95.11-.67.52-1.53,1.05-2.58,1.57-1.04.52-2.16.98-3.33,1.39-1.18.4-2.32.72-3.44.97l-.25-.42c.97-.39,1.96-.88,2.98-1.46,1.02-.58,1.96-1.2,2.84-1.86.88-.66,1.6-1.3,2.16-1.92ZM258.18,2.3h12.46l1.46-1.85c.37.28.7.53.98.76s.57.46.88.71.58.49.83.71c-.06.3-.3.45-.73.45h-15.65l-.22-.78ZM260.03,6.22v-1.01l2.35,1.01h8.96v.84h-9.1v13.05c0,.07-.09.17-.27.29-.18.12-.41.23-.69.32-.28.09-.59.14-.92.14h-.34V6.22ZM261.32,10.3h9.77v.81h-9.77v-.81ZM261.32,14.45h9.77v.81h-9.77v-.81ZM261.32,18.62h9.77v.81h-9.77v-.81ZM264.85,2.3h2.97c-.39.73-.85,1.52-1.36,2.37-.51.85-1,1.54-1.47,2.09h-.62c.07-.37.14-.82.2-1.34.06-.52.11-1.06.15-1.62s.09-1.05.13-1.48ZM267.17,20.66c1.42.19,2.59.47,3.51.85.92.38,1.64.8,2.16,1.26s.85.91,1.02,1.34.2.82.1,1.15-.31.56-.63.69c-.32.13-.69.1-1.12-.08-.32-.58-.77-1.18-1.37-1.79-.6-.62-1.24-1.19-1.93-1.74-.69-.54-1.34-1.01-1.96-1.4l.22-.28ZM270.31,6.22h-.25l1.15-1.2,2.38,1.85c-.08.09-.21.19-.39.29-.19.1-.39.17-.62.21v12.43c0,.08-.11.17-.32.28s-.47.21-.76.29c-.29.08-.56.13-.83.13h-.36V6.22Z"/><rect x="289.59" y="13.85" width="53.91" height=".75"/><rect y="13.85" width="53.18" height=".75"/></svg>