<?xml version="1.0" encoding="UTF-8"?><svg id="_レイヤー_1" xmlns="http://www.w3.org/2000/svg" xmlns:xlink="http://www.w3.org/1999/xlink" viewBox="0 0 343.5 65.48"><defs><style>.cls-1{fill:none;}</style><clipPath id="clippath"><rect class="cls-1" x="556.04" y="-908.4" width="390" height="780.5"/></clipPath></defs><path d="M90.32,19.01c-.67,1.82-1.05,3.22-1.05,3.71,0,.84.7,1.19,2.34,1.26v1.12c-1.58-.14-2.42-.18-3.82-.18s-2.17.03-3.5.18v-1.12c1.33-.07,1.85-.28,2.34-.88.53-.77.6-.91,3.22-7.35l2.8-7.32c.53-1.4,1.09-2.84,1.65-4.34.49-1.23.59-1.47,1.23-3.19l1.85-.88.21.63c.25.84.49,1.68.77,2.52.21.7.42,1.37.67,2.03l3.92,11.83c2.21,6.55,2.31,6.72,4.87,6.93v1.12c-1.79-.14-2.77-.18-3.96-.18-1.33,0-1.92.03-4.41.18v-1.12c1.65-.07,2.31-.39,2.31-1.09,0-.39-.28-1.51-.6-2.56l-1.71-5.25h-7.74l-1.4,3.92ZM99.04,13.79l-3.22-10.01-3.61,10.01h6.83Z"/><path d="M131.73,7.32c-.88-3.75-3.36-5.6-7.56-5.6-6.06,0-10.29,4.55-10.29,11.1s4.27,11.27,10.29,11.27c2.91,0,5.25-1.02,6.55-2.8.63-.88,1.01-1.82,1.4-3.36l1.08.07-.88,5.57c-3.19,1.36-5.78,1.93-8.61,1.93-7.77,0-13.06-5.04-13.06-12.43S116.19.31,123.61.31c2.31,0,4.52.42,8.58,1.61l.6,5.22-1.05.18Z"/><path d="M138.97,0c1.12.7,2.38.84,6.75.84,8.19,0,9.73-.1,11.38-.84h.59c-.59,2.1-1.05,3.92-1.26,5.18h-1.05c.07-.49.11-.77.11-1.12,0-1.51-.6-1.89-2.87-1.89h-4.1v16.98q.07,3.82.63,4.31c.38.35,1.16.53,2.14.53h.35v1.12c-2.03-.14-3.04-.18-4.24-.18s-1.71.03-4.66.18v-1.12h.21c.98,0,1.75-.18,2.13-.53q.56-.49.63-4.31V2.17h-2.48c-3.5,0-4.41.49-5.43,3.01h-1.05c.6-1.54.98-2.77,1.58-5.18h.63Z"/><path d="M161.55.7c1.75.14,2.66.17,4.31.17s2.55-.03,4.52-.17v1.08h-.28c-.98,0-1.75.21-2.14.56q-.56.49-.63,4.31v12.5q.07,3.82.63,4.31c.39.35,1.16.53,2.14.53h.28v1.12c-2.7-.14-3.54-.18-4.76-.18s-2.24.03-4.06.18v-1.12h.28c.98,0,1.75-.18,2.13-.53q.56-.49.63-4.31V6.65q-.07-3.82-.63-4.31c-.38-.35-1.16-.56-2.13-.56h-.28V.7Z"/><path d="M191.82,6.58c.7-1.75,1.05-2.91,1.05-3.47,0-.91-.53-1.23-2.28-1.33V.7c1.37.14,2.38.17,3.78.17s2.13-.03,3.29-.17v1.08c-2.34.1-2.77.6-4.69,5.78l-4.48,11.13c-.32.77-.63,1.54-.95,2.35-.91,2.35-1.43,3.75-1.61,4.17h-.49c-.49-1.47-1.05-2.94-2.14-5.64l-4.24-10.71c-2.03-5.08-2.21-5.46-2.59-5.95-.56-.7-1.3-1.05-2.42-1.12V.7c2.21.14,2.98.17,4.2.17s2.21-.03,4.09-.17v1.08c-1.61.14-2.21.53-2.21,1.44,0,.59.11.98.74,2.56l5.6,14.25,5.32-13.44Z"/><path d="M201.38.7c1.75.14,2.66.17,4.31.17s2.56-.03,4.52-.17v1.08h-.28c-.98,0-1.75.21-2.13.56q-.56.49-.63,4.31v12.5q.07,3.82.63,4.31c.38.35,1.15.53,2.13.53h.28v1.12c-2.7-.14-3.54-.18-4.76-.18s-2.24.03-4.06.18v-1.12h.28c.98,0,1.75-.18,2.13-.53q.56-.49.63-4.31V6.65q-.07-3.82-.63-4.31c-.38-.35-1.15-.56-2.13-.56h-.28V.7Z"/><path d="M216.29,0c1.12.7,2.38.84,6.76.84,8.19,0,9.73-.1,11.38-.84h.59c-.59,2.1-1.05,3.92-1.26,5.18h-1.05c.07-.49.1-.77.1-1.12,0-1.51-.59-1.89-2.87-1.89h-4.1v16.98q.07,3.82.63,4.31c.39.35,1.16.53,2.14.53h.35v1.12c-2.03-.14-3.04-.18-4.24-.18s-1.71.03-4.66.18v-1.12h.21c.98,0,1.75-.18,2.13-.53q.56-.49.63-4.31V2.17h-2.49c-3.5,0-4.41.49-5.43,3.01h-1.05c.59-1.54.98-2.77,1.58-5.18h.63Z"/><path d="M237.25.7c1.26.14,2.28.17,3.92.17s2.8-.03,4.34-.17v.98c-1.44.1-1.96.42-1.96,1.19,0,.56.21,1.02,1.12,2.7l4.24,7.7,3.64-6.86q1.44-2.87,1.44-3.47c0-.81-.63-1.23-1.93-1.26v-.98c1.37.14,2.21.17,3.47.17s2.31-.03,3.67-.17v.98c-2.27.1-2.97.77-5.11,4.8l-4.52,8.37v4.31c0,3.47.04,3.82.63,4.31.38.35,1.15.53,2.13.53h.28v1.12c-1.71-.14-2.91-.18-4.66-.18s-2.73.03-4.24.18v-1.12h.31c.98,0,1.75-.18,2.14-.53.59-.52.63-.84.63-4.31v-4.13l-5.74-10.22c-1.26-2.42-1.96-2.98-3.82-3.12v-.98Z"/><path d="M120.41,65.1c-2.98,0-3.22-.1-4.69-2.24l-6.48-9.24c-1.05.1-1.47.14-1.96.14-.24,0-.46,0-1.01-.03v5.43q.07,3.82.63,4.31c.38.35,1.16.53,2.14.53h.31v1.12c-2.03-.14-3.08-.18-4.41-.18s-2.38.03-4.41.18v-1.12h.24c.98,0,1.75-.18,2.14-.53q.56-.49.63-4.31v-12.5q-.07-3.82-.63-4.31c-.38-.35-1.16-.56-2.14-.56h-.24v-1.08c1.43.14,2.17.17,3.22.17.95,0,1.33,0,4.13-.21.88-.03,1.71-.07,2.49-.07,2.06,0,3.46.49,4.58,1.65,1.02,1.09,1.58,2.52,1.58,4.17,0,2.14-.95,4.1-2.55,5.36-.63.49-1.16.77-2.17,1.16l.28.39.63.8.53.77,3.54,4.73c3.08,4.06,3.4,4.31,5.5,4.52v.98h-1.86ZM106.27,52.5c.59.03.88.03,1.16.03,3.96,0,6.41-2.1,6.41-5.5,0-3.22-2.24-5.15-5.95-5.15-.35,0-.46,0-1.51.07-.03,1.23-.03,1.51-.07,2.28l-.04,2.24v6.02Z"/><path d="M141.27,45.88c-.31-1.75-.56-2.31-1.19-2.77-.95-.7-2.35-.95-5.39-.95q-3.29,0-3.29,1.16v8.58h3.33c3.96,0,4.66-.46,4.66-3.01h1.05c-.07,1.26-.11,1.82-.11,2.98,0,1.79.04,2.66.21,4.2h-1.16c-.07-2.59-.6-2.87-5.04-2.87h-2.94v5.01c0,3.19.07,3.99.35,4.48.46.7,1.58.91,5.15.91,4.41,0,5.53-.7,6.44-4.03l1.01.21-1.26,5.32c-3.04-.14-6.51-.21-8.58-.21-2.87,0-7.04.1-8.89.21v-1.12h.21c.98,0,1.75-.18,2.14-.53q.56-.49.63-4.31v-12.5q-.07-3.82-.63-4.31c-.39-.35-1.16-.56-2.14-.56h-.21v-1.08c2.31.14,3.75.17,7.46.17s4.58-.03,8.68-.17l.53,4.97-1.02.21Z"/><path d="M156.17,53.37c3.57-.24,5.64-2.38,5.64-5.92,0-1.72-.56-3.15-1.64-4.13-1.16-1.05-2.42-1.44-4.66-1.44h-1.58c-.04,1.47-.04,1.86-.07,2.45l-.04,2.38v12.43q.07,3.82.63,4.31c.38.35,1.16.53,2.13.53h.35v1.12c-2-.14-3.12-.18-4.69-.18s-2.56.03-4.27.18v-1.12h.31c.98,0,1.75-.18,2.14-.53q.56-.49.63-4.31v-12.5q-.07-3.85-.63-4.31c-.38-.35-1.16-.56-2.14-.56h-.31v-1.08c1.29.07,1.92.07,2.77.07q1.08,0,4.9-.17c.56-.04,1.19-.04,1.89-.04,2.73,0,4.17.49,5.39,1.86,1.02,1.12,1.58,2.66,1.58,4.38,0,4.55-3.36,7.63-8.33,7.63v-1.05Z"/><path d="M194.36,53.02c0,7.07-5.53,12.46-12.81,12.46s-12.6-5.39-12.6-12.64,5.53-12.53,13.06-12.53c7,0,12.36,5.5,12.36,12.71ZM172.13,52.5c0,6.76,4.17,11.76,9.77,11.76s9.35-4.55,9.35-10.71c0-2.98-.88-5.92-2.38-8.09-1.79-2.56-4.27-3.85-7.39-3.85-5.36,0-9.35,4.66-9.35,10.89Z"/><path d="M219.04,65.1c-2.98,0-3.22-.1-4.69-2.24l-6.48-9.24c-1.05.1-1.47.14-1.96.14-.25,0-.46,0-1.02-.03v5.43q.07,3.82.63,4.31c.39.35,1.16.53,2.14.53h.31v1.12c-2.03-.14-3.08-.18-4.41-.18s-2.38.03-4.41.18v-1.12h.25c.98,0,1.75-.18,2.13-.53q.56-.49.63-4.31v-12.5q-.07-3.82-.63-4.31c-.38-.35-1.16-.56-2.13-.56h-.25v-1.08c1.43.14,2.17.17,3.22.17.95,0,1.33,0,4.13-.21.88-.03,1.71-.07,2.49-.07,2.07,0,3.46.49,4.58,1.65,1.02,1.09,1.58,2.52,1.58,4.17,0,2.14-.94,4.1-2.55,5.36-.63.49-1.16.77-2.17,1.16l.28.39.63.8.53.77,3.54,4.73c3.08,4.06,3.4,4.31,5.5,4.52v.98h-1.86ZM204.89,52.5c.6.03.88.03,1.16.03,3.96,0,6.41-2.1,6.41-5.5,0-3.22-2.24-5.15-5.95-5.15-.35,0-.46,0-1.5.07-.04,1.23-.04,1.51-.07,2.28l-.04,2.24v6.02Z"/><path d="M225.37,40c1.12.7,2.38.84,6.76.84,8.19,0,9.73-.1,11.38-.84h.59c-.59,2.1-1.05,3.92-1.26,5.18h-1.05c.07-.49.1-.77.1-1.12,0-1.51-.59-1.89-2.87-1.89h-4.1v16.98q.07,3.82.63,4.31c.39.35,1.16.53,2.14.53h.35v1.12c-2.03-.14-3.04-.18-4.24-.18s-1.71.03-4.66.18v-1.12h.21c.98,0,1.75-.18,2.13-.53q.56-.49.63-4.31v-16.98h-2.49c-3.5,0-4.41.49-5.43,3.01h-1.05c.59-1.54.98-2.77,1.58-5.18h.63Z"/><rect x="270.81" y="35.58" width="72.69" height=".75"/><rect x="0" y="35.58" width="69.39" height=".75"/></svg>