<?xml version="1.0" encoding="UTF-8"?><svg id="_レイヤー_1" xmlns="http://www.w3.org/2000/svg" viewBox="0 0 343.5 25.69"><path d="M96.36,13.37c3.57-.25,5.64-2.38,5.64-5.92,0-1.71-.56-3.15-1.65-4.13-1.15-1.05-2.42-1.44-4.66-1.44h-1.58c-.04,1.47-.04,1.86-.07,2.45l-.04,2.38v12.43q.07,3.82.63,4.31c.38.35,1.16.52,2.13.52h.35v1.12c-2-.14-3.12-.17-4.69-.17s-2.56.03-4.27.17v-1.12h.31c.98,0,1.75-.17,2.14-.52q.56-.49.63-4.31V6.65q-.07-3.85-.63-4.31c-.38-.35-1.16-.56-2.14-.56h-.31V.7c1.29.07,1.92.07,2.77.07q1.08,0,4.9-.17c.56-.04,1.19-.04,1.89-.04,2.73,0,4.17.49,5.39,1.86,1.02,1.12,1.58,2.66,1.58,4.38,0,4.55-3.36,7.63-8.33,7.63v-1.05Z"/><path d="M113.72,19.01c-.67,1.82-1.05,3.22-1.05,3.71,0,.84.7,1.19,2.35,1.26v1.12c-1.58-.14-2.42-.17-3.82-.17s-2.17.03-3.5.17v-1.12c1.33-.07,1.85-.28,2.34-.88.53-.77.6-.91,3.22-7.35l2.8-7.32c.53-1.4,1.08-2.84,1.65-4.34.49-1.23.59-1.47,1.23-3.19l1.85-.88.21.63c.25.84.49,1.68.77,2.52.21.7.42,1.36.67,2.03l3.92,11.83c2.21,6.55,2.31,6.72,4.87,6.93v1.12c-1.79-.14-2.77-.17-3.96-.17-1.33,0-1.92.03-4.41.17v-1.12c1.65-.07,2.31-.39,2.31-1.08,0-.39-.28-1.51-.6-2.56l-1.71-5.25h-7.74l-1.4,3.92ZM122.44,13.79l-3.22-10.01-3.61,10.01h6.83Z"/><path d="M154.46,25.1c-2.98,0-3.22-.1-4.69-2.24l-6.48-9.24c-1.05.1-1.47.14-1.96.14-.25,0-.46,0-1.01-.03v5.43q.07,3.82.63,4.31c.38.35,1.16.52,2.14.52h.31v1.12c-2.03-.14-3.08-.17-4.41-.17s-2.38.03-4.41.17v-1.12h.24c.98,0,1.75-.17,2.14-.52q.56-.49.63-4.31V6.65q-.07-3.82-.63-4.31c-.38-.35-1.16-.56-2.14-.56h-.24V.7c1.43.14,2.17.17,3.22.17.95,0,1.33,0,4.13-.21.88-.04,1.71-.07,2.49-.07,2.06,0,3.46.49,4.58,1.65,1.02,1.08,1.58,2.52,1.58,4.17,0,2.14-.95,4.1-2.55,5.36-.63.49-1.16.77-2.17,1.16l.28.38.63.81.53.77,3.54,4.73c3.08,4.06,3.4,4.31,5.5,4.52v.98h-1.86ZM140.32,12.5c.59.03.88.03,1.16.03,3.96,0,6.41-2.1,6.41-5.5,0-3.22-2.24-5.15-5.95-5.15-.35,0-.46,0-1.51.07-.03,1.23-.03,1.5-.07,2.27l-.04,2.24v6.02Z"/><path d="M160.8,0c1.12.7,2.38.84,6.75.84,8.19,0,9.73-.11,11.38-.84h.6c-.6,2.1-1.05,3.92-1.26,5.18h-1.05c.07-.49.11-.77.11-1.12,0-1.51-.6-1.89-2.87-1.89h-4.09v16.98q.07,3.82.63,4.31c.38.35,1.16.52,2.13.52h.35v1.12c-2.03-.14-3.04-.17-4.24-.17s-1.71.03-4.66.17v-1.12h.21c.98,0,1.75-.17,2.13-.52q.56-.49.63-4.31V2.17h-2.49c-3.5,0-4.41.49-5.42,3.01h-1.05c.6-1.54.98-2.77,1.58-5.18h.63Z"/><path d="M183.06.7c1.29.1,1.92.14,2.91.14s1.64-.04,2.87-.14l14.91,19.43v-8.93c0-5.43-.14-7.67-.52-8.4-.39-.7-1.05-.98-2.66-1.02V.7c1.22.14,2.13.17,3.57.17s2.59-.03,4.03-.17v1.08c-2.38.04-2.87.67-2.91,3.78l-.04,2.21-.04,1.68-.14,16.24h-.39l-17.22-22.05.11,12.11c.03,5.5.14,7.04.52,7.42.42.63,1.08.88,2.24.88h.32v1.05c-1.92-.14-2.8-.17-3.78-.17-1.08,0-1.61.03-3.78.17v-1.05c2.73-.03,2.87-.42,2.94-6.58l.17-10.57v-.6c0-2.63-.07-3.22-.49-3.75-.42-.49-1.26-.73-2.62-.77V.7Z"/><path d="M228,5.88c-.32-1.75-.56-2.31-1.19-2.77-.95-.7-2.34-.94-5.39-.94q-3.29,0-3.29,1.15v8.58h3.33c3.96,0,4.66-.46,4.66-3.01h1.05c-.07,1.26-.11,1.82-.11,2.98,0,1.79.04,2.66.21,4.2h-1.16c-.07-2.59-.59-2.87-5.04-2.87h-2.94v5.01c0,3.19.07,3.99.35,4.48.46.7,1.58.91,5.15.91,4.41,0,5.53-.7,6.44-4.03l1.01.21-1.26,5.32c-3.05-.14-6.51-.21-8.58-.21-2.87,0-7.04.1-8.89.21v-1.12h.21c.98,0,1.75-.17,2.13-.52q.56-.49.63-4.31V6.65q-.07-3.82-.63-4.31c-.38-.35-1.15-.56-2.13-.56h-.21V.7c2.31.14,3.75.17,7.46.17s4.58-.03,8.68-.17l.52,4.97-1.01.21Z"/><path d="M254.67,25.1c-2.98,0-3.22-.1-4.69-2.24l-6.48-9.24c-1.05.1-1.47.14-1.96.14-.25,0-.46,0-1.02-.03v5.43q.07,3.82.63,4.31c.39.35,1.16.52,2.14.52h.31v1.12c-2.03-.14-3.08-.17-4.41-.17s-2.38.03-4.41.17v-1.12h.25c.98,0,1.75-.17,2.13-.52q.56-.49.63-4.31V6.65q-.07-3.82-.63-4.31c-.38-.35-1.16-.56-2.13-.56h-.25V.7c1.43.14,2.17.17,3.22.17.95,0,1.33,0,4.13-.21.88-.04,1.71-.07,2.49-.07,2.07,0,3.46.49,4.58,1.65,1.02,1.08,1.58,2.52,1.58,4.17,0,2.14-.94,4.1-2.55,5.36-.63.49-1.16.77-2.17,1.16l.28.38.63.81.53.77,3.54,4.73c3.08,4.06,3.4,4.31,5.5,4.52v.98h-1.86ZM240.53,12.5c.6.03.88.03,1.16.03,3.96,0,6.41-2.1,6.41-5.5,0-3.22-2.24-5.15-5.95-5.15-.35,0-.46,0-1.5.07-.04,1.23-.04,1.5-.07,2.27l-.04,2.24v6.02Z"/><rect x="269.96" y="12.06" width="73.54" height=".75"/><rect y="12.06" width="70.25" height=".75"/></svg>