<?xml version="1.0" encoding="UTF-8"?><svg id="_レイヤー_1" xmlns="http://www.w3.org/2000/svg" xmlns:xlink="http://www.w3.org/1999/xlink" viewBox="0 0 343.5 25.48"><defs><style>.cls-1{fill:none;}.cls-2{fill:#1f1815;}</style><clipPath id="clippath"><rect class="cls-1" x="626.49" y="-496.96" width="390" height="780.5"/></clipPath></defs><rect class="cls-2" x="235.65" y="11.49" width="107.85" height=".75"/><rect class="cls-2" y="11.49" width="104.78" height=".75"/><path d="M132.66,5.57c-.63-2.66-2.28-4.17-4.59-4.17-2.66,0-4.69,1.89-4.69,4.31,0,1.05.42,2.03,1.19,2.8.74.74,1.33,1.16,3.61,2.63,2.45,1.54,3.33,2.21,4.17,3.15.98,1.08,1.54,2.66,1.54,4.31,0,4.06-3.18,6.9-7.7,6.9-2,0-3.68-.39-5.71-1.3-.04-.88-.31-2.77-.7-4.83l1.02-.21c.77,3.43,2.62,5.18,5.57,5.18s5.08-2.03,5.08-4.69c0-2.17-.8-3.15-4.76-5.67-2.8-1.82-3.15-2.07-3.96-2.98-1.01-1.16-1.61-2.77-1.61-4.34s.56-3.01,1.57-4.13c1.37-1.47,3.33-2.21,5.88-2.21,1.54,0,2.91.21,4.38.7.14,1.3.38,2.73.77,4.34l-1.05.21Z"/><path d="M139.73,0c1.12.7,2.38.84,6.76.84,8.19,0,9.73-.1,11.38-.84h.59c-.59,2.1-1.05,3.92-1.26,5.18h-1.05c.07-.49.1-.77.1-1.12,0-1.51-.59-1.89-2.87-1.89h-4.1v16.98q.07,3.82.63,4.31c.38.35,1.15.52,2.13.52h.35v1.12c-2.03-.14-3.04-.17-4.24-.17s-1.71.03-4.66.17v-1.12h.21c.98,0,1.75-.17,2.14-.52q.56-.49.63-4.31V2.17h-2.49c-3.5,0-4.41.49-5.43,3.01h-1.05c.59-1.54.98-2.77,1.58-5.18h.63Z"/><path d="M164.62,19.01c-.67,1.82-1.05,3.22-1.05,3.71,0,.84.7,1.19,2.35,1.26v1.12c-1.58-.14-2.42-.17-3.82-.17s-2.17.03-3.5.17v-1.12c1.33-.07,1.85-.28,2.34-.88.53-.77.6-.91,3.22-7.35l2.8-7.32c.53-1.4,1.08-2.84,1.65-4.34.49-1.23.59-1.47,1.23-3.19l1.85-.88.21.63c.25.84.49,1.68.77,2.52.21.7.42,1.37.67,2.03l3.92,11.83c2.21,6.55,2.31,6.72,4.87,6.93v1.12c-1.79-.14-2.76-.17-3.96-.17-1.33,0-1.92.03-4.41.17v-1.12c1.64-.07,2.31-.38,2.31-1.08,0-.39-.28-1.51-.59-2.56l-1.71-5.25h-7.74l-1.4,3.92ZM173.33,13.79l-3.22-10.01-3.61,10.01h6.83Z"/><path d="M200.14,6.06c-.14-1.47-.59-2.42-1.4-3.01-.91-.67-2.1-.88-5.11-.88-1.68,0-2.13.04-2.27.28-.11.18-.14.35-.14,1.26v8.82h3.08c2.42,0,3.5-.17,4.06-.73.39-.39.49-.73.6-2.24h1.08c-.07,1.68-.11,2.56-.11,3.75s.04,2,.11,3.4h-1.08c-.14-2.56-.56-2.83-4.38-2.83h-3.36v5.29q.07,3.82.63,4.31c.39.35,1.16.52,2.14.52h.28v1.12c-1.82-.14-2.77-.17-4.24-.17s-2.56.03-4.55.17v-1.12h.21c.98,0,1.75-.17,2.13-.52q.56-.49.63-4.31V6.62q-.07-3.85-.63-4.31c-.38-.35-1.16-.56-2.13-.56h-.35V.67c3.43.18,4.27.21,6.83.21,3.43,0,5.64-.03,8.54-.21l.56,5.29-1.12.1Z"/><path d="M220.37,6.06c-.14-1.47-.59-2.42-1.4-3.01-.91-.67-2.1-.88-5.11-.88-1.68,0-2.13.04-2.27.28-.11.18-.14.35-.14,1.26v8.82h3.08c2.42,0,3.5-.17,4.06-.73.39-.39.49-.73.6-2.24h1.08c-.07,1.68-.11,2.56-.11,3.75s.04,2,.11,3.4h-1.08c-.14-2.56-.56-2.83-4.38-2.83h-3.36v5.29q.07,3.82.63,4.31c.39.35,1.16.52,2.14.52h.28v1.12c-1.82-.14-2.77-.17-4.24-.17s-2.56.03-4.55.17v-1.12h.21c.98,0,1.75-.17,2.13-.52q.56-.49.63-4.31V6.62q-.07-3.85-.63-4.31c-.38-.35-1.16-.56-2.13-.56h-.35V.67c3.43.18,4.27.21,6.83.21,3.43,0,5.64-.03,8.54-.21l.56,5.29-1.12.1Z"/></svg>