<?xml version="1.0" encoding="UTF-8"?><svg id="_レイヤー_1" xmlns="http://www.w3.org/2000/svg" viewBox="0 0 167.84 54.28"><defs><style>.cls-1{fill:#fff;}.cls-2{fill:#9b003f;}</style></defs><rect class="cls-2" width="167.84" height="54.28" rx="10" ry="10"/><path class="cls-1" d="M48.63,23.35h-.35l1.67-1.51,2.54,2.43c-.11.14-.25.24-.43.28-.18.05-.45.09-.81.12-1.78,3.37-4.32,6.22-7.6,8.57-3.29,2.35-7.47,4.04-12.57,5.06l-.19-.41c2.88-.92,5.48-2.09,7.82-3.51,2.33-1.42,4.34-3.06,6.02-4.93,1.68-1.86,2.98-3.9,3.9-6.12ZM31.38,17.87h19.52l1.65-2.11c.41.31.78.59,1.09.84.31.25.65.52,1,.8.35.28.67.55.96.82-.07.29-.32.43-.76.43h-23.25l-.22-.78ZM33.21,23.35h16.63v.78h-16.39l-.24-.78ZM37.83,23.48c.7,1.75,1.67,3.3,2.9,4.66,1.23,1.36,2.66,2.53,4.28,3.52,1.62.99,3.38,1.82,5.27,2.48,1.89.67,3.84,1.19,5.86,1.57l-.05.3c-.59.11-1.1.35-1.51.73-.41.38-.72.88-.92,1.51-2.59-.74-4.96-1.73-7.09-2.97-2.13-1.24-3.98-2.81-5.54-4.71-1.56-1.9-2.76-4.17-3.6-6.82l.41-.27ZM42.04,13.25l3.59.32c-.02.18-.09.34-.23.47-.13.14-.38.23-.74.28v9.42h-2.62v-10.5Z"/><path class="cls-1" d="M58.92,26.94c.54-.14,1.31-.39,2.31-.73,1-.34,2.13-.74,3.4-1.2,1.27-.46,2.56-.93,3.87-1.42l.14.32c-.86.61-1.95,1.37-3.27,2.28-1.31.91-2.86,1.91-4.64,3.01-.09.36-.29.6-.59.73l-1.21-3ZM67.02,17.63c.52.49.96.9,1.32,1.23.36.33.68.65.95.96-.07.29-.31.43-.7.43h-9.26l-.22-.78h6.67l1.24-1.84ZM66.18,13.58c-.02.2-.1.36-.26.49-.15.13-.4.22-.74.27v20.57c0,.63-.07,1.18-.2,1.65s-.44.85-.9,1.13c-.47.29-1.2.48-2.19.57-.04-.43-.09-.81-.18-1.13-.08-.32-.2-.6-.36-.84-.18-.22-.43-.4-.76-.55-.32-.15-.76-.27-1.32-.36v-.4c.49.04.9.06,1.25.08.35.02.68.04.99.05.31.02.52.03.65.03.22,0,.36-.04.45-.11s.12-.2.12-.38V13.22l3.46.35ZM74.47,22.24c-.25,2.23-.71,4.32-1.38,6.28s-1.62,3.72-2.88,5.29c-1.25,1.58-2.88,2.95-4.9,4.12l-.24-.32c1.55-1.31,2.79-2.78,3.73-4.39.94-1.61,1.64-3.34,2.12-5.18.48-1.84.78-3.77.9-5.79h2.65ZM81.62,23.75c.58.45,1.06.84,1.46,1.17.4.33.75.65,1.05.96-.05.29-.3.43-.73.43h-16.01l-.22-.78h13.04l1.4-1.78ZM78.46,28.37l1.43-1.32,2.32,2.08c-.16.22-.53.34-1.11.38-1.12,2.29-2.76,4.17-4.94,5.66-2.18,1.48-4.98,2.55-8.4,3.2l-.16-.4c2.92-.9,5.31-2.16,7.18-3.77,1.87-1.61,3.2-3.55,3.97-5.82h-.3ZM80.68,20.43c.56.43,1.03.81,1.4,1.12.38.32.72.62,1.03.9-.05.29-.29.43-.7.43h-13.85l-.22-.78h11.02l1.32-1.67ZM82.65,15.71c-.14.11-.35.16-.62.16s-.58-.08-.95-.24c-1.04.18-2.26.34-3.64.49-1.39.14-2.83.25-4.35.31-1.51.06-2.99.09-4.43.07l-.08-.43c1.03-.13,2.08-.29,3.16-.5s2.15-.44,3.2-.7c1.05-.26,2.03-.53,2.94-.81.91-.28,1.68-.55,2.31-.82l2.46,2.48ZM69.26,17.19c.88.32,1.58.69,2.09,1.09.51.4.88.81,1.09,1.21s.31.78.28,1.12c-.03.34-.13.62-.32.82-.19.21-.43.32-.71.32-.29,0-.59-.11-.92-.36-.05-.45-.18-.92-.38-1.4-.2-.49-.42-.96-.68-1.43-.25-.47-.51-.87-.78-1.21l.32-.16ZM79.81,28.34v.78h-7.88l.35-.78h7.53ZM72.71,28.4c.61,1.44,1.48,2.66,2.61,3.65,1.12.99,2.44,1.79,3.94,2.39s3.12,1.07,4.85,1.39v.27c-1.01.23-1.67.95-1.97,2.16-1.66-.56-3.12-1.25-4.4-2.08-1.28-.83-2.37-1.86-3.28-3.09-.91-1.23-1.62-2.72-2.12-4.47l.38-.22ZM73.36,16.65c.86.4,1.53.81,2.01,1.26.48.44.8.87.97,1.3s.23.81.18,1.15c-.05.34-.18.61-.39.81s-.46.29-.76.28c-.3,0-.6-.16-.9-.45-.04-.7-.2-1.44-.49-2.21-.29-.77-.59-1.44-.92-2l.3-.14ZM82.3,17.33c-.05.14-.17.27-.34.36-.17.1-.4.14-.69.12-.56.83-1.16,1.67-1.81,2.52-.65.85-1.29,1.6-1.92,2.23l-.38-.24c.18-.5.39-1.1.62-1.78s.47-1.4.7-2.16c.23-.76.46-1.49.67-2.21l3.13,1.16Z"/><path class="cls-1" d="M91.13,23.16c-.32,0-.68-.12-1.07-.36s-.73-.54-1.04-.9c-.31-.36-.51-.69-.62-1-.07-.27-.12-.57-.15-.89-.03-.32-.04-.63-.04-.92l.46-.19c.27.34.51.63.72.88s.43.43.66.57c.23.14.5.21.81.23.25,0,.71-.03,1.36-.09s1.42-.15,2.29-.26,1.77-.22,2.69-.34c.92-.12,1.78-.22,2.58-.32.8-.1,1.45-.17,1.96-.2,1.35-.14,2.45-.27,3.29-.39.85-.12,1.52-.21,2.03-.28.5-.07.88-.13,1.12-.18s.43-.07.55-.07c.41,0,.84.07,1.28.22.44.14.81.35,1.12.61.31.26.46.57.46.93s-.09.6-.28.72c-.19.12-.46.18-.82.18-.25,0-.58-.03-1-.09-.41-.06-.94-.13-1.58-.2-.64-.07-1.43-.11-2.38-.12-.95,0-2.09.05-3.44.18-1.12.09-2.2.23-3.25.41-1.05.18-2.01.36-2.88.55-.86.19-1.59.36-2.19.53-.41.11-.77.23-1.05.36-.29.13-.55.25-.8.34-.24.09-.51.14-.8.14ZM93.45,37.36c1.64-.59,3.09-1.35,4.36-2.27,1.27-.92,2.16-2.02,2.69-3.32-.9.32-1.71.33-2.42.03-.71-.31-1.28-.82-1.7-1.54-.42-.72-.63-1.53-.63-2.43,0-.76.16-1.44.47-2.04.31-.6.75-1.09,1.31-1.46.56-.37,1.21-.55,1.94-.55.99,0,1.78.22,2.38.66.59.44,1.03,1.03,1.3,1.75.27.73.41,1.55.41,2.47,0,1.31-.25,2.49-.74,3.52-.5,1.04-1.18,1.94-2.07,2.7s-1.92,1.4-3.12,1.9c-1.2.5-2.5.89-3.9,1.16l-.27-.59ZM99.15,29.99c.67,0,1.14-.19,1.43-.57s.43-.99.43-1.84c0-.76-.16-1.36-.47-1.82-.32-.46-.76-.69-1.34-.69-.65,0-1.17.24-1.57.73-.4.49-.59,1.09-.59,1.81,0,.67.2,1.23.59,1.69.4.46.9.69,1.51.69ZM100.6,24.7c0-.25,0-.61-.03-1.08s-.04-.99-.07-1.58-.06-1.19-.11-1.81c-.05-.62-.09-1.21-.14-1.75-.04-.55-.08-1.02-.12-1.42-.04-.25-.09-.43-.18-.54s-.23-.2-.45-.27c-.22-.09-.48-.16-.78-.22-.31-.05-.66-.1-1.05-.13l-.05-.46c.29-.18.62-.36,1.01-.53.39-.17.78-.26,1.17-.26.45,0,.92.06,1.42.19.49.13.91.3,1.25.51s.51.46.51.73c0,.34-.08.65-.23.93-.15.28-.24.59-.26.93-.04.32-.06.82-.08,1.49-.02.67-.03,1.41-.03,2.24v2.51c0,.85,0,1.6.03,2.27l-1.84-1.76Z"/><path class="cls-1" d="M125.85,37.07c-1.03,0-1.94-.14-2.74-.42-.8-.28-1.43-.68-1.89-1.2-.46-.52-.69-1.14-.69-1.86,0-.83.32-1.5.97-2.01.65-.51,1.45-.77,2.4-.77.67,0,1.33.15,1.98.45.66.3,1.23.75,1.73,1.36.49.61.8,1.41.93,2.4l-2.13.38c-.13-1.08-.47-1.92-1.04-2.52-.57-.6-1.26-.9-2.07-.9-.49,0-.89.12-1.2.36-.31.24-.47.58-.47,1.01,0,.49.3.9.89,1.23.59.33,1.46.5,2.59.5,1.62,0,2.93-.24,3.94-.72,1.01-.48,1.75-1.1,2.24-1.88.49-.77.73-1.61.73-2.51.02-.81-.15-1.55-.51-2.21-.36-.67-.9-1.2-1.62-1.61-.72-.41-1.62-.61-2.7-.61-1.26,0-2.4.26-3.42.77-1.02.51-1.96,1.18-2.82,2.01-.86.83-1.68,1.74-2.46,2.73-.27.34-.5.58-.67.72-.18.14-.41.19-.67.18-.23,0-.46-.14-.67-.41s-.31-.62-.27-1.05c.02-.32.12-.63.31-.9.19-.28.47-.61.85-.99.67-.67,1.39-1.39,2.17-2.19.78-.79,1.58-1.58,2.39-2.36.81-.78,1.57-1.55,2.29-2.29.72-.75,1.35-1.42,1.89-2.01.54-.59.94-1.08,1.19-1.46.2-.25.26-.42.17-.51-.08-.09-.22-.12-.42-.08-.31.05-.71.18-1.2.36s-.99.4-1.48.62-.92.43-1.28.61c-.25.14-.49.3-.72.46-.23.16-.47.24-.74.24-.45,0-.86-.14-1.24-.43-.38-.29-.69-.62-.93-1s-.38-.71-.42-1c-.04-.29-.04-.56-.01-.82.03-.26.07-.54.12-.82l.43-.05c.2.4.44.77.72,1.11.28.34.59.51.93.51.25,0,.61-.04,1.08-.12.47-.08.98-.18,1.53-.31.55-.13,1.08-.26,1.58-.39.5-.14.93-.26,1.27-.36.29-.09.5-.18.65-.27.14-.09.27-.17.37-.24.1-.07.22-.11.36-.11.27,0,.58.08.92.24.34.16.67.36.97.61s.56.51.76.8c.2.29.3.55.3.78,0,.22-.08.39-.24.53-.16.14-.37.27-.63.41-.26.13-.54.33-.85.58-.4.29-.89.68-1.47,1.16-.58.49-1.18,1-1.79,1.55-.61.55-1.18,1.07-1.7,1.57-.52.5-.92.89-1.19,1.17-.13.13-.17.23-.12.31s.13.09.26.04c.52-.18,1.17-.38,1.94-.59.77-.22,1.66-.32,2.65-.32,1.19,0,2.28.24,3.28.73s1.79,1.19,2.39,2.12c.59.93.88,2.05.86,3.36,0,1.17-.34,2.24-1.01,3.2-.68.96-1.65,1.73-2.92,2.31-1.27.58-2.8.86-4.6.86Z"/></svg>