<?xml version="1.0" encoding="UTF-8"?><svg id="_レイヤー_1" xmlns="http://www.w3.org/2000/svg" viewBox="0 0 167.84 54.28"><defs><style>.cls-1{fill:#fff;}.cls-2{fill:#9b003f;}</style></defs><rect class="cls-2" width="167.84" height="54.28" rx="10" ry="10"/><path class="cls-1" d="M47.53,19.13c-.61-2.58-2.21-4.05-4.45-4.05-2.58,0-4.56,1.84-4.56,4.18,0,1.02.41,1.97,1.16,2.72s1.29,1.12,3.5,2.55c2.38,1.5,3.23,2.14,4.05,3.06.95,1.05,1.5,2.58,1.5,4.18,0,3.94-3.09,6.7-7.48,6.7-1.94,0-3.57-.37-5.54-1.26-.03-.85-.31-2.69-.68-4.69l.99-.2c.75,3.33,2.55,5.03,5.41,5.03s4.93-1.97,4.93-4.56c0-2.11-.78-3.06-4.62-5.51-2.72-1.77-3.06-2.01-3.84-2.89-.99-1.12-1.56-2.69-1.56-4.22s.54-2.92,1.53-4.01c1.33-1.43,3.23-2.14,5.71-2.14,1.5,0,2.82.2,4.25.68.14,1.26.37,2.65.75,4.22l-1.02.2Z"/><path class="cls-1" d="M54.4,13.72c1.09.68,2.31.82,6.56.82,7.96,0,9.45-.1,11.05-.82h.58c-.58,2.04-1.02,3.81-1.22,5.03h-1.02c.07-.48.1-.75.1-1.09,0-1.46-.58-1.84-2.79-1.84h-3.98v16.49q.07,3.71.61,4.18c.37.34,1.12.51,2.07.51h.34v1.09c-1.97-.14-2.96-.17-4.11-.17s-1.67.03-4.52.17v-1.09h.2c.95,0,1.7-.17,2.07-.51q.54-.48.61-4.18V15.83h-2.41c-3.4,0-4.28.48-5.27,2.92h-1.02c.58-1.5.95-2.69,1.53-5.03h.61Z"/><path class="cls-1" d="M78.57,32.18c-.65,1.77-1.02,3.13-1.02,3.6,0,.82.68,1.16,2.28,1.22v1.09c-1.53-.14-2.35-.17-3.71-.17s-2.11.03-3.4.17v-1.09c1.29-.07,1.8-.27,2.28-.85.51-.75.58-.88,3.13-7.14l2.72-7.1c.51-1.36,1.05-2.75,1.6-4.22.48-1.19.58-1.43,1.19-3.09l1.8-.85.2.61c.24.82.48,1.63.75,2.45.2.68.41,1.33.65,1.97l3.81,11.49c2.14,6.36,2.24,6.53,4.73,6.73v1.09c-1.73-.14-2.69-.17-3.84-.17-1.29,0-1.87.03-4.28.17v-1.09c1.6-.07,2.24-.37,2.24-1.05,0-.37-.27-1.46-.58-2.48l-1.67-5.1h-7.51l-1.36,3.81ZM87.03,27.12l-3.13-9.72-3.5,9.72h6.63Z"/><path class="cls-1" d="M113.08,19.61c-.14-1.43-.58-2.35-1.36-2.92-.88-.65-2.04-.85-4.96-.85-1.63,0-2.07.03-2.21.27-.1.17-.14.34-.14,1.22v8.57h2.99c2.35,0,3.4-.17,3.94-.71.37-.37.48-.71.58-2.18h1.05c-.07,1.63-.1,2.48-.1,3.64s.03,1.94.1,3.3h-1.05c-.14-2.48-.54-2.75-4.25-2.75h-3.26v5.13q.07,3.71.61,4.18c.37.34,1.12.51,2.07.51h.27v1.09c-1.77-.14-2.69-.17-4.11-.17s-2.48.03-4.42.17v-1.09h.2c.95,0,1.7-.17,2.07-.51q.54-.48.61-4.18v-12.17q-.07-3.74-.61-4.18c-.37-.34-1.12-.54-2.07-.54h-.34v-1.05c3.33.17,4.15.2,6.63.2,3.33,0,5.47-.03,8.29-.2l.54,5.13-1.09.1Z"/><path class="cls-1" d="M132.73,19.61c-.14-1.43-.58-2.35-1.36-2.92-.88-.65-2.04-.85-4.96-.85-1.63,0-2.07.03-2.21.27-.1.17-.14.34-.14,1.22v8.57h2.99c2.35,0,3.4-.17,3.94-.71.37-.37.48-.71.58-2.18h1.05c-.07,1.63-.1,2.48-.1,3.64s.03,1.94.1,3.3h-1.05c-.14-2.48-.54-2.75-4.25-2.75h-3.26v5.13q.07,3.71.61,4.18c.37.34,1.12.51,2.07.51h.27v1.09c-1.77-.14-2.69-.17-4.11-.17s-2.48.03-4.42.17v-1.09h.2c.95,0,1.7-.17,2.07-.51q.54-.48.61-4.18v-12.17q-.07-3.74-.61-4.18c-.37-.34-1.12-.54-2.07-.54h-.34v-1.05c3.33.17,4.15.2,6.63.2,3.33,0,5.47-.03,8.29-.2l.54,5.13-1.09.1Z"/></svg>