<?xml version="1.0" encoding="UTF-8"?><svg id="_レイヤー_1" xmlns="http://www.w3.org/2000/svg" viewBox="0 0 167.84 54.28"><defs><style>.cls-1{fill:#9b003f;}.cls-2{fill:#fff;}</style></defs><rect class="cls-1" width="167.84" height="54.28" rx="10" ry="10"/><path class="cls-2" d="M27.11,19.6c1.12.07,2.01.25,2.69.54.68.29,1.17.62,1.5,1,.32.38.5.75.53,1.12.03.37-.05.69-.23.96-.18.27-.44.44-.77.5-.33.06-.72-.02-1.15-.26-.13-.45-.34-.9-.63-1.34s-.63-.86-1.01-1.27c-.38-.41-.76-.74-1.13-1.01l.22-.24ZM28.54,30.59c.18,0,.31-.03.4-.08.09-.05.21-.22.35-.49.13-.18.24-.37.35-.57s.26-.49.46-.86c.2-.38.48-.95.85-1.71.37-.77.87-1.81,1.51-3.13.64-1.32,1.45-3.02,2.44-5.09l.46.11c-.22.65-.47,1.38-.77,2.19s-.6,1.64-.9,2.5c-.31.85-.59,1.67-.86,2.46-.27.78-.5,1.47-.7,2.05s-.34,1.01-.43,1.28c-.13.41-.23.84-.31,1.27s-.12.82-.12,1.16c.02.32.08.64.18.96.1.31.21.65.34,1s.23.74.31,1.17.11.94.09,1.51c-.02.65-.21,1.16-.57,1.53-.36.37-.83.55-1.4.55-.29,0-.55-.11-.78-.34-.23-.23-.39-.57-.46-1.04.16-.94.25-1.79.27-2.56.02-.77-.02-1.42-.12-1.93-.1-.51-.25-.84-.45-.99-.18-.14-.38-.24-.61-.3s-.48-.09-.77-.11v-.54h1.24ZM29.14,13.68c1.15.09,2.08.28,2.78.58.7.3,1.22.64,1.57,1.04.34.4.53.79.57,1.19.04.4-.04.73-.22,1-.18.27-.45.45-.8.53s-.73,0-1.15-.23c-.16-.45-.41-.92-.73-1.4-.32-.49-.68-.94-1.08-1.38-.4-.43-.79-.8-1.19-1.11l.24-.22ZM34.45,21.92h13.53l1.54-2.05c.38.32.72.6,1.01.84.3.23.6.49.92.77.31.28.61.54.88.8-.04.14-.12.25-.24.32-.13.07-.29.11-.49.11h-16.93l-.22-.78ZM48.39,13.49l2.7,2.56c-.14.11-.35.17-.62.18-.27,0-.6-.06-1-.2-1.21.23-2.62.47-4.24.72-1.62.24-3.31.45-5.06.62s-3.48.29-5.17.36l-.08-.43c1.17-.22,2.38-.47,3.65-.76,1.26-.29,2.5-.61,3.73-.96,1.22-.35,2.36-.71,3.42-1.07,1.05-.36,1.95-.7,2.69-1.03ZM36.07,27.97v-1.11l2.7,1.11h9.83v.78h-9.99v8.67c0,.07-.11.18-.32.31-.22.13-.49.26-.81.36-.32.11-.67.16-1.03.16h-.38v-10.29ZM37.48,35.23h10.99v.78h-10.99v-.78ZM41.74,15.98l2.62-.35v12.74h-2.62v-12.39ZM47.55,27.97h-.27l1.27-1.4,2.7,2.05c-.09.11-.23.22-.42.32s-.43.19-.72.24v8.15c0,.07-.12.17-.36.3s-.53.24-.85.34c-.32.1-.63.15-.92.15h-.43v-10.15Z"/><path class="cls-2" d="M56.76,18.38h10.5l1.4-1.73c.58.45,1.06.83,1.46,1.15.4.32.75.63,1.05.93-.05.29-.3.43-.73.43h-13.47l-.22-.78ZM56.78,34.91c.77-.05,1.87-.15,3.28-.3,1.41-.14,3.01-.32,4.79-.53,1.78-.21,3.62-.42,5.51-.63l.08.38c-1.31.47-2.93,1-4.83,1.61-1.91.6-4.2,1.27-6.89,2.01-.16.34-.4.55-.73.62l-1.21-3.16ZM68.04,13.2l2.4,2.4c-.31.25-.82.23-1.54-.08-1.03.16-2.21.31-3.55.46s-2.74.26-4.18.35c-1.45.09-2.87.15-4.25.19l-.08-.46c.95-.16,1.95-.36,3-.58s2.07-.47,3.09-.73c1.02-.26,1.97-.53,2.85-.8.88-.27,1.64-.52,2.27-.76ZM57.16,31.07h9.58l1.27-1.59c.56.41,1.02.77,1.39,1.07.37.3.71.59,1.01.88-.07.27-.31.41-.73.41h-12.31l-.22-.76ZM57.73,21.16v-1l2.51,1h7.07l1.11-1.27,2.27,1.73c-.07.13-.18.23-.34.31-.15.08-.37.14-.66.18v6.51c0,.05-.18.17-.53.34s-.81.26-1.39.26h-.4v-7.26h-7.42v7.13c0,.09-.17.22-.5.38-.33.16-.78.24-1.34.24h-.38v-8.53ZM58.94,24.48h9.45v.78h-9.45v-.78ZM58.94,27.78h9.45v.78h-9.45v-.78ZM62.48,15.65l2.27-.46v19.47c-.02.09-.2.23-.54.43-.34.2-.79.3-1.35.3h-.38V15.65ZM73.15,13.55l3.46.35c-.04.2-.13.36-.28.5-.15.13-.38.22-.69.26-.02,2.25-.05,4.36-.08,6.32-.04,1.96-.15,3.79-.35,5.49-.2,1.7-.57,3.27-1.11,4.71-.54,1.44-1.31,2.76-2.32,3.96-1.01,1.2-2.34,2.28-4,3.25l-.35-.43c1.28-1.06,2.29-2.23,3.05-3.5s1.32-2.65,1.7-4.13c.38-1.49.63-3.09.77-4.81.13-1.72.2-3.57.2-5.56v-6.41ZM70.23,19.95h9.21v.78h-8.96l-.24-.78ZM78.57,19.95h-.32l1.38-1.43,2.46,2.11c-.09.13-.23.23-.4.31-.18.08-.42.14-.73.18-.04,2.56-.09,4.76-.16,6.6-.07,1.85-.18,3.38-.31,4.6-.13,1.22-.31,2.2-.53,2.93s-.48,1.27-.78,1.63c-.4.43-.86.74-1.4.93s-1.12.28-1.73.28c.02-.4,0-.74-.05-1.04-.05-.3-.16-.54-.32-.72-.18-.18-.46-.35-.82-.5-.37-.15-.78-.28-1.23-.39l.03-.4c.29.02.61.04.97.08.36.04.7.06,1.01.08.31.02.56.03.74.03.23,0,.41-.03.54-.08s.25-.14.38-.27c.29-.29.52-1.01.69-2.16.17-1.15.3-2.79.39-4.9.09-2.11.16-4.74.22-7.87Z"/><path class="cls-2" d="M85.24,21.16h9.07l1.4-1.94c.34.31.65.58.92.81.27.23.55.48.85.74.3.26.56.51.8.74-.05.29-.29.43-.7.43h-12.12l-.22-.78ZM85.24,26.83h9.13l1.38-1.81c.58.47,1.06.87,1.46,1.2s.74.65,1.03.96c-.07.29-.31.43-.7.43h-12.07l-.22-.78ZM85.62,31.37h8.51l1.4-1.92c.32.29.62.54.88.77.26.23.54.47.82.74.29.27.55.51.78.73-.07.29-.31.43-.73.43h-11.45l-.22-.76ZM85.92,17h7.99l1.35-1.84c.54.49,1,.89,1.38,1.21.38.32.72.64,1.03.95-.05.29-.3.43-.73.43h-10.8l-.22-.76ZM87.48,22.16c.83.38,1.47.78,1.92,1.21.45.43.75.85.89,1.27.14.41.18.79.09,1.12s-.24.59-.49.78c-.24.19-.52.27-.82.24s-.62-.19-.94-.5c.02-.68-.08-1.39-.28-2.12s-.44-1.36-.69-1.9l.32-.11ZM90.18,13.22l3.32.3c-.02.16-.09.3-.22.42-.13.12-.34.2-.65.26v7.29h-2.46v-8.26ZM90.18,26.83h2.46v10.83c-.02.07-.21.2-.57.39-.36.19-.85.28-1.46.28h-.43v-11.5ZM93.37,21.92l3.24.97c-.05.16-.16.29-.31.39-.15.1-.38.14-.69.12-.34.54-.78,1.16-1.31,1.85-.53.69-1.08,1.34-1.63,1.93h-.43c.14-.5.29-1.07.43-1.69.14-.62.28-1.24.4-1.86.13-.62.23-1.19.3-1.71ZM98.44,15.11v-1.13l2.56,1.13h6.97v.76h-7.1v21.49c0,.09-.09.21-.27.36-.18.15-.42.29-.72.4-.3.12-.63.18-1.01.18h-.43V15.11ZM99.58,24.4h8.56v.76h-8.56v-.76ZM106.95,24.4h-.27l1.38-1.4,2.38,2.08c-.07.13-.18.22-.34.27-.15.05-.37.1-.66.13-.32,1.62-.81,3.22-1.47,4.81-.66,1.58-1.54,3.06-2.66,4.44-1.12,1.38-2.54,2.57-4.27,3.58l-.27-.35c1.28-1.12,2.34-2.41,3.17-3.87.84-1.47,1.5-3.03,1.98-4.7.49-1.66.83-3.33,1.03-4.98ZM102.44,24.4c.38,1.91.97,3.6,1.77,5.06.8,1.47,1.78,2.73,2.93,3.78,1.15,1.05,2.42,1.92,3.81,2.61l-.05.27c-.52.05-.99.26-1.39.62-.41.36-.72.85-.93,1.46-.94-.72-1.77-1.52-2.5-2.4s-1.36-1.88-1.89-2.98-.98-2.34-1.34-3.7c-.36-1.36-.64-2.88-.84-4.55l.43-.16ZM106.63,15.11h-.27l1.13-1.32,2.7,1.97c-.07.11-.21.22-.41.32-.2.11-.44.18-.73.22v3.65c0,.52-.07.99-.22,1.39-.14.41-.46.73-.94.97-.49.24-1.24.41-2.27.5-.02-.36-.07-.68-.16-.95-.09-.27-.23-.49-.43-.65-.2-.18-.47-.34-.81-.49s-.84-.26-1.48-.35v-.38c.56.04,1.03.06,1.42.08.39.02.76.04,1.12.05.36.02.62.03.78.03.22,0,.36-.04.45-.12s.12-.2.12-.36v-4.56Z"/><path class="cls-2" d="M113.54,23.97h20.36l1.62-2.11c.4.32.75.61,1.05.85.31.24.63.51.97.8.34.29.65.56.92.81-.07.29-.32.43-.73.43h-23.95l-.24-.78ZM118.67,13.47l3.65,1c-.05.16-.16.3-.32.41s-.39.16-.67.16c-.36.97-.81,1.96-1.36,2.97-.55,1.01-1.17,1.95-1.88,2.83-.7.88-1.48,1.66-2.32,2.32l-.35-.24c.5-.77.97-1.68,1.39-2.73.42-1.04.8-2.15,1.12-3.31.32-1.16.58-2.3.76-3.42ZM117.75,28.07v-1.13l2.73,1.13h12.47v.78h-12.66v8.64c0,.07-.11.18-.32.31-.22.13-.49.25-.81.35-.32.1-.67.15-1.03.15h-.38v-10.23ZM118.69,18.06h13.07l1.65-2.11c.4.32.75.61,1.05.85.31.24.63.5.97.78.34.28.66.55.94.82-.07.29-.32.43-.76.43h-16.93v-.78ZM118.75,35.39h14.31v.78h-14.31v-.78ZM124.66,13.22l3.65.32c-.02.18-.1.34-.24.47-.14.13-.4.23-.76.28v10.04h-2.65v-11.12ZM131.57,28.07h-.27l1.3-1.4,2.73,2.08c-.09.11-.23.22-.43.32-.2.11-.44.2-.73.27v8.1c0,.05-.12.14-.36.26-.24.12-.53.22-.86.31-.33.09-.64.14-.93.14h-.43v-10.07Z"/></svg>