<?xml version="1.0" encoding="UTF-8"?><svg id="_レイヤー_1" xmlns="http://www.w3.org/2000/svg" viewBox="0 0 241.79 54.28"><defs><style>.cls-1{fill:#9b003f;}.cls-2{fill:#fff;}</style></defs><rect class="cls-1" width="241.79" height="54.28" rx="10" ry="10"/><path class="cls-2" d="M41.36,36.02c-.74,0-1.42-.13-2.05-.39-.63-.26-1.2-.64-1.7-1.13-.5-.49-.96-1.08-1.38-1.77l.38-.38c.5.45,1.1.83,1.78,1.15.68.31,1.49.47,2.4.47,1.24,0,2.21-.36,2.92-1.07.7-.71,1.05-1.62,1.05-2.71,0-.65-.14-1.24-.42-1.77-.28-.53-.71-.96-1.3-1.3-.59-.33-1.35-.5-2.31-.5-.79,0-1.62.14-2.47.42-.85.28-1.7.64-2.52,1.08-.83.44-1.62.9-2.38,1.36-.5.32-1.04.72-1.61,1.17-.57.46-1.11.93-1.62,1.42-.51.49-.97.94-1.36,1.35-.47.45-.82.8-1.05,1.04s-.47.36-.7.36c-.22,0-.41-.05-.58-.15-.17-.1-.34-.23-.5-.39-.22-.23-.37-.48-.47-.73-.1-.25-.15-.51-.15-.78,0-.43.06-.72.19-.86.13-.14.36-.21.7-.19.36.04.65.02.88-.04.22-.06.46-.17.72-.31.32-.18.78-.48,1.36-.89.58-.41,1.22-.85,1.92-1.32.69-.47,1.37-.87,2.04-1.22,1.26-.67,2.56-1.24,3.91-1.71,1.35-.48,2.8-.72,4.35-.72,1.12,0,2.11.21,2.97.63.86.42,1.54,1.03,2.04,1.81.49.78.74,1.72.74,2.82,0,.94-.23,1.8-.69,2.59-.46.79-1.12,1.43-1.98,1.92-.86.49-1.9.73-3.1.73ZM29.73,23.96c-.5,0-.99-.08-1.44-.23-.46-.15-.88-.46-1.26-.92s-.72-1.14-1.03-2.04l.41-.3c.45.41.83.73,1.13.96.31.23.62.37.93.45.31.07.68.11,1.09.11.4-.02.84-.07,1.34-.16.49-.09,1-.21,1.53-.35.52-.14,1.01-.3,1.46-.46.74-.25,1.34-.5,1.81-.76.47-.25.85-.47,1.13-.65.29-.18.51-.27.68-.27.09,0,.23,0,.43.01.2,0,.4.05.61.12.21.07.38.17.53.3.14.13.22.32.24.59,0,.47-.32.87-.97,1.21-.34.18-.76.36-1.26.54-.5.18-1.01.36-1.54.54-.53.18-1.03.34-1.5.49-.29.07-.69.18-1.22.31s-1.07.25-1.63.35c-.57.1-1.06.15-1.47.15ZM32.89,37.51c-.27,0-.48-.09-.62-.28s-.28-.42-.42-.7c-.13-.28-.35-.55-.63-.82-.25-.25-.56-.52-.93-.81-.37-.29-.74-.57-1.12-.85-.38-.28-.73-.52-1.05-.72l.4-.54c.36.16.74.34,1.15.53.4.19.8.36,1.19.53.39.16.72.3,1.01.41.29.09.49.09.59-.01.11-.1.16-.27.16-.53v-7.37c0-.65,0-1.42.01-2.31,0-.89.01-1.78.01-2.67v-2.43c0-.73,0-1.26-.03-1.58,0-.36-.05-.6-.14-.72-.09-.12-.24-.21-.46-.28-.25-.11-.53-.18-.82-.2s-.64-.05-1.04-.07l-.05-.46c.34-.23.69-.41,1.05-.54.36-.13.76-.19,1.19-.19s.89.09,1.36.27c.48.18.9.4,1.26.65.36.25.54.5.54.73,0,.34-.08.65-.24.93-.16.28-.29.63-.38,1.07-.07.36-.14.84-.22,1.43s-.14,1.26-.2,1.98c-.06.73-.11,1.48-.15,2.24-.04.77-.05,1.51-.05,2.23,0,1.49.03,2.71.08,3.66.05.95.11,1.71.18,2.28.06.58.12,1.04.18,1.38.05.34.08.67.08.97,0,.43-.09.86-.27,1.3-.18.43-.41.79-.7,1.08-.29.29-.59.43-.92.43ZM47.9,23.63c-.22.04-.41,0-.59-.14-.18-.13-.37-.25-.57-.38-.2-.13-.43-.16-.7-.11-.27.02-.63.11-1.09.27-.46.16-.84.3-1.15.4l-.24-.4c.18-.11.41-.26.69-.45.28-.19.55-.38.81-.58.26-.2.45-.35.58-.46.16-.18.26-.35.28-.5.03-.15-.03-.34-.18-.55-.32-.47-.75-.83-1.27-1.08-.52-.25-1.09-.42-1.71-.51-.62-.09-1.23-.12-1.82-.08l-.05-.57c.61-.18,1.22-.31,1.84-.38.61-.07,1.25-.05,1.92.05.81.11,1.54.37,2.2.8.66.42,1.18.92,1.57,1.5.39.58.59,1.17.61,1.78.02.36-.06.68-.24.95-.18.27-.47.41-.86.43Z"/><path class="cls-2" d="M54.92,17.91v-1.19l2.83,1.19h15.93v.78h-16.15v12.61c0,.09-.11.21-.32.35-.22.14-.5.27-.84.38-.34.11-.69.16-1.05.16h-.4v-14.28ZM56.38,23.39h16.98v.78h-16.98v-.78ZM56.38,28.95h16.98v.76h-16.98v-.76ZM63.53,13.24l3.67.38c-.02.18-.09.34-.23.47-.13.14-.39.23-.77.28v22.95c0,.11-.11.24-.32.41-.22.16-.49.3-.82.42-.33.12-.66.18-.99.18h-.54V13.24ZM72.39,17.91h-.27l1.3-1.43,2.73,2.11c-.07.11-.21.22-.4.32-.2.11-.43.19-.7.24v11.88c0,.05-.13.14-.38.26-.25.12-.54.23-.88.32-.33.1-.65.15-.96.15h-.43v-13.85Z"/><path class="cls-2" d="M86.78,32.97c.47.49.96.88,1.47,1.17.51.3,1.09.52,1.74.68.65.15,1.41.26,2.28.31.87.05,1.91.08,3.12.08h3.39c1.21,0,2.44,0,3.67-.03,1.23-.02,2.4-.04,3.5-.08v.35c-1.04.25-1.64.99-1.78,2.21h-8.75c-1.26,0-2.35-.06-3.27-.18-.92-.12-1.72-.33-2.4-.63-.68-.31-1.29-.74-1.81-1.3-.52-.56-1.02-1.27-1.49-2.13-.4.45-.84.94-1.34,1.46-.5.52-.99,1.03-1.47,1.51-.49.49-.93.9-1.32,1.24.02.18,0,.32-.08.42-.07.1-.17.18-.3.26l-1.54-3.05c.54-.2,1.18-.45,1.92-.76.74-.31,1.5-.64,2.28-1,.78-.36,1.51-.7,2.17-1.03v.49ZM86.78,26.03v6.86l-2.46,1.4v-8.64h-3.67l-.16-.78h3.4l1.38-1.76,2.89,2.38c-.11.09-.27.19-.49.3-.22.11-.51.19-.89.24ZM81.73,14.05c1.28.27,2.31.62,3.09,1.05.78.43,1.35.9,1.71,1.39.36.5.56.97.59,1.42.04.45-.06.83-.28,1.15-.23.32-.53.5-.9.55s-.79-.07-1.24-.38c-.14-.58-.39-1.17-.73-1.78-.34-.61-.73-1.2-1.17-1.76-.44-.56-.88-1.04-1.31-1.46l.24-.19ZM95.77,17.31l1.84,4.43c-.52,1.57-1.27,3.09-2.23,4.56-.96,1.48-2.12,2.83-3.47,4.06-1.35,1.23-2.88,2.27-4.59,3.12l-.3-.35c1.48-1.06,2.81-2.39,4-3.98,1.19-1.59,2.19-3.39,3.01-5.4.82-2.01,1.4-4.15,1.74-6.44ZM90.02,15.23h6.34v.78h-6.1l-.24-.78ZM95.5,15.23h-.68l1.03-1.57,2.75,2c-.2.2-.49.36-.88.49-.39.13-.86.21-1.42.24.25,1.57.62,3.08,1.11,4.54.49,1.46,1.11,2.81,1.86,4.05s1.67,2.36,2.75,3.35c1.08.99,2.35,1.81,3.81,2.46l-.08.3c-.58.2-1.08.53-1.5.99s-.72.95-.88,1.47c-1.73-1.19-3.13-2.63-4.2-4.33-1.07-1.7-1.89-3.68-2.44-5.93-.56-2.25-.97-4.79-1.24-7.61v-.43Z"/><path class="cls-2" d="M113.67,37.27c-.31,0-.59-.1-.85-.31-.26-.21-.51-.48-.74-.82-.29-.41-.56-.94-.81-1.59-.25-.65-.46-1.39-.61-2.23-.15-.84-.23-1.75-.23-2.74,0-.94.08-1.87.23-2.79.15-.93.32-1.79.51-2.59.19-.8.36-1.47.5-2.01.18-.65.33-1.25.46-1.8.13-.55.19-1.08.19-1.61.02-.56-.12-1.1-.42-1.62-.3-.52-.64-1.02-1.04-1.48l.32-.3c.4.11.72.22.99.34.26.12.54.28.82.5.25.14.54.4.86.76.32.36.61.76.86,1.2.25.44.38.89.38,1.34,0,.34-.09.68-.28,1.03-.19.34-.45.86-.77,1.57-.27.56-.56,1.22-.86,2-.31.77-.56,1.61-.77,2.5-.21.89-.31,1.79-.31,2.69,0,.56.04,1.02.11,1.38.07.36.16.66.27.89.09.18.19.27.31.28.12,0,.24-.09.36-.28.16-.23.36-.58.59-1.05.23-.47.49-.98.76-1.54.27-.56.53-1.1.78-1.63.25-.53.46-.97.62-1.31l.62.3c-.13.36-.28.79-.46,1.28-.18.5-.36,1-.54,1.51s-.35.98-.5,1.4c-.15.42-.27.76-.34,1.01-.13.5-.22.91-.28,1.22-.06.31-.09.57-.09.78,0,.45.08.89.23,1.31.15.42.23.83.23,1.23,0,.81-.37,1.21-1.11,1.21ZM122.61,23.47c-.58,0-1.1-.06-1.58-.18-.48-.12-.94-.38-1.39-.8-.45-.41-.91-1.05-1.38-1.92l.35-.32c.61.41,1.22.73,1.82.96.6.23,1.23.34,1.88.34.86,0,1.66-.05,2.4-.16.74-.11,1.39-.25,1.97-.42.58-.17,1.06-.33,1.46-.47.79-.27,1.36-.49,1.7-.66.34-.17.57-.26.68-.26.4.02.79.12,1.19.31.4.19.59.45.59.8,0,.36-.11.63-.34.8-.23.17-.62.36-1.17.58-.31.11-.76.25-1.36.42-.6.17-1.28.33-2.04.47-.76.14-1.55.27-2.38.36-.83.1-1.63.15-2.4.15ZM122.96,36.65c-.81,0-1.55-.13-2.23-.39s-1.22-.64-1.63-1.15c-.41-.5-.62-1.12-.62-1.84,0-.85.26-1.53.77-2.07.51-.53,1.2-.92,2.05-1.17.85-.25,1.79-.38,2.79-.38,1.46,0,2.71.16,3.77.49,1.05.32,1.94.71,2.66,1.16.72.45,1.29.88,1.7,1.3.29.27.51.54.66.82.15.28.23.56.23.85,0,.38-.09.67-.26.88-.17.21-.42.31-.74.31-.25,0-.49-.09-.72-.27-.23-.18-.53-.45-.9-.81-.72-.68-1.47-1.26-2.24-1.73-.77-.47-1.6-.82-2.48-1.07-.88-.24-1.85-.36-2.89-.36-.52,0-1.03.08-1.53.23-.5.15-.9.36-1.22.63-.31.27-.47.6-.47,1,0,.56.26.96.77,1.2.51.24,1.13.36,1.85.36.95,0,1.67-.11,2.15-.34.48-.22.81-.56,1-1,.19-.44.28-.99.28-1.66,0-.38-.02-.87-.05-1.48-.04-.61-.07-1.29-.11-2.04-.04-.75-.07-1.52-.11-2.32-.04-.8-.05-1.56-.05-2.28v-5.35c0-.31-.02-.53-.07-.68-.04-.14-.11-.25-.19-.32-.08-.07-.2-.14-.36-.19-.27-.09-.57-.16-.9-.22s-.67-.1-1.01-.14l-.05-.49c.31-.2.67-.38,1.09-.55.42-.17.81-.26,1.15-.26.5,0,.99.08,1.47.24.48.16.87.36,1.17.59.31.23.46.47.46.7,0,.2-.02.37-.07.53-.04.15-.1.33-.18.53-.07.2-.13.48-.19.84-.07.32-.14.74-.19,1.24-.05.5-.09,1.06-.12,1.67-.03.61-.04,1.23-.04,1.86,0,1.39.04,2.67.14,3.85.09,1.18.18,2.24.28,3.17.1.94.15,1.71.15,2.32,0,.77-.17,1.44-.51,2.01-.34.57-.88,1-1.61,1.3-.73.3-1.68.45-2.85.45Z"/><path class="cls-2" d="M149.53,36.35c-1.85,0-3.38-.21-4.58-.63-1.2-.42-2.1-1.01-2.71-1.77-.61-.76-.97-1.66-1.07-2.7-.1-1.04,0-2.19.31-3.43l.62-.03c.04.92.14,1.75.32,2.48.18.74.51,1.37.99,1.9.48.53,1.16.94,2.04,1.21.88.28,2.03.42,3.46.42s2.67-.09,3.63-.28c.96-.19,1.73-.37,2.29-.55.57-.18.98-.27,1.23-.27.29,0,.6.05.93.15.33.1.62.25.85.46.23.21.35.46.35.77,0,.36-.09.63-.27.82-.18.19-.53.37-1.05.55-.68.23-1.65.44-2.9.62s-2.73.27-4.44.27ZM145.42,22.9c.59-.41,1.23-.86,1.9-1.35.67-.49,1.23-.89,1.66-1.22.25-.2.22-.3-.11-.3-.99-.02-1.89-.09-2.7-.22-.81-.13-1.54-.39-2.17-.8-.64-.41-1.2-1.04-1.69-1.9l.35-.35c.58.38,1.11.67,1.61.86.5.2,1.01.33,1.55.41.54.07,1.17.11,1.89.11.85,0,1.54-.03,2.09-.09.55-.06,1-.14,1.36-.23.36-.09.68-.17.95-.23.27-.06.56-.09.86-.09.29,0,.6.04.95.12.34.08.67.19.97.34.31.14.56.31.76.5s.3.39.3.61c0,.58-.41.95-1.22,1.11-.4.07-.83.15-1.31.24-.48.09-1,.23-1.58.43-.5.14-1.09.35-1.77.61-.68.26-1.39.56-2.13.89-.75.33-1.49.67-2.23,1.01l-.3-.46Z"/><path class="cls-2" d="M170.86,22.15c-.58,0-1.08-.04-1.51-.12-.43-.08-.82-.24-1.16-.47-.34-.23-.67-.58-.97-1.03-.31-.45-.62-1.04-.94-1.78l.43-.3c.49.45.95.81,1.39,1.07.44.26.9.45,1.38.57.48.12,1,.18,1.58.18.94,0,1.91-.09,2.92-.27,1.01-.18,1.96-.41,2.86-.67.9-.27,1.64-.56,2.21-.86.52-.29.92-.5,1.2-.65.28-.14.5-.22.66-.22s.36.02.58.05c.23.04.44.09.65.16.21.07.38.18.51.32.13.14.2.33.2.57,0,.31-.15.58-.45.82-.3.24-.72.47-1.28.69-.4.16-.95.35-1.66.57-.71.22-1.53.43-2.46.65-.93.22-1.92.39-2.97.53-1.05.14-2.11.2-3.17.2ZM173.18,36.62c1.04-.05,2.04-.18,2.98-.36s1.83-.43,2.66-.72c1.44-.47,2.56-1,3.36-1.61.8-.6,1.36-1.24,1.67-1.92s.47-1.34.47-1.98c0-.7-.16-1.32-.47-1.85-.31-.53-.75-.95-1.31-1.27-.56-.31-1.21-.47-1.97-.47s-1.47.15-2.2.46c-.73.31-1.44.7-2.13,1.19-.69.49-1.33,1.01-1.92,1.58-.59.57-1.11,1.12-1.58,1.66-.14.18-.29.4-.43.65-.14.25-.3.47-.46.66s-.36.28-.59.28c-.25,0-.49-.13-.72-.38-.23-.25-.41-.56-.55-.92-.14-.36-.22-.7-.22-1.03,0-.22.05-.4.15-.54.1-.14.25-.43.45-.86.16-.34.35-.85.55-1.53s.42-1.41.63-2.2c.22-.79.41-1.56.59-2.31.18-.75.33-1.38.46-1.9.13-.54.24-1.08.34-1.62.1-.54.19-1.04.27-1.5s.13-.82.15-1.09c.02-.29,0-.49-.08-.62-.07-.13-.23-.24-.46-.35-.2-.09-.43-.18-.69-.27-.26-.09-.56-.17-.9-.24l-.03-.49c.34-.13.67-.22.97-.3.31-.07.6-.11.89-.11.54,0,1.06.08,1.55.23.5.15.9.35,1.23.58.32.23.49.47.49.7,0,.22-.05.4-.16.54-.11.14-.23.32-.36.51-.13.2-.25.47-.34.81-.13.4-.26.85-.39,1.38-.13.52-.28,1.13-.45,1.84-.14.54-.3,1.13-.47,1.78-.17.65-.35,1.3-.53,1.96-.18.66-.35,1.26-.5,1.8-.15.54-.27.98-.36,1.32-.04.22-.04.35,0,.4.04.05.15,0,.35-.19,1.31-.88,2.57-1.59,3.78-2.13,1.21-.54,2.49-.81,3.86-.81s2.55.25,3.44.76c.89.5,1.56,1.16,2,1.97.44.81.66,1.68.66,2.62,0,1.03-.26,1.93-.77,2.7-.51.77-1.22,1.43-2.12,1.97-.9.54-1.94.96-3.1,1.27-1.17.31-2.4.5-3.7.59-1.3.09-2.6.08-3.92-.03l-.08-.62Z"/><path class="cls-2" d="M201.07,36.67c1.03-.09,2.02-.23,2.97-.43.95-.2,1.74-.4,2.35-.59,1.6-.52,2.85-1.1,3.75-1.73.9-.63,1.53-1.29,1.89-1.98.36-.69.54-1.39.54-2.09s-.16-1.36-.49-1.93c-.32-.57-.77-1.02-1.35-1.35-.58-.33-1.25-.5-2.03-.5s-1.51.16-2.27.47c-.76.32-1.49.73-2.2,1.24-.71.51-1.37,1.06-1.97,1.65-.6.59-1.13,1.15-1.58,1.69-.18.23-.35.48-.5.74-.15.26-.32.49-.49.67-.17.19-.39.28-.66.28-.41,0-.84-.25-1.27-.76-.22-.22-.38-.45-.49-.72-.11-.26-.16-.53-.16-.8,0-.23.04-.51.12-.84.08-.32.15-.7.2-1.13.07-.47.16-1.03.27-1.69.11-.66.22-1.3.32-1.94.11-.64.18-1.17.22-1.61.07-.47.1-.86.09-1.17,0-.31-.01-.63-.01-.96s.08-.63.24-.93c.16-.3.48-.49.95-.58.43-.11.96-.23,1.58-.38.62-.14,1.24-.31,1.85-.49.61-.18,1.08-.34,1.4-.49.34-.16.36-.42.05-.78-.34-.5-.84-.92-1.5-1.24s-1.41-.61-2.25-.86l.14-.49c1.31,0,2.38.11,3.2.34.82.23,1.49.5,2.01.82.68.41,1.19.88,1.53,1.4.33.52.5,1.11.5,1.76,0,.36-.09.64-.26.84-.17.2-.45.3-.82.3-.29,0-.54-.02-.76-.07-.22-.04-.46-.09-.72-.14-.26-.04-.6-.08-1.01-.09-.45,0-.94.02-1.46.07-.52.05-.99.1-1.42.16-.42.06-.75.12-.99.18-.23.04-.39.1-.47.2-.08.1-.12.21-.12.34,0,.18.06.43.19.74.13.32.2.64.22.99.02.36,0,.72-.07,1.07-.06.35-.14.75-.23,1.2-.11.56-.23,1.13-.35,1.73s-.18,1.15-.16,1.67c0,.29.12.35.35.19.59-.45,1.24-.89,1.93-1.32.69-.43,1.43-.82,2.2-1.17.77-.35,1.57-.63,2.39-.84.82-.21,1.64-.31,2.47-.31,1.4,0,2.56.27,3.48.82s1.61,1.25,2.08,2.11c.47.85.7,1.76.7,2.71,0,1.03-.27,1.93-.82,2.7-.55.77-1.3,1.44-2.24,1.98-.95.55-2.03.99-3.24,1.31s-2.49.54-3.82.63c-1.33.1-2.65.1-3.94.01l-.08-.62Z"/></svg>