<?xml version="1.0" encoding="UTF-8"?><svg id="_レイヤー_1" xmlns="http://www.w3.org/2000/svg" viewBox="0 0 410.76 33.6"><defs><style>.cls-1{fill:#1f1815;}</style></defs><path class="cls-1" d="M21.44,18.32l-.2-.08-.43.72.16.14c1.3,1.15,2.07,2.36,2.51,3.9q.47,1.71.56,1.89c.26.44.59.62,1.11.62.78,0,1.33-.65,1.33-1.58,0-2.24-1.83-4.29-5.03-5.61Z"/><path class="cls-1" d="M28.07,22.43l-.17-.1-.64.64.18.18c1.46,1.42,2.28,2.81,2.84,4.79q.51,2.06.59,2.28c.26.52.63.75,1.19.75.83,0,1.36-.65,1.36-1.65,0-2.4-1.85-4.78-5.36-6.88Z"/><path class="cls-1" d="M29.17,29.88c-.22-.11-.22-.14-.22-.31l.08-3.74-.96-.14-.05.23c-.51,2.57-.9,3.69-1.37,4-.4.28-1.48.42-3.19.42s-2.56-.13-2.69-.21c-.02-.01-.05-.03-.05-.04-.05-.09-.05-.66-.05-1.69,0-.77.05-2.21.1-3.88l.04-1.18.68-.24c.36-.16.72-.4.72-.91,0-.65-.66-.8-.89-.86l-3.11-.48.03.32c.07.78.11,1.17.11,1.77q0,.39-.18,5.95v1.4c0,2.1,1.14,2.33,5.63,2.33s6.42-.43,6.42-1.58c0-.56-.33-.8-1.03-1.19Z"/><path class="cls-1" d="M12.31,22.39c0-.33-.15-.5-.4-.75l-1.93-1.85-.92,1.32h-4.14l-2.34-1.34v.45c.05,1.11.05,1.5.05,2.36,0,2.44-.07,6.02-.18,8.91-.04.48-.04.87-.04,1.13,0,.18,0,.72.64.72.44,0,1.13-.15,1.38-.34.37-.15.37-.52.37-.73l.03-2.55h4.31l.03,2.04c0,.35.07.72.61.72.3,0,.87-.12,1.26-.26.3-.1.49-.37.49-.7l-.04-1.15c-.07-2.77-.11-5.11-.11-7.16l.31-.09c.39-.1.58-.34.58-.71ZM9.15,28.31h-4.3l.03-5.81h4.24l.03,5.81Z"/><path class="cls-1" d="M7.72,12.07H2.34v1.4h9.39c.44,0,.72-.27.72-.68,0-.29-.14-.46-.41-.69l-2.4-2.06-1.92,2.03Z"/><path class="cls-1" d="M12.45,3.78c0-.29-.14-.46-.41-.69l-2.4-2.06-1.92,2.03H2.34v1.4h9.39c.44,0,.72-.27.72-.68Z"/><path class="cls-1" d="M16.15,22.67l-.99-.13-.02.27c-.21,3.02-.56,4.02-1.82,5.32-.98.95-1.22,1.33-1.22,1.97,0,.77.61,1.4,1.36,1.4,1.81,0,2.94-2.21,2.94-5.77,0-.87-.03-1.49-.22-2.87l-.03-.19Z"/><path class="cls-1" d="M22.93,14.11c.39.55.74.79,1.17.79.57,0,1.07-.65,1.07-1.4,0-1.12-1.16-2.56-3.11-3.87.43-1.35.79-3.25.94-4.95h5.64l-.06,1.43c-.17,4.79-.49,7.6-1.03,9.14-.37,1.06-.63,1.27-1.66,1.27-.63,0-.88-.04-3.94-.57l-.23-.04-.25,1.02.21.08c1.36.48,1.69.62,2.67,1.01l.34.14c.22.08.34.16.34.93-.02.18-.02.44.16.63.18.19.45.21.67.21.76,0,1.75-.44,2.57-1.14,1.54-1.39,2.3-4.9,2.63-12.12l.03-.98.39-.16c.42-.18.87-.41.87-.88,0-.29-.19-.54-.47-.83l-2.29-2.13-1.13,1.6h-7.4c-3.08,0-4.27-.04-7.63-.18l-.47-.02,1.04,1.71.47-.02c1.71-.06,2.57-.1,4.15-.1h1.88c-.12,1.62-.28,2.7-.54,3.8-1.26-.58-2.87-1.15-4.68-1.64l-.25-.07-.21.93.2.08c2.01.82,3.19,1.49,4.43,2.54-1.42,4.17-3.49,6.71-7.33,9.03l-.2.12.46.92.22-.1c4.12-1.87,6.95-4.6,8.62-8.35.41.44.84.99,1.72,2.18Z"/><path class="cls-1" d="M12.38,17.19c0-.27-.11-.47-.37-.69l-2.4-2.06-1.92,2.03H2.27v1.4h9.39c.44,0,.72-.27.72-.68Z"/><path class="cls-1" d="M13.46,9.05c.39,0,.68-.29.68-.68,0-.27-.11-.47-.38-.69l-2.62-2.16-1.99,2.14h-1.11c-3.09-.04-4.13-.05-7.59-.25l-.45-.03,1.01,1.82h.16c2.21-.11,3.53-.15,5.22-.15h7.06Z"/><path class="cls-1" d="M38.27,12.14c1.88,0,3.19-2,3.19-4.88,0-.08,0-.13,0-.18h22.71l-.17.37c-.5,1.22-.61,1.47-1.56,3.16l-.11.19.79.61.15-.11c1.42-1.07,1.67-1.28,2.9-2.28l.09-.07h1.49c.86,0,1.29-.29,1.29-.86,0-.36-.18-.61-.54-.96l-2.99-3.03-1.28,1.6h-10.21v-2.62l.69-.24c.35-.18.71-.42.71-.87,0-.24-.09-.8-.89-.86l-3.24-.51.04.74c.03.48.05.86.05,1.63v2.73h-10.04c-.08-.44-.21-.85-.52-1.7l-.07-.19-1.04.12.04,1.19c0,1.48-.51,2.58-1.59,3.46-1.1.89-1.38,1.21-1.38,2.02,0,.91.62,1.54,1.5,1.54Z"/><path class="cls-1" d="M61.54,29.6c-2.82,0-5.86-.16-7.39-.39v-7.35h10.87c.44,0,.72-.27.72-.68,0-.31-.2-.52-.42-.7l-2.83-2.22-2.2,2.2h-6.14v-6.64h9.68c.42,0,.72-.29.72-.68,0-.29-.19-.5-.38-.7l-2.87-2.25-2.2,2.24h-9.51c-3.32,0-4.5-.04-8.38-.25l-.45-.02,1.01,1.82h.16c2.21-.11,3.53-.15,5.22-.15h4.3v14.84c-2.69-.81-5.28-3.05-6.83-5.93.18-.58.4-1.33.91-3.38l.7-.31c.4-.15.81-.38.81-.88,0-.56-.48-.77-.91-.89l-3.08-.71-.02.29c-.43,6.82-2.54,11.7-6.84,15.83l-.18.17.68.75.18-.15c3.84-3.08,5.77-5.55,7.21-9.22,1.79,3.03,3.95,5.1,6.59,6.31,2.22,1.05,7.15,1.71,12.87,1.71.85,0,2.22-.04,3.85-.11h.19s.04-.2.04-.2c.17-.78.75-1.58,1.63-2.26l.68-.52-.85.08c-3.23.28-4.78.36-7.54.36Z"/><path class="cls-1" d="M102.67,5.33c-1.26.08-2.21.12-2.8.12-.42,0-.9-.05-1.43-.13-1.09-.18-1.76-.2-2.52.03l-.1.03-.05.1c-.1.21-.17.44-.2.67v.08s.03.07.03.07c.14.24.28.38.44.44.1.04.31.08,1.1.11.51.07.88.11,1.09.12,1.28.24,1.49.4,1.52.43.05.07.21.44.21,2.37,0,.8.05,1.75.14,2.81.09,1.05.14,1.77.16,2.14.09,2.77.14,4.44.14,4.97l.04,2.68-.08,1.2c0,.07.01.44.11,2.59-.53-.56-.98-1.05-1.34-1.46l-4.71-5.22c-1.99-2.2-3.35-3.67-4.04-4.36-.68-.69-1.45-1.53-2.28-2.51l-.6-.72-4.16-4.59c-.13-.14-.25-.27-.34-.38-.48-.6-1.01-1.14-1.57-1.61l-.06-.05h-.08c-.24-.02-.42-.02-.55-.02-.16,0-.42.02-.8.06-.93.1-2.42.16-4.44.16h-.26l.03,1.39.18.05c.25.07.78.15,1.6.24.76.09,1.38.3,1.84.62.21.15.34.32.4.51.09.29.21,1.28.24,4.34l.04,5.59v2.68c.04,2.16.06,3.65.06,4.47,0,1.68-.07,2.98-.2,3.87-.12.13-.27.22-.46.29-.36.14-.95.27-1.76.38l-.93.14-.73.33.03.97.21.02c.24.03.39.04.56.04l.27-.02c.98-.07,2.15-.1,3.45-.1,1.85,0,3.44.05,4.72.16.45.06.68.08,1.15-.07l.17-.05.03-1.07-.13-.08c-.06-.03-.12-.08-.2-.15l-.05-.04h-.06c-1.21-.25-2.46-.43-3.68-.54l-.51-.12c-.04-.45-.07-.92-.08-1.4l-.14-6.52c-.13-4.47-.2-8.04-.2-10.57l.02-.22c.17.13.31.26.42.37.19.19.66.73,1.41,1.6,1.19,1.39,2.11,2.42,2.73,3.08,2.27,2.43,4.15,4.48,5.58,6.11l.43.43c.19.19.62.66,1.27,1.37l1.69,1.95c.23.27.66.73,1.29,1.37,2.69,2.77,4.29,4.44,4.74,4.95l.08.1,1.26-.11v-.22c.06-1.47.09-2.39.09-2.83,0-1.98-.04-4.36-.12-7.06l-.12-3.95.02-.85-.16-2.85-.22-6.22c0-.29.13-.58.41-.88.01-.01.12-.11.73-.3.3-.09.62-.14.97-.16.4-.02.71-.08.95-.19l.14-.06.07-1.03h-.6c-.28,0-.78.03-1.51.08Z"/><path class="cls-1" d="M127.22,5.91c-1.25-.6-2.94-.9-5.03-.9-1.17,0-2.21.04-3.09.12l-3.35.2c-.92.05-1.53.08-1.82.08-.2,0-.56,0-1.09-.02-1.04-.05-1.77-.08-2.22-.08-.07,0-.24.02-.49.06l-.12.02-.06.11c-.1.18-.15.35-.15.49,0,.13.04.28.12.46l.06.12.14.02c2.35.33,3.21.73,3.52,1,.13.11.35.47.35,1.6v.33c0,2.45.03,4.87.08,7.21.13,5.03.2,8.36.2,9.89,0,.48,0,.86-.02,1.13-.01.4-.02.66-.02.78,0,.63-.09.86-.14.93,0,.01-.1.12-.62.26l-2.77.53.04.98h.25c.62-.04,1-.05,1.12-.05l2.08.06,3.46-.14c.63,0,1.52.06,2.63.18.59.07.96.1,1.13.1.31,0,.51-.04.65-.13.14-.09.24-.27.31-.52l.03-.1-.05-.09c-.11-.18-.24-.3-.4-.36-.04-.01-.12-.05-1.2-.31-1.33-.3-2.21-.5-2.61-.61-.07-.3-.11-.71-.11-1.23,0-.26.02-.56.05-.9.03-.37.05-.62.05-.76l-.26-8.99v-1.13c-.08-.64-.12-2.32-.12-4.97,0-.72.01-1.27.04-1.62l.02-.41-.06-2.2v-.15c.23-.1.87-.25,2.66-.25.5,0,1.23.11,2.15.33.91.21,1.59.48,2.03.79.78.55,1.41,1.3,1.89,2.22s.72,1.89.72,2.86-.23,1.97-.68,2.88c-.45.89-1.12,1.59-2,2.08-.88.49-1.83.74-2.82.74-.65,0-1.19-.07-1.6-.22-.23-.09-.45-.14-.66-.14l-.1.02c-.14.06-.25.16-.33.3l-.05.09.03.1c.07.24.25.46.55.67.61.41,1.16.69,1.64.83.48.14,1.08.22,1.79.22,2.5,0,4.52-.78,6.01-2.32,1.48-1.54,2.24-3.39,2.24-5.5,0-1.27-.34-2.56-1.02-3.83-.69-1.29-1.67-2.25-2.94-2.85Z"/><path class="cls-1" d="M163.36,10.27c-1.09-1.38-2.2-2.42-3.3-3.09-1.09-.67-2.32-1.19-3.66-1.56-1.34-.37-2.72-.56-4.11-.56-2.06,0-3.8.22-5.16.66-1.92.64-3.45,1.38-4.54,2.21-1.1.83-2.04,1.89-2.82,3.13-.77,1.24-1.33,2.4-1.65,3.46-.33,1.06-.49,2.29-.49,3.65,0,1.65.26,3.2.76,4.6.51,1.4,1.26,2.7,2.24,3.86.98,1.16,1.94,2.04,2.87,2.64.93.59,2.1,1.1,3.48,1.52,1.38.41,2.98.62,4.74.62s3.38-.24,4.88-.71c1.5-.47,2.78-1.11,3.8-1.88,1.51-1.14,2.59-2.16,3.22-3.05.8-1.13,1.38-2.3,1.72-3.46.34-1.16.51-2.63.51-4.38,0-1.54-.26-3.06-.76-4.51-.39-1.11-.97-2.16-1.73-3.12ZM151.76,6.28c1.43,0,2.79.28,4.06.84,1.26.55,2.35,1.35,3.24,2.36.89,1.01,1.54,2.18,1.94,3.46.52,1.71.78,3.47.78,5.23,0,1.41-.16,2.83-.47,4.24-.31,1.4-.72,2.56-1.22,3.45-.5.88-1.2,1.68-2.09,2.37-.89.69-1.92,1.19-3.07,1.49-2.4.62-4.66.63-6.61-.15-1-.4-1.92-.99-2.73-1.74-.81-.76-1.5-1.64-2.06-2.63-.56-.99-1-2.17-1.32-3.52-.32-1.35-.49-2.58-.49-3.64s.16-2.2.49-3.53c.32-1.32.8-2.55,1.41-3.65.61-1.09,1.28-1.94,1.99-2.53.71-.59,1.63-1.08,2.74-1.46,1.11-.38,2.26-.58,3.42-.58Z"/><path class="cls-1" d="M178.25,6.83c.31,1,.52,1.43,1.28,1.43.86,0,1.5-.72,1.5-1.68,0-1.31-.96-2.57-2.58-3.38-.9-.45-1.54-.67-2.89-.99l-.19-.05-.42.84.23.11c1.45.69,2.48,1.94,3.06,3.72Z"/><path class="cls-1" d="M175.67,14.53l.15.56c.15.58.18.67.29.82.25.34.61.53.99.53.77,0,1.4-.71,1.4-1.58,0-1.23-.73-2.4-2.04-3.29-.73-.51-1.41-.81-2.9-1.25l-.24-.07-.23.78.16.1c1.2.79,1.89,1.75,2.44,3.41Z"/><path class="cls-1" d="M202.57,14.41l-2.31,2.46h-6.45v-6.64h9.79c.41,0,.72-.29.72-.68,0-.29-.19-.5-.38-.7l-2.87-2.25-2.2,2.24h-5.06V3.55l.62-.26c.61-.22.74-.6.74-.88,0-.72-.67-.82-.89-.86l-3.14-.48.02.31c.02.42.03.72.04,1.1,0,.26.02.56.03.97v5.38h-6.99l1.07-2.79-.95-.4-8.21,17.42-3.02-.15-.06,1.09.23.03c1.52.22,1.79.32,2.15.56.48.35.76,1.24.76,2.38,0,.44-.04,1.1-.07,1.63q-.14,2.12-.14,2.31c0,1.19.59,1.9,1.58,1.9s1.65-.76,1.65-1.94c0-.4-.07-.79-.18-1.44-.56-2.99-.64-3.54-.64-4.54,0-.43.05-.73.16-.99l2.13-5.65h9.95c-.47,1.95-2.09,6.3-3.91,10.44l-1.89.07c-1.1.07-1.32.07-3,.07h-.39l1.56,3.33c.18.41.48.65.8.65.41,0,.62-.28.8-.57l.3-.6c5.02-.7,12.43-1.87,15.33-2.42l.96-.17.02.05q.94,2.5,1.07,2.71c.34.46.73.68,1.24.68.82,0,1.47-.74,1.47-1.68,0-1.79-1.19-3.74-3.53-5.78-1.68-1.45-2.96-2.23-5.26-3.23l-.2-.09-.45.74.19.13c2.31,1.65,3.58,3.02,4.86,5.27l-.83.05c-3.61.32-9.26.68-11.34.75h-.07c1.52-2.65,1.55-2.78,1.55-2.79.79-1.54,1.55-3.11,2.3-4.63l1.47-2.98h11.53c.46,0,.75-.26.75-.68,0-.28-.17-.45-.41-.69l-2.98-2.48ZM191.22,10.23v6.64h-10.04l2.53-6.64h7.5Z"/><path class="cls-1" d="M227.7,17.7c-1.55-3.57-2.4-8.05-2.52-13.34l.34-.17c.63-.26.76-.66.76-.95,0-.59-.51-.74-1-.82l-3.08-.48.03.32c.13,1.59.18,2.72.18,4.64,0,7.6-1.03,12.97-3.15,16.4-2.04,3.25-5.12,5.68-10.65,8.37l-.22.11.53,1.12.22-.09c10.93-4.29,14.75-9.02,15.55-20.12,1.46,8.97,5.37,14.3,13.71,19.07l.2.12.13-.2c.66-1,1.26-1.5,2.4-1.99l.56-.24-.57-.22c-6.23-2.48-11.37-6.89-13.42-11.52Z"/><path class="cls-1" d="M273.63,27.21l-2.31,2.46h-1l-.07-8.11-.07-3.5.48-.13c.42-.15.7-.36.7-.84,0-.35-.1-.49-.51-.9l-2.4-2.24-1.2,1.74h-8.37l1.4-9.83h14.31c.44,0,.72-.27.72-.68,0-.29-.14-.46-.41-.69l-2.98-2.48-2.31,2.46h-15.2c-3.36,0-4.53-.04-8.38-.25l-.45-.03,1.01,1.82h.16c2.21-.11,3.53-.15,5.22-.15h5.63l-1.4,9.83h-.97c-3.06,0-4.3-.04-7.63-.18l-.47-.02,1.04,1.71.56-.02c1.64-.06,2.47-.09,4.06-.09h3.23l-1.79,12.59h-1.33c-3.36,0-4.53-.04-8.38-.25l-.45-.03,1.01,1.82h.16c2.21-.11,3.53-.15,5.22-.15h25.85c.44,0,.72-.27.72-.68,0-.29-.14-.46-.41-.69l-2.98-2.48ZM267.52,29.67h-10.61l1.79-12.59h8.75l.07,12.59Z"/><path class="cls-1" d="M299.81,21.53h11.16c.41,0,.68-.27.68-.68,0-.29-.19-.51-.38-.7l-2.83-2.26-2.2,2.24h-7.35l.03-1.98.6-.23c.57-.23.69-.6.69-.88,0-.31-.15-.7-.86-.82l-3.1-.44.02.31c.07,1,.07,1.27.07,3.39v.65h-4.16c-3.35,0-4.53-.04-8.41-.25l-.45-.03,1.01,1.82h.16c2.19-.11,3.56-.15,5.26-.15h4.43c-3.18,3.94-8.45,8.05-13,10.1l-.26.12.54.88.19-.07c5.72-2.2,10.8-5.58,14.72-9.81l-.07,5.56-.04,3.62v.68c0,.48,0,.93.61.93.4,0,1.39-.18,1.71-.36.26-.16.37-.36.37-.68l-.11-7.85.02-2.31c2.72,4.07,7.3,7.46,12.69,9.36l.19.07.11-.17c.61-.95,1.17-1.42,2.3-1.95l.7-.33-.76-.14c-6.59-1.23-11.4-3.81-14.29-7.64Z"/><path class="cls-1" d="M299.87,11.77c2.05-1.75,3.8-3.6,5.19-5.5l1.32-.2c.42-.11.73-.46.73-.85s-.26-.64-.49-.8l-2.64-2.17-1.34,1.72h-8.73c.04-.07.09-.15.14-.25l.4-.68.81-.16c.48-.14.75-.45.75-.85,0-.54-.5-.74-.65-.8l-2.87-1.22-.08.27c-1.62,5.4-5.55,10.85-10.78,14.94l-.18.14.55.82.21-.13c3.79-2.32,7.69-6,10.01-9.44,1.37,2.14,2.55,3.56,4.21,5.05-4.13,3.25-8.51,5.44-15.04,7.52l-.24.08.32,1.03.23-.06c7.38-1.79,12.03-3.8,16.51-7.14,2.98,2.04,6.29,3.45,12.97,5.52l.18.06.1-.16c.73-1.15,1.4-1.72,2.76-2.35l.82-.38-.9-.1c-4.98-.55-11.02-2.21-14.29-3.92ZM302.26,5.36c-1.21,1.76-2.75,3.53-4.47,5.13-1.84-1.28-3.59-3.08-4.86-4.98l.1-.15h9.22Z"/><path class="cls-1" d="M340.45,7.91c-.18,0-.39.07-.63.21-.85.5-.98.55-1.48.73l-.16.06c-2.2.46-3.37.64-4.04.64-.24,0-.37-.01-.52-.06l.05-.11c.14-.26.24-.47.3-.59v-.03c.08-.09.15-.21.23-.33.11-.17.25-.39.35-.49.22-.3.3-.42.3-.65,0-.57-.57-1.17-1.84-1.97-.86-.52-1.47-.72-2.25-.72-.71,0-1.08.19-1.08.57,0,.32.3.44.4.48.72.33,1,.8,1,1.67,0,2.41-4.51,8.76-8.18,11.52-.64.46-.78.6-.78.88,0,.33.22.54.57.54.42,0,1.72-.77,2.69-1.48,2.83-2.02,5.37-4.74,7.56-8.09.56.39.88.5,1.33.5.31,0,.63-.04,1.84-.26,1.99-.39,2.27-.43,2.57-.43.13,0,.36.04.36.32,0,.23-.17.73-.52,1.48-1.19,2.66-3.12,5.53-5.3,7.89-3.48,3.73-7.42,6.54-12.04,8.58-.52.23-.83.39-.83.8,0,.33.26.57.61.57.31,0,1.21-.27,2.21-.66,4-1.56,7.47-3.64,10.33-6.18,3.35-2.99,5.42-5.79,8.49-11.47.25-.32.29-.33.63-.51.7-.35.93-.48.93-.87,0-.66-2.47-2.58-3.12-2.58Z"/><path class="cls-1" d="M370.85,11.06c-.13,0-.27.05-.45.11l-.15.05c-1.25.56-1.45.62-3.4.84-.68.07-2.58.29-4.66.54-2.92.34-4.44.5-5.21.5-1.27,0-2.19-.38-2.57-1.03-.1-.23-.22-.44-.48-.44-.24,0-.5.2-.5.64,0,.85.31,1.74.82,2.32.63.66,1.6,1.37,2.26,1.37.23,0,.38-.05.88-.23,2.32-.87,9.37-2.21,11.6-2.21.79,0,.79.35.79.47,0,.29-.14,1.07-1.09,3.01-1.13,2.33-2.58,4.29-4.72,6.35-2.95,2.81-5.92,4.62-9.34,5.72-.25.08-.6.2-.6.6,0,.33.27.57.64.57.28,0,.71-.11,1.75-.37,1.93-.56,3.4-1.21,5.43-2.43,2.95-1.71,4.76-3.27,6.92-5.98,1.59-1.95,2.51-3.39,4.27-6.7.8-.59,1.06-.82,1.06-1.21,0-.65-2.58-2.51-3.26-2.51Z"/><path class="cls-1" d="M359.7,8.91c1.09,0,2.55-.17,4.45-.51,3.09-.53,3.35-.57,4.54-.72,1.55-.18,2.23-.32,2.23-.93,0-.51-.38-.83-.95-1.15h0c-1.03-.54-1.44-.71-1.87-.71-.3,0-.47.05-.99.27-1.9.75-5.56,1.42-7.83,1.42-1.21,0-1.76-.19-2.23-.75-.14-.21-.31-.25-.42-.25-.21,0-.39.18-.39.39,0,.38.35,1.14.69,1.65.66.93,1.44,1.29,2.79,1.29Z"/><path class="cls-1" d="M406.17,2.67c-.67,0-1.33.04-1.33.5,0,.25.22.33.42.42,1.5.52,2.3,1.19,3.17,2.65.24.42.51.7,1.04.7.71,0,1.29-.64,1.29-1.43,0-1.51-2.14-2.83-4.59-2.83Z"/><path class="cls-1" d="M402.65,4.32c-1.36,0-1.36.38-1.36.5,0,.28.24.38.42.45,1.42.47,2.4,1.26,3.16,2.54.29.53.58.74,1.04.74.71,0,1.29-.64,1.29-1.43,0-1.52-2.08-2.8-4.55-2.8Z"/><path class="cls-1" d="M404.02,9.06c-1.61-1.16-2.11-1.45-2.55-1.45-.33,0-.45.07-1.02.43-.63.37-.84.43-4.21.9-2.81.39-6.61.75-7.82.75s-2.18-.41-2.47-1.12c-.08-.16-.18-.35-.44-.35-.2,0-.54.13-.54,1s.36,1.73.95,2.23c.62.54,1.56.99,2.06.99.27,0,.34-.02,1.06-.3,2.23-.83,8.32-1.89,10.85-1.89.83,0,.83.2.83.4,0,.5-.61,2.28-1.37,3.73-1.6,3.21-4.15,6.43-6.82,8.63-2.56,2.09-6.48,4.24-9.33,5.12-.35.14-.59.24-.59.59s.21.57.54.57c.7,0,3.48-.85,5.23-1.6,7.27-3.03,11.22-7.11,15.63-16.15.06-.06.43-.33.76-.51.29-.18.51-.35.51-.75s-.24-.58-1.25-1.24Z"/></svg>