<?xml version="1.0" encoding="UTF-8"?><svg id="_レイヤー_1" xmlns="http://www.w3.org/2000/svg" viewBox="0 0 1315.58 47.32"><defs><style>.cls-1{fill:#1f1815;}</style></defs><path d="M358.73,35.3c-1.24,3.38-1.95,5.98-1.95,6.89,0,1.56,1.3,2.21,4.35,2.34v2.08c-2.92-.26-4.48-.32-7.08-.32s-4.03.06-6.5.32v-2.08c2.47-.13,3.45-.52,4.36-1.62.98-1.43,1.1-1.69,5.98-13.65l5.2-13.59c.98-2.6,2.02-5.27,3.06-8.06.91-2.28,1.1-2.73,2.27-5.92l3.45-1.62.39,1.17c.46,1.56.91,3.12,1.43,4.68.39,1.3.78,2.53,1.23,3.77l7.28,21.97c4.1,12.16,4.29,12.48,9.04,12.87v2.08c-3.31-.26-5.14-.32-7.35-.32-2.47,0-3.58.06-8.19.32v-2.08c3.06-.13,4.29-.72,4.29-2.02,0-.71-.52-2.79-1.1-4.75l-3.19-9.75h-14.37l-2.6,7.28ZM374.92,25.61l-5.98-18.59-6.69,18.59h12.68Z"/><path d="M435.63,13.59c-1.62-6.96-6.24-10.4-14.04-10.4-11.25,0-19.11,8.45-19.11,20.61s7.93,20.93,19.11,20.93c5.4,0,9.75-1.89,12.16-5.2,1.17-1.63,1.89-3.38,2.6-6.24l2.02.13-1.62,10.34c-5.92,2.54-10.73,3.58-15.99,3.58-14.43,0-24.25-9.36-24.25-23.08S406.77.58,420.55.58c4.29,0,8.39.78,15.93,2.99l1.1,9.69-1.95.32Z"/><path d="M449.08,0c2.08,1.3,4.42,1.56,12.55,1.56,15.21,0,18.07-.2,21.13-1.56h1.11c-1.11,3.9-1.95,7.28-2.34,9.62h-1.95c.13-.91.2-1.43.2-2.08,0-2.8-1.1-3.51-5.33-3.51h-7.6v31.53q.13,7.09,1.17,8c.72.65,2.15.98,3.97.98h.65v2.08c-3.77-.26-5.66-.32-7.87-.32s-3.19.06-8.65.32v-2.08h.39c1.82,0,3.25-.32,3.97-.98q1.04-.91,1.17-8V4.03h-4.62c-6.5,0-8.19.91-10.08,5.59h-1.95c1.1-2.86,1.82-5.14,2.93-9.62h1.17Z"/><path d="M491.01,1.3c3.25.26,4.94.32,8,.32s4.75-.06,8.39-.32v2.02h-.52c-1.82,0-3.25.39-3.96,1.04q-1.04.91-1.17,8v23.21q.13,7.09,1.17,8c.71.65,2.15.98,3.96.98h.52v2.08c-5.01-.26-6.57-.32-8.84-.32s-4.16.06-7.54.32v-2.08h.52c1.82,0,3.25-.32,3.97-.98q1.04-.91,1.17-8V12.35q-.13-7.09-1.17-8c-.72-.65-2.15-1.04-3.97-1.04h-.52V1.3Z"/><path d="M547.23,12.22c1.3-3.25,1.95-5.4,1.95-6.44,0-1.69-.97-2.28-4.23-2.47V1.3c2.54.26,4.42.32,7.02.32s3.96-.06,6.11-.32v2.02c-4.35.19-5.13,1.1-8.71,10.73l-8.32,20.67c-.58,1.43-1.17,2.86-1.76,4.36-1.69,4.36-2.67,6.96-2.99,7.74h-.91c-.91-2.73-1.95-5.46-3.97-10.47l-7.87-19.89c-3.77-9.43-4.1-10.14-4.81-11.05-1.04-1.3-2.41-1.95-4.49-2.08V1.3c4.1.26,5.53.32,7.8.32s4.1-.06,7.61-.32v2.02c-2.99.26-4.1.97-4.1,2.67,0,1.1.19,1.82,1.37,4.75l10.4,26.46,9.88-24.96Z"/><path d="M564.97,1.3c3.25.26,4.94.32,8,.32s4.75-.06,8.39-.32v2.02h-.52c-1.82,0-3.25.39-3.96,1.04q-1.04.91-1.17,8v23.21q.13,7.09,1.17,8c.71.65,2.15.98,3.96.98h.52v2.08c-5.01-.26-6.57-.32-8.84-.32s-4.16.06-7.54.32v-2.08h.52c1.82,0,3.25-.32,3.97-.98q1.04-.91,1.17-8V12.35q-.13-7.09-1.17-8c-.72-.65-2.15-1.04-3.97-1.04h-.52V1.3Z"/><path d="M592.66,0c2.08,1.3,4.42,1.56,12.55,1.56,15.21,0,18.07-.2,21.13-1.56h1.11c-1.11,3.9-1.95,7.28-2.34,9.62h-1.95c.13-.91.2-1.43.2-2.08,0-2.8-1.1-3.51-5.33-3.51h-7.6v31.53q.13,7.09,1.17,8c.72.65,2.15.98,3.97.98h.65v2.08c-3.77-.26-5.66-.32-7.87-.32s-3.19.06-8.65.32v-2.08h.39c1.82,0,3.25-.32,3.97-.98q1.04-.91,1.17-8V4.03h-4.62c-6.5,0-8.19.91-10.08,5.59h-1.95c1.1-2.86,1.82-5.14,2.93-9.62h1.17Z"/><path d="M631.6,1.3c2.34.26,4.23.32,7.28.32s5.2-.06,8.06-.32v1.82c-2.67.2-3.64.78-3.64,2.21,0,1.04.39,1.89,2.08,5.01l7.87,14.3,6.76-12.74q2.67-5.33,2.67-6.44c0-1.5-1.17-2.28-3.58-2.34v-1.82c2.54.26,4.1.32,6.44.32s4.29-.06,6.83-.32v1.82c-4.23.2-5.53,1.43-9.49,8.91l-8.39,15.54v8c0,6.44.06,7.09,1.17,8,.72.65,2.15.98,3.97.98h.52v2.08c-3.19-.26-5.4-.32-8.65-.32s-5.07.06-7.87.32v-2.08h.58c1.82,0,3.25-.32,3.97-.98,1.1-.98,1.17-1.56,1.17-8v-7.67l-10.66-18.98c-2.34-4.49-3.64-5.53-7.09-5.79v-1.82Z"/><path d="M737.48,46.61c-5.52,0-5.98-.2-8.71-4.16l-12.03-17.16c-1.95.2-2.73.26-3.64.26-.45,0-.84,0-1.88-.06v10.08q.13,7.09,1.17,8c.71.65,2.15.98,3.97.98h.58v2.08c-3.77-.26-5.72-.32-8.19-.32s-4.42.06-8.19.32v-2.08h.46c1.82,0,3.25-.32,3.96-.98q1.04-.91,1.17-8V12.35q-.13-7.09-1.17-8c-.71-.65-2.14-1.04-3.96-1.04h-.46V1.3c2.67.26,4.03.32,5.98.32,1.75,0,2.47,0,7.67-.39,1.62-.07,3.19-.13,4.62-.13,3.83,0,6.44.91,8.52,3.06,1.88,2.01,2.92,4.68,2.92,7.74,0,3.97-1.75,7.61-4.75,9.95-1.17.91-2.15,1.43-4.03,2.15l.52.72,1.17,1.5.97,1.43,6.57,8.78c5.72,7.54,6.3,8,10.21,8.39v1.82h-3.45ZM711.22,23.21c1.11.06,1.62.06,2.15.06,7.34,0,11.9-3.9,11.9-10.21,0-5.98-4.16-9.56-11.05-9.56-.65,0-.84,0-2.79.13-.07,2.28-.07,2.8-.13,4.23l-.07,4.16v11.18Z"/><path d="M776.22,10.92c-.58-3.25-1.04-4.29-2.21-5.14-1.75-1.3-4.36-1.76-10.01-1.76q-6.11,0-6.11,2.15v15.93h6.17c7.35,0,8.65-.85,8.65-5.59h1.95c-.13,2.34-.2,3.38-.2,5.53,0,3.31.07,4.94.39,7.8h-2.15c-.13-4.81-1.11-5.33-9.36-5.33h-5.46v9.3c0,5.92.13,7.41.65,8.32.85,1.3,2.93,1.69,9.56,1.69,8.19,0,10.27-1.3,11.96-7.48l1.89.39-2.34,9.88c-5.66-.26-12.09-.39-15.93-.39-5.33,0-13.07.2-16.51.39v-2.08h.39c1.82,0,3.25-.32,3.97-.98q1.04-.91,1.17-8V12.35q-.13-7.09-1.17-8c-.72-.65-2.15-1.04-3.97-1.04h-.39V1.3c4.29.26,6.96.32,13.85.32s8.51-.06,16.12-.32l.98,9.23-1.89.39Z"/><path d="M803.91,24.83c6.63-.46,10.47-4.42,10.47-10.99,0-3.19-1.04-5.85-3.06-7.67-2.14-1.95-4.48-2.67-8.64-2.67h-2.93c-.06,2.73-.06,3.45-.13,4.55l-.06,4.42v23.08q.13,7.09,1.17,8c.71.65,2.14.98,3.96.98h.65v2.08c-3.71-.26-5.79-.32-8.71-.32s-4.75.06-7.93.32v-2.08h.58c1.82,0,3.25-.32,3.96-.98q1.04-.91,1.17-8V12.35q-.13-7.15-1.17-8c-.71-.65-2.14-1.04-3.96-1.04h-.58V1.3c2.41.13,3.58.13,5.13.13q2.02,0,9.1-.32c1.04-.06,2.21-.06,3.51-.06,5.07,0,7.74.91,10.01,3.45,1.88,2.08,2.92,4.94,2.92,8.13,0,8.45-6.24,14.17-15.47,14.17v-1.95Z"/><path d="M874.83,24.18c0,13.13-10.27,23.14-23.79,23.14s-23.4-10.01-23.4-23.47,10.27-23.27,24.25-23.27c13,0,22.95,10.21,22.95,23.6ZM833.55,23.21c0,12.55,7.74,21.84,18.14,21.84s17.36-8.45,17.36-19.89c0-5.53-1.62-10.99-4.42-15.02-3.32-4.75-7.93-7.15-13.72-7.15-9.95,0-17.36,8.65-17.36,20.22Z"/><path d="M920.65,46.61c-5.52,0-5.98-.2-8.71-4.16l-12.03-17.16c-1.95.2-2.73.26-3.64.26-.46,0-.84,0-1.88-.06v10.08q.13,7.09,1.17,8c.71.65,2.15.98,3.97.98h.58v2.08c-3.77-.26-5.72-.32-8.19-.32s-4.42.06-8.19.32v-2.08h.46c1.82,0,3.25-.32,3.96-.98q1.04-.91,1.17-8V12.35q-.13-7.09-1.17-8c-.71-.65-2.14-1.04-3.96-1.04h-.46V1.3c2.67.26,4.03.32,5.98.32,1.75,0,2.47,0,7.67-.39,1.62-.07,3.19-.13,4.62-.13,3.83,0,6.44.91,8.52,3.06,1.88,2.01,2.92,4.68,2.92,7.74,0,3.97-1.75,7.61-4.75,9.95-1.17.91-2.15,1.43-4.03,2.15l.52.72,1.17,1.5.97,1.43,6.57,8.78c5.72,7.54,6.3,8,10.21,8.39v1.82h-3.45ZM894.39,23.21c1.11.06,1.62.06,2.15.06,7.34,0,11.9-3.9,11.9-10.21,0-5.98-4.16-9.56-11.05-9.56-.65,0-.84,0-2.79.13-.07,2.28-.07,2.8-.13,4.23l-.07,4.16v11.18Z"/><path d="M932.41,0c2.08,1.3,4.42,1.56,12.54,1.56,15.21,0,18.07-.2,21.13-1.56h1.11c-1.11,3.9-1.95,7.28-2.34,9.62h-1.95c.13-.91.19-1.43.19-2.08,0-2.8-1.1-3.51-5.33-3.51h-7.61v31.53q.13,7.09,1.17,8c.71.65,2.14.98,3.96.98h.65v2.08c-3.77-.26-5.66-.32-7.87-.32s-3.18.06-8.64.32v-2.08h.39c1.82,0,3.25-.32,3.96-.98q1.04-.91,1.17-8V4.03h-4.62c-6.5,0-8.19.91-10.08,5.59h-1.95c1.11-2.86,1.82-5.14,2.93-9.62h1.17Z"/><rect class="cls-1" x="1006.77" y="22.57" width="308.81" height="1.5"/><rect class="cls-1" y="22.57" width="308.81" height="1.5"/></svg>