<?xml version="1.0" encoding="UTF-8"?><svg id="_レイヤー_1" xmlns="http://www.w3.org/2000/svg" viewBox="0 0 1316.83 48.41"><defs><style>.cls-1{fill:#1f1815;}</style></defs><path d="M502.16,19.6h-.68l2.86-2.5,4.37,4.16c-.21.24-.49.41-.83.49-.35.09-.87.15-1.56.18-3.4,6.45-8.22,11.94-14.46,16.48-6.24,4.54-14.23,7.83-23.97,9.88l-.36-.83c5.62-1.73,10.7-3.95,15.26-6.66,4.56-2.7,8.48-5.84,11.75-9.41,3.28-3.57,5.82-7.5,7.62-11.8ZM468.41,9.05h38.22l2.86-3.64c.73.55,1.37,1.05,1.92,1.48.55.43,1.13.9,1.74,1.4.61.5,1.17.98,1.69,1.43-.14.56-.61.83-1.4.83h-44.62l-.42-1.51ZM471.79,19.6h32.45v1.51h-31.98l-.47-1.51ZM480.84,19.97c1.35,3.33,3.19,6.32,5.51,8.97,2.32,2.65,5.03,4.97,8.11,6.94,3.08,1.98,6.44,3.63,10.06,4.97,3.62,1.33,7.38,2.4,11.26,3.2l-.05.57c-.97.14-1.81.51-2.52,1.12-.71.61-1.24,1.43-1.59,2.47-5.03-1.42-9.62-3.34-13.78-5.75-4.16-2.41-7.76-5.42-10.79-9.05-3.03-3.62-5.38-7.91-7.05-12.87l.83-.57ZM489.26.36l6.19.57c-.04.38-.2.7-.49.96-.29.26-.77.44-1.43.55v17.94h-4.26V.36Z"/><path d="M523.58,27.2c.97-.31,2.38-.82,4.24-1.53,1.85-.71,3.97-1.53,6.34-2.47,2.37-.94,4.79-1.92,7.25-2.96l.26.68c-1.63,1.18-3.68,2.61-6.16,4.29-2.48,1.68-5.37,3.54-8.66,5.59-.17.69-.52,1.16-1.04,1.4l-2.24-4.99ZM538.82,9.05c.97.83,1.78,1.55,2.42,2.16.64.61,1.2,1.19,1.69,1.74-.1.55-.55.83-1.35.83h-17.21l-.42-1.56h12.58l2.29-3.17ZM536.84.99c-.03.35-.2.64-.49.88-.29.24-.77.42-1.43.52v40.04c0,1.08-.12,2.02-.36,2.83-.24.81-.76,1.46-1.56,1.95-.8.48-2.06.81-3.8.99-.04-.69-.13-1.31-.29-1.85-.16-.54-.41-.98-.75-1.33-.35-.38-.83-.7-1.46-.96-.62-.26-1.46-.48-2.5-.65v-.78c.94.07,1.74.12,2.42.16.68.03,1.31.07,1.9.1.59.03,1,.05,1.25.05.45,0,.75-.07.91-.21.16-.14.23-.38.23-.73V.31l5.93.68ZM552.96,17.37c-.52,4.3-1.42,8.32-2.7,12.06s-3.1,7.14-5.46,10.19c-2.36,3.05-5.41,5.72-9.15,8.01l-.52-.62c2.98-2.53,5.41-5.35,7.28-8.45,1.87-3.1,3.29-6.43,4.26-9.98.97-3.55,1.61-7.29,1.92-11.21h4.37ZM567.36,20.7c1.04.8,1.91,1.5,2.6,2.11.69.61,1.33,1.19,1.92,1.74-.14.55-.61.83-1.4.83h-30.94l-.42-1.56h25.74l2.5-3.12ZM561.38,29.38l2.5-2.29,4,3.69c-.35.38-1.07.61-2.18.68-2.08,4.33-5.14,7.91-9.18,10.74-4.04,2.83-9.3,4.9-15.78,6.21l-.36-.83c5.65-1.7,10.28-4.06,13.88-7.1,3.61-3.03,6.15-6.73,7.64-11.1h-.52ZM565.49,14.2c.97.8,1.79,1.47,2.47,2.03.68.56,1.29,1.09,1.85,1.61-.1.55-.56.83-1.35.83h-26.52l-.42-1.51h21.58l2.39-2.96ZM568.87,4.68c-.28.24-.66.36-1.14.34-.49-.02-1.06-.16-1.72-.44-2.01.38-4.35.73-7.02,1.04-2.67.31-5.45.55-8.35.7-2.9.16-5.76.22-8.61.18l-.1-.83c1.98-.24,4.03-.55,6.16-.91,2.13-.36,4.21-.79,6.24-1.27,2.03-.49,3.93-.99,5.69-1.51s3.28-1.04,4.52-1.56l4.32,4.26ZM543.29,7.96c1.59.66,2.86,1.37,3.8,2.13.94.76,1.6,1.52,2,2.26.4.75.59,1.42.57,2.03-.02.61-.18,1.1-.49,1.48-.31.38-.71.58-1.2.6-.49.02-1.01-.18-1.56-.6-.14-.83-.42-1.71-.83-2.63-.42-.92-.88-1.81-1.38-2.68-.5-.87-1.01-1.63-1.53-2.29l.62-.31ZM563.72,29.38v1.51h-15.6l.73-1.51h14.87ZM549.68,29.48c1.14,2.74,2.81,5.09,4.99,7.05,2.18,1.96,4.73,3.55,7.64,4.78,2.91,1.23,6.05,2.16,9.41,2.78v.57c-1.7.35-2.81,1.51-3.33,3.48-3.26-1.04-6.16-2.36-8.71-3.95s-4.73-3.56-6.55-5.9c-1.82-2.34-3.25-5.14-4.29-8.4l.83-.42ZM551.24,6.81c1.56.76,2.77,1.57,3.64,2.42.87.85,1.47,1.66,1.82,2.44.35.78.49,1.49.42,2.13-.07.64-.29,1.15-.65,1.53-.36.38-.8.57-1.3.57s-1.03-.24-1.59-.73c-.07-1.35-.41-2.77-1.01-4.26-.61-1.49-1.26-2.77-1.95-3.85l.62-.26ZM568.09,8.01c-.1.24-.31.46-.62.65-.31.19-.75.27-1.3.23-1.04,1.6-2.16,3.22-3.35,4.86-1.2,1.65-2.38,3.08-3.56,4.29l-.73-.47c.42-.97.86-2.1,1.33-3.38.47-1.28.95-2.63,1.46-4.06.5-1.42.96-2.81,1.38-4.16l5.41,2.03Z"/><path d="M605.06,3.48c-1.25,1.87-2.81,3.77-4.68,5.69s-3.94,3.8-6.21,5.62c-2.27,1.82-4.65,3.49-7.12,5.02-2.48,1.53-4.97,2.83-7.46,3.9l-.31-.68c2.15-1.28,4.37-2.85,6.66-4.71,2.29-1.85,4.45-3.85,6.5-5.98,2.04-2.13,3.83-4.26,5.36-6.4,1.53-2.13,2.62-4.12,3.28-5.95l7.18,1.77c-.07.31-.28.55-.62.7-.35.16-.88.27-1.61.34,1.18,1.6,2.6,3.1,4.26,4.52,1.66,1.42,3.48,2.74,5.46,3.95,1.98,1.21,4.04,2.32,6.19,3.33,2.15,1.01,4.32,1.91,6.5,2.7l-.05.78c-.62.14-1.21.41-1.74.81-.54.4-.98.86-1.33,1.38s-.57,1.06-.68,1.61c-2.74-1.39-5.37-3.02-7.9-4.91-2.53-1.89-4.8-3.98-6.81-6.27-2.01-2.29-3.62-4.7-4.84-7.23ZM580.62,45.19h38.27l2.91-3.74c.69.55,1.33,1.06,1.9,1.51.57.45,1.17.93,1.79,1.43.62.5,1.2.98,1.72,1.43-.14.55-.64.83-1.51.83h-44.62l-.47-1.46ZM583.12,27.72h33.96l2.81-3.43c.66.52,1.25.99,1.77,1.4.52.42,1.07.86,1.66,1.33.59.47,1.13.91,1.61,1.33-.14.55-.61.83-1.4.83h-39.94l-.47-1.46ZM589.36,31.3c1.91,1.01,3.4,2.05,4.47,3.15s1.82,2.15,2.24,3.17c.42,1.02.59,1.94.52,2.76-.07.81-.31,1.46-.73,1.92-.42.47-.93.7-1.53.7s-1.24-.31-1.9-.94c-.04-1.14-.24-2.35-.62-3.61-.38-1.27-.85-2.5-1.4-3.69-.55-1.2-1.11-2.26-1.66-3.2l.62-.26ZM590.76,18.1h18.15l2.55-3.12c1.07.8,1.98,1.49,2.73,2.08.75.59,1.43,1.14,2.05,1.66-.14.55-.61.83-1.4.83h-23.66l-.42-1.46ZM601.32,18.56h4.26v27.35h-4.26v-27.35ZM614.06,30.99l5.98,2.34c-.14.28-.37.5-.7.68-.33.17-.75.24-1.27.21-1.21,1.7-2.55,3.37-4,5.02-1.46,1.65-2.86,3.06-4.21,4.24l-.73-.47c.49-.97,1.02-2.11,1.61-3.43.59-1.32,1.17-2.72,1.74-4.21.57-1.49,1.1-2.95,1.59-4.37Z"/><path d="M656.6,25.64c-1.35,2.08-2.97,4.07-4.86,5.98-1.89,1.91-4.1,3.63-6.63,5.17-2.53,1.54-5.48,2.78-8.84,3.72l-.47-.73c4.37-2.01,7.94-4.46,10.71-7.36,2.77-2.89,4.84-5.92,6.19-9.07l6.14,1.4c-.1.28-.32.49-.65.65-.33.16-.86.23-1.59.23ZM636.16,28.44h40.25l2.6-3.07c1.07.8,1.98,1.49,2.73,2.08.75.59,1.41,1.14,2,1.66-.1.56-.57.83-1.4.83h-45.71l-.47-1.51ZM636.21,5.82h14.51V.47l5.88.52c-.04.35-.18.65-.44.91-.26.26-.72.43-1.38.49v3.43h10.04V.47l5.98.52c-.04.35-.19.65-.47.91-.28.26-.75.43-1.4.49v3.43h7.44l2.65-3.28c1.04.87,1.93,1.6,2.68,2.21.75.61,1.4,1.19,1.95,1.74-.1.56-.55.83-1.35.83h-13.36v3.02c0,.17-.32.38-.96.62-.64.24-1.45.36-2.42.36h-.73v-4h-10.04v3.22c0,.17-.36.38-1.07.62-.71.24-1.48.36-2.31.36h-.68v-4.21h-14.2l-.31-1.51ZM656.91,30.52l6.08,1.09c-.1.35-.31.62-.62.81-.31.19-.75.3-1.3.34-.38,1.7-.99,3.34-1.82,4.91-.83,1.58-2.03,3.03-3.59,4.37-1.56,1.33-3.59,2.53-6.08,3.59-2.5,1.06-5.56,1.95-9.2,2.68l-.31-.73c3.19-.94,5.83-2.01,7.93-3.22,2.1-1.21,3.76-2.56,4.99-4.03,1.23-1.47,2.15-3.03,2.76-4.68.61-1.65,1-3.35,1.17-5.12ZM645.21,11.96v-1.82l4.42,1.82h24.54v1.56h-24.86v11.8c0,.14-.17.31-.52.52-.35.21-.79.39-1.33.55-.54.16-1.08.23-1.64.23h-.62v-14.66ZM646.3,35.26h24.75v1.51h-24.34l-.42-1.51ZM646.67,17.58h26.57v1.46h-26.57v-1.46ZM646.67,23.14h26.57v1.51h-26.57v-1.51ZM668.87,35.26h-.52l2.08-2.08,4.16,3.33c-.14.21-.37.37-.7.49-.33.12-.75.22-1.27.29-.28,2.5-.72,4.58-1.33,6.24-.61,1.66-1.41,2.82-2.42,3.48-.62.42-1.38.74-2.26.96-.88.23-1.85.34-2.89.34,0-.55-.06-1.07-.18-1.56-.12-.49-.37-.85-.75-1.09-.38-.31-.99-.58-1.82-.81-.83-.23-1.72-.41-2.65-.55v-.88c.69.07,1.48.14,2.37.21.88.07,1.72.13,2.5.18.78.05,1.34.08,1.69.08.76,0,1.33-.12,1.72-.36.49-.38.93-1.3,1.33-2.76s.72-3.29.96-5.51ZM667.26,28.44c1.11,1.28,2.6,2.45,4.47,3.51,1.87,1.06,3.91,1.96,6.11,2.7,2.2.75,4.36,1.31,6.47,1.69l-.05.62c-.73.14-1.34.5-1.85,1.09-.5.59-.86,1.33-1.07,2.24-2.05-.76-4.02-1.7-5.93-2.81-1.91-1.11-3.63-2.38-5.17-3.82-1.54-1.44-2.8-3.04-3.77-4.81l.78-.42ZM670.74,11.96h-.52l2.13-2.24,4.47,3.43c-.14.17-.39.36-.75.55-.36.19-.77.32-1.22.39v10.92c0,.14-.19.31-.57.52-.38.21-.84.4-1.38.57-.54.17-1.05.26-1.53.26h-.62v-14.4Z"/><path d="M709.69,32.5h5.51v.83c-2.63,3.16-6.08,5.89-10.35,8.19-4.26,2.31-8.93,4.15-13.99,5.54l-.42-.78c2.67-1.08,5.21-2.34,7.62-3.8s4.61-3.04,6.6-4.76c1.99-1.72,3.67-3.46,5.02-5.23ZM702.72.1l5.67,2.76c-.14.24-.38.45-.73.62-.35.17-.82.21-1.4.1-2.01,3.19-4.33,6-6.94,8.42-2.62,2.43-5.31,4.4-8.09,5.93l-.57-.57c1.42-1.28,2.87-2.82,4.34-4.6,1.47-1.79,2.88-3.76,4.21-5.93,1.33-2.17,2.5-4.41,3.51-6.73ZM691.23,32.5h40.09l2.7-3.43c.66.55,1.25,1.04,1.77,1.46.52.42,1.07.86,1.64,1.33.57.47,1.1.93,1.59,1.38-.1.56-.57.83-1.4.83h-45.92l-.47-1.56ZM702.93,7.59v21.27c0,.17-.3.44-.91.81-.61.36-1.43.55-2.47.55h-.73V9.05l1.82-2.65,2.96,1.2h-.68ZM701.68,13.62h24.96l2.44-3.02c1.04.8,1.91,1.48,2.6,2.05.69.57,1.32,1.12,1.87,1.64-.14.55-.59.83-1.35.83h-30.52v-1.51ZM701.68,19.66h24.96l2.44-3.02c1.04.8,1.91,1.48,2.6,2.05.69.57,1.32,1.14,1.87,1.69-.14.55-.59.83-1.35.83h-30.52v-1.56ZM701.68,25.95h26.36l2.65-3.28c.66.49,1.24.93,1.74,1.33.5.4,1.03.83,1.59,1.3.55.47,1.07.91,1.56,1.33-.14.56-.61.83-1.4.83h-32.5v-1.51ZM701.78,7.59h25.74l2.6-3.33c.62.52,1.19.98,1.69,1.38.5.4,1.02.83,1.56,1.3.54.47,1.03.91,1.48,1.33-.14.56-.59.83-1.35.83h-31.72v-1.51ZM712.86,28.24l5.98.57c-.04.35-.17.63-.42.86-.24.23-.68.39-1.3.49v16.95c0,.14-.18.31-.55.52-.36.21-.81.38-1.33.52-.52.14-1.06.21-1.61.21h-.78v-20.12ZM713.28,7.59h4.26v18.93h-4.26V7.59ZM716.14.42l6.14,2.39c-.14.28-.37.49-.7.62-.33.14-.77.19-1.33.16-.76.69-1.67,1.46-2.73,2.29-1.06.83-2.14,1.6-3.25,2.29h-.94c.52-1.07,1.04-2.34,1.56-3.8s.94-2.77,1.25-3.95ZM717.38,32.5c1.14,1.21,2.57,2.35,4.26,3.41,1.7,1.06,3.55,2.02,5.56,2.89,2.01.87,4.08,1.6,6.21,2.21,2.13.61,4.19,1.1,6.16,1.48l-.05.57c-.83.17-1.56.58-2.18,1.22s-1.04,1.48-1.25,2.52c-2.63-.87-5.17-1.98-7.59-3.33-2.43-1.35-4.66-2.9-6.71-4.65-2.05-1.75-3.76-3.68-5.15-5.8l.73-.52Z"/><path d="M746.19,28.34h40.25l2.76-3.38c.69.52,1.3.99,1.82,1.4.52.42,1.07.86,1.66,1.33.59.47,1.13.91,1.61,1.33-.14.56-.62.83-1.46.83h-46.18l-.47-1.51ZM777.7,28.34h4.73v.83c-.9,2.53-2.02,4.77-3.35,6.71-1.33,1.94-2.96,3.62-4.86,5.04-1.91,1.42-4.16,2.62-6.76,3.59-2.6.97-5.63,1.76-9.1,2.37-3.47.61-7.42,1.08-11.86,1.43l-.16-.88c6.1-.9,11.28-2.09,15.52-3.56,4.25-1.47,7.66-3.45,10.24-5.93,2.58-2.48,4.45-5.68,5.59-9.59ZM746.66,3.59h39.47l2.76-3.17c1.11.8,2.05,1.5,2.83,2.11.78.61,1.48,1.19,2.11,1.74-.1.56-.57.83-1.4.83h-45.34l-.42-1.51ZM751.65,10.45v-1.92l4.47,1.92h30.84v1.46h-31.2v11.54c0,.14-.17.3-.52.49-.35.19-.79.37-1.33.55-.54.17-1.08.26-1.64.26h-.62v-14.3ZM765.54,21.63l5.88,1.4c-.1.35-.33.62-.68.81-.35.19-.87.29-1.56.29-.55.9-1.31,2.05-2.26,3.46-.95,1.4-1.99,2.89-3.12,4.45-1.13,1.56-2.25,3.09-3.35,4.58-1.11,1.49-2.1,2.77-2.96,3.85-.59.1-1.29.08-2.11-.08-.82-.16-1.59-.46-2.31-.91.94-1.07,2.01-2.41,3.22-4,1.21-1.59,2.43-3.26,3.64-4.99,1.21-1.73,2.32-3.39,3.33-4.97,1-1.58,1.77-2.87,2.29-3.87ZM753.73,20.18h33.07v1.51h-33.07v-1.51ZM758.2,36.3c4.99.42,9.3.94,12.92,1.56,3.62.62,6.67,1.31,9.15,2.05,2.48.75,4.46,1.51,5.93,2.29,1.47.78,2.55,1.53,3.22,2.24.68.71,1.05,1.35,1.12,1.92.07.57-.09,1.03-.47,1.38-.38.35-.88.52-1.51.52s-1.28-.19-1.98-.57c-1.87-1.28-4.17-2.54-6.89-3.77-2.72-1.23-5.88-2.42-9.49-3.56s-7.68-2.18-12.22-3.12l.21-.94ZM762.57,3.59h4v17.32h-4V3.59ZM773.49,3.59h4.11v17.32h-4.11V3.59ZM784.57,10.45h-.52l2.18-2.39,4.68,3.54c-.17.21-.46.42-.86.62s-.84.36-1.33.47v10.35c0,.1-.21.24-.62.42-.42.17-.88.34-1.4.49-.52.16-1.01.23-1.46.23h-.68v-13.73Z"/><path d="M801,35.46c1.07-.31,2.62-.81,4.63-1.51,2.01-.69,4.3-1.51,6.86-2.44,2.56-.94,5.18-1.92,7.85-2.96l.26.68c-1.73,1.18-3.9,2.6-6.5,4.26-2.6,1.66-5.63,3.54-9.1,5.62-.07.28-.2.55-.39.81-.19.26-.42.44-.7.55l-2.91-4.99ZM801.31,8.11h12.53l2.55-3.33c.66.52,1.23.99,1.72,1.4.48.42,1,.86,1.56,1.33.55.47,1.06.91,1.51,1.33-.14.55-.61.83-1.4.83h-18.04l-.42-1.56ZM808.64,8.11h4.32v25.12l-4.32,1.4V8.11ZM828.61,37.91l4.78,3.02c-.31.49-.9.55-1.77.21-1.25.97-2.84,1.94-4.78,2.91-1.94.97-4,1.83-6.19,2.57-2.18.75-4.32,1.34-6.4,1.79l-.47-.78c1.8-.73,3.65-1.63,5.54-2.7,1.89-1.07,3.65-2.23,5.28-3.46,1.63-1.23,2.96-2.42,4-3.56ZM818.94,4.26h23.14l2.7-3.43c.69.52,1.3.99,1.82,1.4.52.42,1.07.86,1.64,1.33.57.47,1.08.91,1.53,1.33-.1.56-.56.83-1.35.83h-29.07l-.42-1.46ZM822.37,11.54v-1.87l4.37,1.87h16.64v1.56h-16.9v24.23c0,.14-.16.32-.49.55-.33.23-.75.42-1.27.6-.52.17-1.09.26-1.72.26h-.62V11.54ZM824.76,19.14h18.15v1.51h-18.15v-1.51ZM824.76,26.83h18.15v1.51h-18.15v-1.51ZM824.76,34.58h18.15v1.51h-18.15v-1.51ZM831.32,4.26h5.51c-.73,1.35-1.57,2.82-2.52,4.39-.95,1.58-1.86,2.87-2.73,3.87h-1.14c.14-.69.26-1.52.36-2.5.1-.97.2-1.98.29-3.02.09-1.04.16-1.96.23-2.76ZM835.63,38.38c2.63.35,4.81.88,6.53,1.59,1.72.71,3.05,1.49,4,2.34.95.85,1.59,1.68,1.9,2.5.31.81.37,1.52.18,2.13-.19.61-.58,1.03-1.17,1.27-.59.24-1.28.19-2.08-.16-.59-1.08-1.44-2.18-2.55-3.33-1.11-1.14-2.31-2.22-3.59-3.22-1.28-1-2.5-1.87-3.64-2.6l.42-.52ZM841.46,11.54h-.47l2.13-2.24,4.42,3.43c-.14.17-.38.36-.73.55-.35.19-.73.32-1.14.39v23.09c0,.14-.2.31-.6.52-.4.21-.87.39-1.4.55-.54.16-1.05.23-1.53.23h-.68V11.54Z"/><rect class="cls-1" x="899.18" y="24.96" width="417.66" height="1.5"/><rect class="cls-1" x="0" y="24.96" width="418.67" height="1.5"/></svg>