<?xml version="1.0" encoding="UTF-8"?><svg id="_レイヤー_1" xmlns="http://www.w3.org/2000/svg" viewBox="0 0 1316.83 47.71"><defs><style>.cls-1{fill:#1f1815;}</style></defs><path d="M528.74,13.59c-1.63-6.96-6.24-10.4-14.04-10.4-11.25,0-19.11,8.45-19.11,20.61s7.93,20.93,19.11,20.93c5.4,0,9.75-1.88,12.16-5.2,1.17-1.62,1.89-3.38,2.6-6.24l2.02.13-1.62,10.34c-5.92,2.53-10.73,3.57-15.99,3.57-14.43,0-24.25-9.36-24.25-23.08s10.27-23.66,24.05-23.66c4.29,0,8.39.78,15.93,2.99l1.1,9.69-1.95.33Z"/><path d="M587.63,24.18c0,13.13-10.27,23.14-23.79,23.14s-23.4-10.01-23.4-23.47,10.27-23.27,24.25-23.27c13,0,22.95,10.21,22.95,23.6ZM546.36,23.21c0,12.55,7.74,21.84,18.14,21.84s17.36-8.45,17.36-19.89c0-5.53-1.62-10.99-4.42-15.02-3.31-4.75-7.93-7.15-13.72-7.15-9.95,0-17.36,8.65-17.36,20.22Z"/><path d="M596.6,1.3c2.4.19,3.58.26,5.4.26s3.06-.06,5.33-.26l27.69,36.08v-16.58c0-10.08-.26-14.24-.98-15.6-.72-1.3-1.95-1.82-4.94-1.88V1.3c2.28.26,3.97.32,6.63.32s4.81-.06,7.48-.32v2.02c-4.42.06-5.33,1.23-5.4,7.02l-.06,4.1-.06,3.12-.26,30.16h-.71l-31.98-40.95.19,22.49c.06,10.21.26,13.07.98,13.78.78,1.17,2.02,1.62,4.16,1.62h.58v1.95c-3.58-.26-5.2-.33-7.02-.33-2.01,0-2.99.06-7.02.33v-1.95c5.07-.06,5.33-.78,5.46-12.22l.33-19.63v-1.1c0-4.88-.13-5.98-.91-6.96-.78-.91-2.34-1.36-4.88-1.43V1.3Z"/><path d="M653.09,0c2.08,1.3,4.42,1.56,12.54,1.56,15.21,0,18.07-.19,21.13-1.56h1.11c-1.11,3.9-1.95,7.28-2.34,9.62h-1.95c.13-.91.19-1.43.19-2.08,0-2.8-1.1-3.51-5.33-3.51h-7.61v31.53q.13,7.08,1.17,8c.71.65,2.14.98,3.96.98h.65v2.08c-3.77-.26-5.65-.33-7.87-.33s-3.18.06-8.64.33v-2.08h.39c1.82,0,3.25-.33,3.96-.98q1.04-.91,1.17-8V4.03h-4.61c-6.5,0-8.19.91-10.08,5.59h-1.95c1.1-2.86,1.82-5.14,2.93-9.62h1.17Z"/><path d="M703.2,35.3c-1.23,3.38-1.95,5.98-1.95,6.89,0,1.56,1.3,2.21,4.36,2.34v2.08c-2.92-.26-4.49-.33-7.08-.33s-4.03.06-6.5.33v-2.08c2.47-.13,3.44-.52,4.35-1.62.98-1.43,1.11-1.69,5.98-13.65l5.2-13.59c.98-2.6,2.01-5.27,3.06-8.06.91-2.27,1.1-2.73,2.27-5.92l3.45-1.62.39,1.17c.46,1.56.91,3.12,1.43,4.68.39,1.3.78,2.54,1.23,3.77l7.28,21.97c4.1,12.16,4.29,12.48,9.04,12.87v2.08c-3.32-.26-5.14-.33-7.35-.33-2.47,0-3.58.06-8.19.33v-2.08c3.06-.13,4.29-.71,4.29-2.02,0-.71-.52-2.79-1.1-4.75l-3.19-9.75h-14.37l-2.6,7.28ZM719.39,25.61l-5.98-18.59-6.7,18.59h12.67Z"/><path d="M781.4,13.59c-1.62-6.96-6.24-10.4-14.04-10.4-11.25,0-19.11,8.45-19.11,20.61s7.93,20.93,19.11,20.93c5.39,0,9.75-1.88,12.16-5.2,1.17-1.62,1.88-3.38,2.6-6.24l2.01.13-1.62,10.34c-5.92,2.53-10.73,3.57-15.99,3.57-14.43,0-24.25-9.36-24.25-23.08s10.27-23.66,24.05-23.66c4.29,0,8.38.78,15.93,2.99l1.1,9.69-1.95.33Z"/><path d="M794.85,0c2.08,1.3,4.42,1.56,12.54,1.56,15.21,0,18.07-.19,21.13-1.56h1.11c-1.11,3.9-1.95,7.28-2.34,9.62h-1.95c.13-.91.19-1.43.19-2.08,0-2.8-1.1-3.51-5.33-3.51h-7.61v31.53q.13,7.08,1.17,8c.71.65,2.14.98,3.96.98h.65v2.08c-3.77-.26-5.65-.33-7.87-.33s-3.18.06-8.64.33v-2.08h.39c1.82,0,3.25-.33,3.96-.98q1.04-.91,1.17-8V4.03h-4.61c-6.5,0-8.19.91-10.08,5.59h-1.95c1.11-2.86,1.82-5.14,2.93-9.62h1.17Z"/><rect class="cls-1" x="878.58" y="18.39" width="438.25" height="1.5"/><rect class="cls-1" x="0" y="18.39" width="440.03" height="1.5"/></svg>