<?xml version="1.0" encoding="UTF-8"?><svg id="_レイヤー_1" xmlns="http://www.w3.org/2000/svg" viewBox="0 0 1316.83 47.71"><defs><style>.cls-1{stroke:#1f1815;stroke-miterlimit:10;stroke-width:1.5px;}</style></defs><path d="M519.71,24.83c6.63-.46,10.47-4.42,10.47-10.99,0-3.19-1.04-5.85-3.06-7.67-2.15-1.95-4.49-2.67-8.65-2.67h-2.92c-.06,2.73-.06,3.45-.13,4.55l-.07,4.42v23.08q.13,7.08,1.17,8c.71.65,2.15.97,3.96.97h.65v2.08c-3.71-.26-5.79-.33-8.71-.33s-4.75.07-7.93.33v-2.08h.59c1.82,0,3.25-.33,3.96-.97q1.04-.91,1.17-8V12.35q-.13-7.15-1.17-8c-.71-.65-2.15-1.04-3.96-1.04h-.59V1.3c2.41.13,3.58.13,5.14.13q2.02,0,9.1-.32c1.04-.07,2.21-.07,3.51-.07,5.07,0,7.74.91,10.01,3.45,1.89,2.08,2.93,4.94,2.93,8.12,0,8.45-6.24,14.17-15.47,14.17v-1.95Z"/><path d="M549.35,35.3c-1.24,3.38-1.95,5.98-1.95,6.89,0,1.56,1.3,2.21,4.35,2.34v2.08c-2.92-.26-4.48-.33-7.08-.33s-4.03.07-6.5.33v-2.08c2.47-.13,3.45-.52,4.36-1.62.97-1.43,1.1-1.69,5.98-13.65l5.2-13.58c.98-2.6,2.02-5.27,3.06-8.06.91-2.28,1.1-2.73,2.27-5.92l3.45-1.62.39,1.17c.46,1.56.91,3.12,1.43,4.68.39,1.3.78,2.54,1.24,3.77l7.28,21.97c4.1,12.16,4.29,12.48,9.04,12.87v2.08c-3.31-.26-5.14-.33-7.35-.33-2.47,0-3.58.07-8.19.33v-2.08c3.06-.13,4.29-.71,4.29-2.01,0-.71-.52-2.79-1.11-4.75l-3.19-9.75h-14.37l-2.6,7.28ZM565.53,25.61l-5.98-18.59-6.7,18.59h12.68Z"/><path d="M625.01,46.61c-5.53,0-5.98-.19-8.71-4.16l-12.03-17.16c-1.95.19-2.73.26-3.64.26-.46,0-.85,0-1.89-.07v10.08q.13,7.08,1.17,8c.71.65,2.15.97,3.96.97h.58v2.08c-3.77-.26-5.72-.33-8.19-.33s-4.42.07-8.19.33v-2.08h.46c1.82,0,3.25-.33,3.96-.97q1.04-.91,1.17-8V12.35q-.13-7.08-1.17-8c-.71-.65-2.15-1.04-3.96-1.04h-.46V1.3c2.67.26,4.03.33,5.98.33,1.76,0,2.47,0,7.67-.39,1.62-.07,3.19-.13,4.62-.13,3.83,0,6.44.91,8.52,3.05,1.89,2.01,2.93,4.68,2.93,7.74,0,3.96-1.76,7.61-4.75,9.95-1.17.91-2.15,1.43-4.03,2.15l.52.71,1.17,1.5.98,1.43,6.57,8.78c5.72,7.54,6.31,8,10.21,8.39v1.82h-3.44ZM598.75,23.21c1.1.06,1.62.06,2.15.06,7.35,0,11.9-3.9,11.9-10.21,0-5.98-4.16-9.56-11.05-9.56-.65,0-.85,0-2.79.13-.06,2.28-.06,2.8-.13,4.23l-.06,4.16v11.18Z"/><path d="M636.77,0c2.08,1.3,4.42,1.56,12.55,1.56,15.21,0,18.07-.19,21.13-1.56h1.11c-1.11,3.9-1.95,7.28-2.34,9.62h-1.95c.13-.91.19-1.43.19-2.08,0-2.79-1.1-3.51-5.33-3.51h-7.6v31.53q.13,7.08,1.17,8c.72.65,2.15.97,3.97.97h.65v2.08c-3.77-.26-5.66-.33-7.87-.33s-3.19.07-8.65.33v-2.08h.39c1.82,0,3.25-.33,3.97-.97q1.04-.91,1.17-8V4.03h-4.62c-6.5,0-8.19.91-10.08,5.59h-1.95c1.1-2.86,1.82-5.13,2.93-9.62h1.17Z"/><path d="M678.11,1.3c2.41.2,3.58.26,5.4.26s3.06-.06,5.33-.26l27.69,36.08v-16.58c0-10.08-.26-14.24-.98-15.6-.71-1.3-1.95-1.82-4.94-1.88V1.3c2.27.26,3.96.33,6.63.33s4.81-.07,7.48-.33v2.02c-4.42.06-5.33,1.23-5.4,7.02l-.06,4.1-.07,3.12-.26,30.16h-.72l-31.98-40.95.19,22.49c.07,10.21.26,13.07.98,13.78.78,1.17,2.01,1.62,4.16,1.62h.58v1.95c-3.58-.26-5.2-.33-7.02-.33-2.01,0-2.99.07-7.02.33v-1.95c5.07-.06,5.33-.78,5.46-12.22l.33-19.63v-1.11c0-4.88-.13-5.98-.91-6.96-.78-.91-2.34-1.37-4.88-1.43V1.3Z"/><path d="M761.57,10.92c-.58-3.25-1.04-4.29-2.21-5.13-1.75-1.3-4.36-1.75-10.01-1.75q-6.11,0-6.11,2.14v15.93h6.17c7.35,0,8.65-.84,8.65-5.59h1.95c-.13,2.34-.2,3.38-.2,5.53,0,3.31.07,4.94.39,7.8h-2.15c-.13-4.81-1.11-5.33-9.36-5.33h-5.46v9.29c0,5.92.13,7.41.65,8.32.85,1.3,2.93,1.69,9.56,1.69,8.19,0,10.27-1.3,11.96-7.48l1.89.39-2.34,9.88c-5.66-.26-12.09-.39-15.93-.39-5.33,0-13.07.2-16.51.39v-2.08h.39c1.82,0,3.25-.33,3.97-.97q1.04-.91,1.17-8V12.35q-.13-7.08-1.17-8c-.72-.65-2.15-1.04-3.97-1.04h-.39V1.3c4.29.26,6.96.33,13.85.33s8.51-.07,16.12-.33l.98,9.23-1.89.39Z"/><path d="M811.1,46.61c-5.52,0-5.98-.19-8.71-4.16l-12.03-17.16c-1.95.19-2.73.26-3.64.26-.46,0-.84,0-1.88-.07v10.08q.13,7.08,1.17,8c.71.65,2.15.97,3.97.97h.58v2.08c-3.77-.26-5.72-.33-8.19-.33s-4.42.07-8.19.33v-2.08h.46c1.82,0,3.25-.33,3.96-.97q1.04-.91,1.17-8V12.35q-.13-7.08-1.17-8c-.71-.65-2.14-1.04-3.96-1.04h-.46V1.3c2.67.26,4.03.33,5.98.33,1.75,0,2.47,0,7.67-.39,1.62-.07,3.19-.13,4.62-.13,3.83,0,6.44.91,8.52,3.05,1.88,2.01,2.92,4.68,2.92,7.74,0,3.96-1.75,7.61-4.75,9.95-1.17.91-2.15,1.43-4.03,2.15l.52.71,1.17,1.5.97,1.43,6.57,8.78c5.72,7.54,6.3,8,10.21,8.39v1.82h-3.45ZM784.84,23.21c1.11.06,1.62.06,2.15.06,7.34,0,11.9-3.9,11.9-10.21,0-5.98-4.16-9.56-11.05-9.56-.65,0-.84,0-2.79.13-.07,2.28-.07,2.8-.13,4.23l-.07,4.16v11.18Z"/><line class="cls-1" x1="1316.83" y1="24.06" x2="836.54" y2="24.06"/><line class="cls-1" x1="469.69" y1="24.06" x2="0" y2="24.06"/></svg>